M48
; DRILL file {KiCad 9.0.2} date 2025-08-18T13:40:37+0300
; FORMAT={-:-/ absolute / metric / decimal}
; #@! TF.CreationDate,2025-08-18T13:40:37+03:00
; #@! TF.GenerationSoftware,Kicad,Pcbnew,9.0.2
; #@! TF.FileFunction,Plated,1,4,PTH
FMAT,2
METRIC
; #@! TA.AperFunction,Plated,PTH,ViaDrill
T1C0.300
; #@! TA.AperFunction,Plated,PTH,ComponentDrill
T2C0.500
; #@! TA.AperFunction,Plated,PTH,ComponentDrill
T3C1.000
; #@! TA.AperFunction,Plated,PTH,ComponentDrill
T4C1.200
; #@! TA.AperFunction,Plated,PTH,ComponentDrill
T5C1.500
%
G90
G05
T1
X33.2Y-47.6
X38.0Y-52.5
X38.5Y-42.5
X47.5Y-37.25
X47.5Y-41.25
X49.0Y-37.25
X49.25Y-44.75
X50.024Y-40.524
X51.0Y-36.5
X52.75Y-46.5
X53.25Y-47.25
X53.25Y-48.0
X53.25Y-48.75
X53.25Y-49.5
X53.5Y-45.75
X53.75Y-50.5
X56.0Y-49.75
X56.0Y-50.75
X56.0Y-51.75
X57.0Y-53.25
X57.75Y-41.5
X58.5Y-39.5
X58.5Y-51.5
X59.5Y-39.0
X62.0Y-51.5
X63.0Y-43.75
X63.25Y-50.25
X63.875Y-49.375
X64.5Y-50.25
X67.5Y-36.5
X67.591Y-38.091
X68.75Y-46.25
X69.125Y-37.875
X70.75Y-39.5
X71.875Y-44.375
X72.438Y-57.812
X75.688Y-42.062
T2
X67.8Y-52.15
X69.7Y-52.15
T3
X30.325Y-35.25
X30.325Y-39.75
X30.325Y-54.25
X30.325Y-58.75
X32.34Y-30.5
X32.34Y-63.5
X34.88Y-30.5
X34.88Y-63.5
X37.42Y-30.5
X37.42Y-63.5
X39.96Y-30.5
X39.96Y-63.5
X42.5Y-30.5
X42.5Y-63.5
X42.629Y-56.0
X45.04Y-30.5
X45.04Y-63.5
X47.58Y-30.5
X47.58Y-63.5
X47.629Y-56.0
X50.12Y-30.5
X50.12Y-63.5
X52.66Y-30.5
X52.66Y-63.5
X55.0Y-54.46
X55.0Y-57.0
X55.0Y-59.54
X55.2Y-30.5
X55.2Y-63.5
X57.74Y-30.5
X57.74Y-63.5
X60.28Y-30.5
X60.28Y-63.5
X62.82Y-30.5
X62.82Y-63.5
X65.36Y-30.5
X65.36Y-63.5
X67.9Y-30.5
X67.9Y-63.5
X70.44Y-30.5
X70.44Y-63.5
X72.98Y-30.5
X72.98Y-63.5
X75.52Y-30.5
X75.52Y-63.5
X75.725Y-60.0
X78.06Y-30.5
X78.06Y-63.5
X78.265Y-60.0
X80.6Y-30.5
X80.6Y-63.5
X83.0Y-35.25
X83.0Y-39.75
T4
X77.35Y-50.5
X80.75Y-45.5
X80.75Y-55.5
T5
X32.825Y-34.0
X32.825Y-41.0
X32.825Y-53.0
X32.825Y-60.0
X80.5Y-34.0
X80.5Y-41.0
M30
