G04 #@! TF.GenerationSoftware,KiCad,Pcbnew,9.0.2*
G04 #@! TF.CreationDate,2025-08-18T13:33:17+03:00*
G04 #@! TF.ProjectId,tickbox,7469636b-626f-4782-9e6b-696361645f70,rev?*
G04 #@! TF.SameCoordinates,Original*
G04 #@! TF.FileFunction,Legend,Top*
G04 #@! TF.FilePolarity,Positive*
%FSLAX46Y46*%
G04 Gerber Fmt 4.6, Leading zero omitted, Abs format (unit mm)*
G04 Created by KiCad (PCBNEW 9.0.2) date 2025-08-18 13:33:17*
%MOMM*%
%LPD*%
G01*
G04 APERTURE LIST*
%ADD10C,0.150000*%
%ADD11C,0.100000*%
%ADD12C,0.254000*%
%ADD13C,0.120000*%
%ADD14C,0.200000*%
%ADD15C,0.250000*%
G04 APERTURE END LIST*
D10*
X70609580Y-59916666D02*
X70657200Y-59964285D01*
X70657200Y-59964285D02*
X70704819Y-60107142D01*
X70704819Y-60107142D02*
X70704819Y-60202380D01*
X70704819Y-60202380D02*
X70657200Y-60345237D01*
X70657200Y-60345237D02*
X70561961Y-60440475D01*
X70561961Y-60440475D02*
X70466723Y-60488094D01*
X70466723Y-60488094D02*
X70276247Y-60535713D01*
X70276247Y-60535713D02*
X70133390Y-60535713D01*
X70133390Y-60535713D02*
X69942914Y-60488094D01*
X69942914Y-60488094D02*
X69847676Y-60440475D01*
X69847676Y-60440475D02*
X69752438Y-60345237D01*
X69752438Y-60345237D02*
X69704819Y-60202380D01*
X69704819Y-60202380D02*
X69704819Y-60107142D01*
X69704819Y-60107142D02*
X69752438Y-59964285D01*
X69752438Y-59964285D02*
X69800057Y-59916666D01*
X69800057Y-59535713D02*
X69752438Y-59488094D01*
X69752438Y-59488094D02*
X69704819Y-59392856D01*
X69704819Y-59392856D02*
X69704819Y-59154761D01*
X69704819Y-59154761D02*
X69752438Y-59059523D01*
X69752438Y-59059523D02*
X69800057Y-59011904D01*
X69800057Y-59011904D02*
X69895295Y-58964285D01*
X69895295Y-58964285D02*
X69990533Y-58964285D01*
X69990533Y-58964285D02*
X70133390Y-59011904D01*
X70133390Y-59011904D02*
X70704819Y-59583332D01*
X70704819Y-59583332D02*
X70704819Y-58964285D01*
X52166666Y-53454819D02*
X52166666Y-54169104D01*
X52166666Y-54169104D02*
X52119047Y-54311961D01*
X52119047Y-54311961D02*
X52023809Y-54407200D01*
X52023809Y-54407200D02*
X51880952Y-54454819D01*
X51880952Y-54454819D02*
X51785714Y-54454819D01*
X53166666Y-54454819D02*
X52595238Y-54454819D01*
X52880952Y-54454819D02*
X52880952Y-53454819D01*
X52880952Y-53454819D02*
X52785714Y-53597676D01*
X52785714Y-53597676D02*
X52690476Y-53692914D01*
X52690476Y-53692914D02*
X52595238Y-53740533D01*
X47833333Y-49784819D02*
X47500000Y-49308628D01*
X47261905Y-49784819D02*
X47261905Y-48784819D01*
X47261905Y-48784819D02*
X47642857Y-48784819D01*
X47642857Y-48784819D02*
X47738095Y-48832438D01*
X47738095Y-48832438D02*
X47785714Y-48880057D01*
X47785714Y-48880057D02*
X47833333Y-48975295D01*
X47833333Y-48975295D02*
X47833333Y-49118152D01*
X47833333Y-49118152D02*
X47785714Y-49213390D01*
X47785714Y-49213390D02*
X47738095Y-49261009D01*
X47738095Y-49261009D02*
X47642857Y-49308628D01*
X47642857Y-49308628D02*
X47261905Y-49308628D01*
X48166667Y-48784819D02*
X48833333Y-48784819D01*
X48833333Y-48784819D02*
X48404762Y-49784819D01*
D11*
X45909800Y-39833332D02*
X45957419Y-39690475D01*
X45957419Y-39690475D02*
X45957419Y-39452380D01*
X45957419Y-39452380D02*
X45909800Y-39357142D01*
X45909800Y-39357142D02*
X45862180Y-39309523D01*
X45862180Y-39309523D02*
X45766942Y-39261904D01*
X45766942Y-39261904D02*
X45671704Y-39261904D01*
X45671704Y-39261904D02*
X45576466Y-39309523D01*
X45576466Y-39309523D02*
X45528847Y-39357142D01*
X45528847Y-39357142D02*
X45481228Y-39452380D01*
X45481228Y-39452380D02*
X45433609Y-39642856D01*
X45433609Y-39642856D02*
X45385990Y-39738094D01*
X45385990Y-39738094D02*
X45338371Y-39785713D01*
X45338371Y-39785713D02*
X45243133Y-39833332D01*
X45243133Y-39833332D02*
X45147895Y-39833332D01*
X45147895Y-39833332D02*
X45052657Y-39785713D01*
X45052657Y-39785713D02*
X45005038Y-39738094D01*
X45005038Y-39738094D02*
X44957419Y-39642856D01*
X44957419Y-39642856D02*
X44957419Y-39404761D01*
X44957419Y-39404761D02*
X45005038Y-39261904D01*
X44957419Y-38928570D02*
X45957419Y-38690475D01*
X45957419Y-38690475D02*
X45243133Y-38499999D01*
X45243133Y-38499999D02*
X45957419Y-38309523D01*
X45957419Y-38309523D02*
X44957419Y-38071428D01*
X45290752Y-37261904D02*
X45957419Y-37261904D01*
X44909800Y-37499999D02*
X45624085Y-37738094D01*
X45624085Y-37738094D02*
X45624085Y-37119047D01*
D10*
X36124819Y-49166666D02*
X35648628Y-49499999D01*
X36124819Y-49738094D02*
X35124819Y-49738094D01*
X35124819Y-49738094D02*
X35124819Y-49357142D01*
X35124819Y-49357142D02*
X35172438Y-49261904D01*
X35172438Y-49261904D02*
X35220057Y-49214285D01*
X35220057Y-49214285D02*
X35315295Y-49166666D01*
X35315295Y-49166666D02*
X35458152Y-49166666D01*
X35458152Y-49166666D02*
X35553390Y-49214285D01*
X35553390Y-49214285D02*
X35601009Y-49261904D01*
X35601009Y-49261904D02*
X35648628Y-49357142D01*
X35648628Y-49357142D02*
X35648628Y-49738094D01*
X36124819Y-48690475D02*
X36124819Y-48499999D01*
X36124819Y-48499999D02*
X36077200Y-48404761D01*
X36077200Y-48404761D02*
X36029580Y-48357142D01*
X36029580Y-48357142D02*
X35886723Y-48261904D01*
X35886723Y-48261904D02*
X35696247Y-48214285D01*
X35696247Y-48214285D02*
X35315295Y-48214285D01*
X35315295Y-48214285D02*
X35220057Y-48261904D01*
X35220057Y-48261904D02*
X35172438Y-48309523D01*
X35172438Y-48309523D02*
X35124819Y-48404761D01*
X35124819Y-48404761D02*
X35124819Y-48595237D01*
X35124819Y-48595237D02*
X35172438Y-48690475D01*
X35172438Y-48690475D02*
X35220057Y-48738094D01*
X35220057Y-48738094D02*
X35315295Y-48785713D01*
X35315295Y-48785713D02*
X35553390Y-48785713D01*
X35553390Y-48785713D02*
X35648628Y-48738094D01*
X35648628Y-48738094D02*
X35696247Y-48690475D01*
X35696247Y-48690475D02*
X35743866Y-48595237D01*
X35743866Y-48595237D02*
X35743866Y-48404761D01*
X35743866Y-48404761D02*
X35696247Y-48309523D01*
X35696247Y-48309523D02*
X35648628Y-48261904D01*
X35648628Y-48261904D02*
X35553390Y-48214285D01*
X42357142Y-46124819D02*
X42023809Y-45648628D01*
X41785714Y-46124819D02*
X41785714Y-45124819D01*
X41785714Y-45124819D02*
X42166666Y-45124819D01*
X42166666Y-45124819D02*
X42261904Y-45172438D01*
X42261904Y-45172438D02*
X42309523Y-45220057D01*
X42309523Y-45220057D02*
X42357142Y-45315295D01*
X42357142Y-45315295D02*
X42357142Y-45458152D01*
X42357142Y-45458152D02*
X42309523Y-45553390D01*
X42309523Y-45553390D02*
X42261904Y-45601009D01*
X42261904Y-45601009D02*
X42166666Y-45648628D01*
X42166666Y-45648628D02*
X41785714Y-45648628D01*
X43309523Y-46124819D02*
X42738095Y-46124819D01*
X43023809Y-46124819D02*
X43023809Y-45124819D01*
X43023809Y-45124819D02*
X42928571Y-45267676D01*
X42928571Y-45267676D02*
X42833333Y-45362914D01*
X42833333Y-45362914D02*
X42738095Y-45410533D01*
X43642857Y-45124819D02*
X44261904Y-45124819D01*
X44261904Y-45124819D02*
X43928571Y-45505771D01*
X43928571Y-45505771D02*
X44071428Y-45505771D01*
X44071428Y-45505771D02*
X44166666Y-45553390D01*
X44166666Y-45553390D02*
X44214285Y-45601009D01*
X44214285Y-45601009D02*
X44261904Y-45696247D01*
X44261904Y-45696247D02*
X44261904Y-45934342D01*
X44261904Y-45934342D02*
X44214285Y-46029580D01*
X44214285Y-46029580D02*
X44166666Y-46077200D01*
X44166666Y-46077200D02*
X44071428Y-46124819D01*
X44071428Y-46124819D02*
X43785714Y-46124819D01*
X43785714Y-46124819D02*
X43690476Y-46077200D01*
X43690476Y-46077200D02*
X43642857Y-46029580D01*
X70609580Y-35916666D02*
X70657200Y-35964285D01*
X70657200Y-35964285D02*
X70704819Y-36107142D01*
X70704819Y-36107142D02*
X70704819Y-36202380D01*
X70704819Y-36202380D02*
X70657200Y-36345237D01*
X70657200Y-36345237D02*
X70561961Y-36440475D01*
X70561961Y-36440475D02*
X70466723Y-36488094D01*
X70466723Y-36488094D02*
X70276247Y-36535713D01*
X70276247Y-36535713D02*
X70133390Y-36535713D01*
X70133390Y-36535713D02*
X69942914Y-36488094D01*
X69942914Y-36488094D02*
X69847676Y-36440475D01*
X69847676Y-36440475D02*
X69752438Y-36345237D01*
X69752438Y-36345237D02*
X69704819Y-36202380D01*
X69704819Y-36202380D02*
X69704819Y-36107142D01*
X69704819Y-36107142D02*
X69752438Y-35964285D01*
X69752438Y-35964285D02*
X69800057Y-35916666D01*
X69704819Y-35011904D02*
X69704819Y-35488094D01*
X69704819Y-35488094D02*
X70181009Y-35535713D01*
X70181009Y-35535713D02*
X70133390Y-35488094D01*
X70133390Y-35488094D02*
X70085771Y-35392856D01*
X70085771Y-35392856D02*
X70085771Y-35154761D01*
X70085771Y-35154761D02*
X70133390Y-35059523D01*
X70133390Y-35059523D02*
X70181009Y-35011904D01*
X70181009Y-35011904D02*
X70276247Y-34964285D01*
X70276247Y-34964285D02*
X70514342Y-34964285D01*
X70514342Y-34964285D02*
X70609580Y-35011904D01*
X70609580Y-35011904D02*
X70657200Y-35059523D01*
X70657200Y-35059523D02*
X70704819Y-35154761D01*
X70704819Y-35154761D02*
X70704819Y-35392856D01*
X70704819Y-35392856D02*
X70657200Y-35488094D01*
X70657200Y-35488094D02*
X70609580Y-35535713D01*
X41869047Y-52931009D02*
X42011904Y-52978628D01*
X42011904Y-52978628D02*
X42059523Y-53026247D01*
X42059523Y-53026247D02*
X42107142Y-53121485D01*
X42107142Y-53121485D02*
X42107142Y-53264342D01*
X42107142Y-53264342D02*
X42059523Y-53359580D01*
X42059523Y-53359580D02*
X42011904Y-53407200D01*
X42011904Y-53407200D02*
X41916666Y-53454819D01*
X41916666Y-53454819D02*
X41535714Y-53454819D01*
X41535714Y-53454819D02*
X41535714Y-52454819D01*
X41535714Y-52454819D02*
X41869047Y-52454819D01*
X41869047Y-52454819D02*
X41964285Y-52502438D01*
X41964285Y-52502438D02*
X42011904Y-52550057D01*
X42011904Y-52550057D02*
X42059523Y-52645295D01*
X42059523Y-52645295D02*
X42059523Y-52740533D01*
X42059523Y-52740533D02*
X42011904Y-52835771D01*
X42011904Y-52835771D02*
X41964285Y-52883390D01*
X41964285Y-52883390D02*
X41869047Y-52931009D01*
X41869047Y-52931009D02*
X41535714Y-52931009D01*
X42440476Y-52454819D02*
X43107142Y-52454819D01*
X43107142Y-52454819D02*
X42440476Y-53454819D01*
X42440476Y-53454819D02*
X43107142Y-53454819D01*
X44011904Y-53454819D02*
X43440476Y-53454819D01*
X43726190Y-53454819D02*
X43726190Y-52454819D01*
X43726190Y-52454819D02*
X43630952Y-52597676D01*
X43630952Y-52597676D02*
X43535714Y-52692914D01*
X43535714Y-52692914D02*
X43440476Y-52740533D01*
D12*
X59217251Y-41529460D02*
X60115277Y-40631434D01*
X60243566Y-42384722D02*
X60158040Y-42384722D01*
X60158040Y-42384722D02*
X59986987Y-42299196D01*
X59986987Y-42299196D02*
X59901461Y-42213670D01*
X59901461Y-42213670D02*
X59815935Y-42042617D01*
X59815935Y-42042617D02*
X59815935Y-41871565D01*
X59815935Y-41871565D02*
X59858698Y-41743275D01*
X59858698Y-41743275D02*
X59986987Y-41529460D01*
X59986987Y-41529460D02*
X60115277Y-41401170D01*
X60115277Y-41401170D02*
X60329092Y-41272881D01*
X60329092Y-41272881D02*
X60457382Y-41230118D01*
X60457382Y-41230118D02*
X60628434Y-41230118D01*
X60628434Y-41230118D02*
X60799487Y-41315644D01*
X60799487Y-41315644D02*
X60885013Y-41401170D01*
X60885013Y-41401170D02*
X60970539Y-41572223D01*
X60970539Y-41572223D02*
X60970539Y-41657749D01*
X61013302Y-43325511D02*
X60500145Y-42812353D01*
X60756724Y-43068932D02*
X61654749Y-42170907D01*
X61654749Y-42170907D02*
X61440934Y-42213670D01*
X61440934Y-42213670D02*
X61269881Y-42213670D01*
X61269881Y-42213670D02*
X61141592Y-42170907D01*
D10*
X43904761Y-42550057D02*
X43809523Y-42502438D01*
X43809523Y-42502438D02*
X43714285Y-42407200D01*
X43714285Y-42407200D02*
X43571428Y-42264342D01*
X43571428Y-42264342D02*
X43476190Y-42216723D01*
X43476190Y-42216723D02*
X43380952Y-42216723D01*
X43428571Y-42454819D02*
X43333333Y-42407200D01*
X43333333Y-42407200D02*
X43238095Y-42311961D01*
X43238095Y-42311961D02*
X43190476Y-42121485D01*
X43190476Y-42121485D02*
X43190476Y-41788152D01*
X43190476Y-41788152D02*
X43238095Y-41597676D01*
X43238095Y-41597676D02*
X43333333Y-41502438D01*
X43333333Y-41502438D02*
X43428571Y-41454819D01*
X43428571Y-41454819D02*
X43619047Y-41454819D01*
X43619047Y-41454819D02*
X43714285Y-41502438D01*
X43714285Y-41502438D02*
X43809523Y-41597676D01*
X43809523Y-41597676D02*
X43857142Y-41788152D01*
X43857142Y-41788152D02*
X43857142Y-42121485D01*
X43857142Y-42121485D02*
X43809523Y-42311961D01*
X43809523Y-42311961D02*
X43714285Y-42407200D01*
X43714285Y-42407200D02*
X43619047Y-42454819D01*
X43619047Y-42454819D02*
X43428571Y-42454819D01*
X44809523Y-42454819D02*
X44238095Y-42454819D01*
X44523809Y-42454819D02*
X44523809Y-41454819D01*
X44523809Y-41454819D02*
X44428571Y-41597676D01*
X44428571Y-41597676D02*
X44333333Y-41692914D01*
X44333333Y-41692914D02*
X44238095Y-41740533D01*
X39284819Y-38166666D02*
X38808628Y-38499999D01*
X39284819Y-38738094D02*
X38284819Y-38738094D01*
X38284819Y-38738094D02*
X38284819Y-38357142D01*
X38284819Y-38357142D02*
X38332438Y-38261904D01*
X38332438Y-38261904D02*
X38380057Y-38214285D01*
X38380057Y-38214285D02*
X38475295Y-38166666D01*
X38475295Y-38166666D02*
X38618152Y-38166666D01*
X38618152Y-38166666D02*
X38713390Y-38214285D01*
X38713390Y-38214285D02*
X38761009Y-38261904D01*
X38761009Y-38261904D02*
X38808628Y-38357142D01*
X38808628Y-38357142D02*
X38808628Y-38738094D01*
X38284819Y-37261904D02*
X38284819Y-37738094D01*
X38284819Y-37738094D02*
X38761009Y-37785713D01*
X38761009Y-37785713D02*
X38713390Y-37738094D01*
X38713390Y-37738094D02*
X38665771Y-37642856D01*
X38665771Y-37642856D02*
X38665771Y-37404761D01*
X38665771Y-37404761D02*
X38713390Y-37309523D01*
X38713390Y-37309523D02*
X38761009Y-37261904D01*
X38761009Y-37261904D02*
X38856247Y-37214285D01*
X38856247Y-37214285D02*
X39094342Y-37214285D01*
X39094342Y-37214285D02*
X39189580Y-37261904D01*
X39189580Y-37261904D02*
X39237200Y-37309523D01*
X39237200Y-37309523D02*
X39284819Y-37404761D01*
X39284819Y-37404761D02*
X39284819Y-37642856D01*
X39284819Y-37642856D02*
X39237200Y-37738094D01*
X39237200Y-37738094D02*
X39189580Y-37785713D01*
X72124819Y-53142857D02*
X71648628Y-53476190D01*
X72124819Y-53714285D02*
X71124819Y-53714285D01*
X71124819Y-53714285D02*
X71124819Y-53333333D01*
X71124819Y-53333333D02*
X71172438Y-53238095D01*
X71172438Y-53238095D02*
X71220057Y-53190476D01*
X71220057Y-53190476D02*
X71315295Y-53142857D01*
X71315295Y-53142857D02*
X71458152Y-53142857D01*
X71458152Y-53142857D02*
X71553390Y-53190476D01*
X71553390Y-53190476D02*
X71601009Y-53238095D01*
X71601009Y-53238095D02*
X71648628Y-53333333D01*
X71648628Y-53333333D02*
X71648628Y-53714285D01*
X72124819Y-52190476D02*
X72124819Y-52761904D01*
X72124819Y-52476190D02*
X71124819Y-52476190D01*
X71124819Y-52476190D02*
X71267676Y-52571428D01*
X71267676Y-52571428D02*
X71362914Y-52666666D01*
X71362914Y-52666666D02*
X71410533Y-52761904D01*
X71124819Y-51571428D02*
X71124819Y-51476190D01*
X71124819Y-51476190D02*
X71172438Y-51380952D01*
X71172438Y-51380952D02*
X71220057Y-51333333D01*
X71220057Y-51333333D02*
X71315295Y-51285714D01*
X71315295Y-51285714D02*
X71505771Y-51238095D01*
X71505771Y-51238095D02*
X71743866Y-51238095D01*
X71743866Y-51238095D02*
X71934342Y-51285714D01*
X71934342Y-51285714D02*
X72029580Y-51333333D01*
X72029580Y-51333333D02*
X72077200Y-51380952D01*
X72077200Y-51380952D02*
X72124819Y-51476190D01*
X72124819Y-51476190D02*
X72124819Y-51571428D01*
X72124819Y-51571428D02*
X72077200Y-51666666D01*
X72077200Y-51666666D02*
X72029580Y-51714285D01*
X72029580Y-51714285D02*
X71934342Y-51761904D01*
X71934342Y-51761904D02*
X71743866Y-51809523D01*
X71743866Y-51809523D02*
X71505771Y-51809523D01*
X71505771Y-51809523D02*
X71315295Y-51761904D01*
X71315295Y-51761904D02*
X71220057Y-51714285D01*
X71220057Y-51714285D02*
X71172438Y-51666666D01*
X71172438Y-51666666D02*
X71124819Y-51571428D01*
X64954819Y-57166666D02*
X64478628Y-57499999D01*
X64954819Y-57738094D02*
X63954819Y-57738094D01*
X63954819Y-57738094D02*
X63954819Y-57357142D01*
X63954819Y-57357142D02*
X64002438Y-57261904D01*
X64002438Y-57261904D02*
X64050057Y-57214285D01*
X64050057Y-57214285D02*
X64145295Y-57166666D01*
X64145295Y-57166666D02*
X64288152Y-57166666D01*
X64288152Y-57166666D02*
X64383390Y-57214285D01*
X64383390Y-57214285D02*
X64431009Y-57261904D01*
X64431009Y-57261904D02*
X64478628Y-57357142D01*
X64478628Y-57357142D02*
X64478628Y-57738094D01*
X63954819Y-56833332D02*
X63954819Y-56214285D01*
X63954819Y-56214285D02*
X64335771Y-56547618D01*
X64335771Y-56547618D02*
X64335771Y-56404761D01*
X64335771Y-56404761D02*
X64383390Y-56309523D01*
X64383390Y-56309523D02*
X64431009Y-56261904D01*
X64431009Y-56261904D02*
X64526247Y-56214285D01*
X64526247Y-56214285D02*
X64764342Y-56214285D01*
X64764342Y-56214285D02*
X64859580Y-56261904D01*
X64859580Y-56261904D02*
X64907200Y-56309523D01*
X64907200Y-56309523D02*
X64954819Y-56404761D01*
X64954819Y-56404761D02*
X64954819Y-56690475D01*
X64954819Y-56690475D02*
X64907200Y-56785713D01*
X64907200Y-56785713D02*
X64859580Y-56833332D01*
X75333333Y-38704819D02*
X75000000Y-38228628D01*
X74761905Y-38704819D02*
X74761905Y-37704819D01*
X74761905Y-37704819D02*
X75142857Y-37704819D01*
X75142857Y-37704819D02*
X75238095Y-37752438D01*
X75238095Y-37752438D02*
X75285714Y-37800057D01*
X75285714Y-37800057D02*
X75333333Y-37895295D01*
X75333333Y-37895295D02*
X75333333Y-38038152D01*
X75333333Y-38038152D02*
X75285714Y-38133390D01*
X75285714Y-38133390D02*
X75238095Y-38181009D01*
X75238095Y-38181009D02*
X75142857Y-38228628D01*
X75142857Y-38228628D02*
X74761905Y-38228628D01*
X75714286Y-37800057D02*
X75761905Y-37752438D01*
X75761905Y-37752438D02*
X75857143Y-37704819D01*
X75857143Y-37704819D02*
X76095238Y-37704819D01*
X76095238Y-37704819D02*
X76190476Y-37752438D01*
X76190476Y-37752438D02*
X76238095Y-37800057D01*
X76238095Y-37800057D02*
X76285714Y-37895295D01*
X76285714Y-37895295D02*
X76285714Y-37990533D01*
X76285714Y-37990533D02*
X76238095Y-38133390D01*
X76238095Y-38133390D02*
X75666667Y-38704819D01*
X75666667Y-38704819D02*
X76285714Y-38704819D01*
X28916667Y-38157200D02*
X29059524Y-38204819D01*
X29059524Y-38204819D02*
X29297619Y-38204819D01*
X29297619Y-38204819D02*
X29392857Y-38157200D01*
X29392857Y-38157200D02*
X29440476Y-38109580D01*
X29440476Y-38109580D02*
X29488095Y-38014342D01*
X29488095Y-38014342D02*
X29488095Y-37919104D01*
X29488095Y-37919104D02*
X29440476Y-37823866D01*
X29440476Y-37823866D02*
X29392857Y-37776247D01*
X29392857Y-37776247D02*
X29297619Y-37728628D01*
X29297619Y-37728628D02*
X29107143Y-37681009D01*
X29107143Y-37681009D02*
X29011905Y-37633390D01*
X29011905Y-37633390D02*
X28964286Y-37585771D01*
X28964286Y-37585771D02*
X28916667Y-37490533D01*
X28916667Y-37490533D02*
X28916667Y-37395295D01*
X28916667Y-37395295D02*
X28964286Y-37300057D01*
X28964286Y-37300057D02*
X29011905Y-37252438D01*
X29011905Y-37252438D02*
X29107143Y-37204819D01*
X29107143Y-37204819D02*
X29345238Y-37204819D01*
X29345238Y-37204819D02*
X29488095Y-37252438D01*
X29821429Y-37204819D02*
X30059524Y-38204819D01*
X30059524Y-38204819D02*
X30250000Y-37490533D01*
X30250000Y-37490533D02*
X30440476Y-38204819D01*
X30440476Y-38204819D02*
X30678572Y-37204819D01*
X31011905Y-37300057D02*
X31059524Y-37252438D01*
X31059524Y-37252438D02*
X31154762Y-37204819D01*
X31154762Y-37204819D02*
X31392857Y-37204819D01*
X31392857Y-37204819D02*
X31488095Y-37252438D01*
X31488095Y-37252438D02*
X31535714Y-37300057D01*
X31535714Y-37300057D02*
X31583333Y-37395295D01*
X31583333Y-37395295D02*
X31583333Y-37490533D01*
X31583333Y-37490533D02*
X31535714Y-37633390D01*
X31535714Y-37633390D02*
X30964286Y-38204819D01*
X30964286Y-38204819D02*
X31583333Y-38204819D01*
X70023809Y-50228628D02*
X70023809Y-50704819D01*
X69690476Y-49704819D02*
X70023809Y-50228628D01*
X70023809Y-50228628D02*
X70357142Y-49704819D01*
X71214285Y-50704819D02*
X70642857Y-50704819D01*
X70928571Y-50704819D02*
X70928571Y-49704819D01*
X70928571Y-49704819D02*
X70833333Y-49847676D01*
X70833333Y-49847676D02*
X70738095Y-49942914D01*
X70738095Y-49942914D02*
X70642857Y-49990533D01*
X37704819Y-60166666D02*
X37228628Y-60499999D01*
X37704819Y-60738094D02*
X36704819Y-60738094D01*
X36704819Y-60738094D02*
X36704819Y-60357142D01*
X36704819Y-60357142D02*
X36752438Y-60261904D01*
X36752438Y-60261904D02*
X36800057Y-60214285D01*
X36800057Y-60214285D02*
X36895295Y-60166666D01*
X36895295Y-60166666D02*
X37038152Y-60166666D01*
X37038152Y-60166666D02*
X37133390Y-60214285D01*
X37133390Y-60214285D02*
X37181009Y-60261904D01*
X37181009Y-60261904D02*
X37228628Y-60357142D01*
X37228628Y-60357142D02*
X37228628Y-60738094D01*
X36704819Y-59309523D02*
X36704819Y-59499999D01*
X36704819Y-59499999D02*
X36752438Y-59595237D01*
X36752438Y-59595237D02*
X36800057Y-59642856D01*
X36800057Y-59642856D02*
X36942914Y-59738094D01*
X36942914Y-59738094D02*
X37133390Y-59785713D01*
X37133390Y-59785713D02*
X37514342Y-59785713D01*
X37514342Y-59785713D02*
X37609580Y-59738094D01*
X37609580Y-59738094D02*
X37657200Y-59690475D01*
X37657200Y-59690475D02*
X37704819Y-59595237D01*
X37704819Y-59595237D02*
X37704819Y-59404761D01*
X37704819Y-59404761D02*
X37657200Y-59309523D01*
X37657200Y-59309523D02*
X37609580Y-59261904D01*
X37609580Y-59261904D02*
X37514342Y-59214285D01*
X37514342Y-59214285D02*
X37276247Y-59214285D01*
X37276247Y-59214285D02*
X37181009Y-59261904D01*
X37181009Y-59261904D02*
X37133390Y-59309523D01*
X37133390Y-59309523D02*
X37085771Y-59404761D01*
X37085771Y-59404761D02*
X37085771Y-59595237D01*
X37085771Y-59595237D02*
X37133390Y-59690475D01*
X37133390Y-59690475D02*
X37181009Y-59738094D01*
X37181009Y-59738094D02*
X37276247Y-59785713D01*
X70954819Y-43642857D02*
X70478628Y-43976190D01*
X70954819Y-44214285D02*
X69954819Y-44214285D01*
X69954819Y-44214285D02*
X69954819Y-43833333D01*
X69954819Y-43833333D02*
X70002438Y-43738095D01*
X70002438Y-43738095D02*
X70050057Y-43690476D01*
X70050057Y-43690476D02*
X70145295Y-43642857D01*
X70145295Y-43642857D02*
X70288152Y-43642857D01*
X70288152Y-43642857D02*
X70383390Y-43690476D01*
X70383390Y-43690476D02*
X70431009Y-43738095D01*
X70431009Y-43738095D02*
X70478628Y-43833333D01*
X70478628Y-43833333D02*
X70478628Y-44214285D01*
X70954819Y-42690476D02*
X70954819Y-43261904D01*
X70954819Y-42976190D02*
X69954819Y-42976190D01*
X69954819Y-42976190D02*
X70097676Y-43071428D01*
X70097676Y-43071428D02*
X70192914Y-43166666D01*
X70192914Y-43166666D02*
X70240533Y-43261904D01*
X70954819Y-41738095D02*
X70954819Y-42309523D01*
X70954819Y-42023809D02*
X69954819Y-42023809D01*
X69954819Y-42023809D02*
X70097676Y-42119047D01*
X70097676Y-42119047D02*
X70192914Y-42214285D01*
X70192914Y-42214285D02*
X70240533Y-42309523D01*
D11*
X77683609Y-47785714D02*
X77731228Y-47642857D01*
X77731228Y-47642857D02*
X77778847Y-47595238D01*
X77778847Y-47595238D02*
X77874085Y-47547619D01*
X77874085Y-47547619D02*
X78016942Y-47547619D01*
X78016942Y-47547619D02*
X78112180Y-47595238D01*
X78112180Y-47595238D02*
X78159800Y-47642857D01*
X78159800Y-47642857D02*
X78207419Y-47738095D01*
X78207419Y-47738095D02*
X78207419Y-48119047D01*
X78207419Y-48119047D02*
X77207419Y-48119047D01*
X77207419Y-48119047D02*
X77207419Y-47785714D01*
X77207419Y-47785714D02*
X77255038Y-47690476D01*
X77255038Y-47690476D02*
X77302657Y-47642857D01*
X77302657Y-47642857D02*
X77397895Y-47595238D01*
X77397895Y-47595238D02*
X77493133Y-47595238D01*
X77493133Y-47595238D02*
X77588371Y-47642857D01*
X77588371Y-47642857D02*
X77635990Y-47690476D01*
X77635990Y-47690476D02*
X77683609Y-47785714D01*
X77683609Y-47785714D02*
X77683609Y-48119047D01*
X77207419Y-47261904D02*
X77207419Y-46690476D01*
X78207419Y-46976190D02*
X77207419Y-46976190D01*
X78207419Y-45833333D02*
X78207419Y-46404761D01*
X78207419Y-46119047D02*
X77207419Y-46119047D01*
X77207419Y-46119047D02*
X77350276Y-46214285D01*
X77350276Y-46214285D02*
X77445514Y-46309523D01*
X77445514Y-46309523D02*
X77493133Y-46404761D01*
D10*
X73333333Y-49609580D02*
X73285714Y-49657200D01*
X73285714Y-49657200D02*
X73142857Y-49704819D01*
X73142857Y-49704819D02*
X73047619Y-49704819D01*
X73047619Y-49704819D02*
X72904762Y-49657200D01*
X72904762Y-49657200D02*
X72809524Y-49561961D01*
X72809524Y-49561961D02*
X72761905Y-49466723D01*
X72761905Y-49466723D02*
X72714286Y-49276247D01*
X72714286Y-49276247D02*
X72714286Y-49133390D01*
X72714286Y-49133390D02*
X72761905Y-48942914D01*
X72761905Y-48942914D02*
X72809524Y-48847676D01*
X72809524Y-48847676D02*
X72904762Y-48752438D01*
X72904762Y-48752438D02*
X73047619Y-48704819D01*
X73047619Y-48704819D02*
X73142857Y-48704819D01*
X73142857Y-48704819D02*
X73285714Y-48752438D01*
X73285714Y-48752438D02*
X73333333Y-48800057D01*
X74190476Y-49038152D02*
X74190476Y-49704819D01*
X73952381Y-48657200D02*
X73714286Y-49371485D01*
X73714286Y-49371485D02*
X74333333Y-49371485D01*
X67609580Y-59916666D02*
X67657200Y-59964285D01*
X67657200Y-59964285D02*
X67704819Y-60107142D01*
X67704819Y-60107142D02*
X67704819Y-60202380D01*
X67704819Y-60202380D02*
X67657200Y-60345237D01*
X67657200Y-60345237D02*
X67561961Y-60440475D01*
X67561961Y-60440475D02*
X67466723Y-60488094D01*
X67466723Y-60488094D02*
X67276247Y-60535713D01*
X67276247Y-60535713D02*
X67133390Y-60535713D01*
X67133390Y-60535713D02*
X66942914Y-60488094D01*
X66942914Y-60488094D02*
X66847676Y-60440475D01*
X66847676Y-60440475D02*
X66752438Y-60345237D01*
X66752438Y-60345237D02*
X66704819Y-60202380D01*
X66704819Y-60202380D02*
X66704819Y-60107142D01*
X66704819Y-60107142D02*
X66752438Y-59964285D01*
X66752438Y-59964285D02*
X66800057Y-59916666D01*
X67704819Y-58964285D02*
X67704819Y-59535713D01*
X67704819Y-59249999D02*
X66704819Y-59249999D01*
X66704819Y-59249999D02*
X66847676Y-59345237D01*
X66847676Y-59345237D02*
X66942914Y-59440475D01*
X66942914Y-59440475D02*
X66990533Y-59535713D01*
X72799819Y-60333333D02*
X73514104Y-60333333D01*
X73514104Y-60333333D02*
X73656961Y-60380952D01*
X73656961Y-60380952D02*
X73752200Y-60476190D01*
X73752200Y-60476190D02*
X73799819Y-60619047D01*
X73799819Y-60619047D02*
X73799819Y-60714285D01*
X72895057Y-59904761D02*
X72847438Y-59857142D01*
X72847438Y-59857142D02*
X72799819Y-59761904D01*
X72799819Y-59761904D02*
X72799819Y-59523809D01*
X72799819Y-59523809D02*
X72847438Y-59428571D01*
X72847438Y-59428571D02*
X72895057Y-59380952D01*
X72895057Y-59380952D02*
X72990295Y-59333333D01*
X72990295Y-59333333D02*
X73085533Y-59333333D01*
X73085533Y-59333333D02*
X73228390Y-59380952D01*
X73228390Y-59380952D02*
X73799819Y-59952380D01*
X73799819Y-59952380D02*
X73799819Y-59333333D01*
X63857142Y-60454819D02*
X63523809Y-59978628D01*
X63285714Y-60454819D02*
X63285714Y-59454819D01*
X63285714Y-59454819D02*
X63666666Y-59454819D01*
X63666666Y-59454819D02*
X63761904Y-59502438D01*
X63761904Y-59502438D02*
X63809523Y-59550057D01*
X63809523Y-59550057D02*
X63857142Y-59645295D01*
X63857142Y-59645295D02*
X63857142Y-59788152D01*
X63857142Y-59788152D02*
X63809523Y-59883390D01*
X63809523Y-59883390D02*
X63761904Y-59931009D01*
X63761904Y-59931009D02*
X63666666Y-59978628D01*
X63666666Y-59978628D02*
X63285714Y-59978628D01*
X64809523Y-60454819D02*
X64238095Y-60454819D01*
X64523809Y-60454819D02*
X64523809Y-59454819D01*
X64523809Y-59454819D02*
X64428571Y-59597676D01*
X64428571Y-59597676D02*
X64333333Y-59692914D01*
X64333333Y-59692914D02*
X64238095Y-59740533D01*
X65190476Y-59550057D02*
X65238095Y-59502438D01*
X65238095Y-59502438D02*
X65333333Y-59454819D01*
X65333333Y-59454819D02*
X65571428Y-59454819D01*
X65571428Y-59454819D02*
X65666666Y-59502438D01*
X65666666Y-59502438D02*
X65714285Y-59550057D01*
X65714285Y-59550057D02*
X65761904Y-59645295D01*
X65761904Y-59645295D02*
X65761904Y-59740533D01*
X65761904Y-59740533D02*
X65714285Y-59883390D01*
X65714285Y-59883390D02*
X65142857Y-60454819D01*
X65142857Y-60454819D02*
X65761904Y-60454819D01*
X81991667Y-37907200D02*
X82134524Y-37954819D01*
X82134524Y-37954819D02*
X82372619Y-37954819D01*
X82372619Y-37954819D02*
X82467857Y-37907200D01*
X82467857Y-37907200D02*
X82515476Y-37859580D01*
X82515476Y-37859580D02*
X82563095Y-37764342D01*
X82563095Y-37764342D02*
X82563095Y-37669104D01*
X82563095Y-37669104D02*
X82515476Y-37573866D01*
X82515476Y-37573866D02*
X82467857Y-37526247D01*
X82467857Y-37526247D02*
X82372619Y-37478628D01*
X82372619Y-37478628D02*
X82182143Y-37431009D01*
X82182143Y-37431009D02*
X82086905Y-37383390D01*
X82086905Y-37383390D02*
X82039286Y-37335771D01*
X82039286Y-37335771D02*
X81991667Y-37240533D01*
X81991667Y-37240533D02*
X81991667Y-37145295D01*
X81991667Y-37145295D02*
X82039286Y-37050057D01*
X82039286Y-37050057D02*
X82086905Y-37002438D01*
X82086905Y-37002438D02*
X82182143Y-36954819D01*
X82182143Y-36954819D02*
X82420238Y-36954819D01*
X82420238Y-36954819D02*
X82563095Y-37002438D01*
X82896429Y-36954819D02*
X83134524Y-37954819D01*
X83134524Y-37954819D02*
X83325000Y-37240533D01*
X83325000Y-37240533D02*
X83515476Y-37954819D01*
X83515476Y-37954819D02*
X83753572Y-36954819D01*
X84658333Y-37954819D02*
X84086905Y-37954819D01*
X84372619Y-37954819D02*
X84372619Y-36954819D01*
X84372619Y-36954819D02*
X84277381Y-37097676D01*
X84277381Y-37097676D02*
X84182143Y-37192914D01*
X84182143Y-37192914D02*
X84086905Y-37240533D01*
X33232200Y-57833333D02*
X33279819Y-57690476D01*
X33279819Y-57690476D02*
X33279819Y-57452381D01*
X33279819Y-57452381D02*
X33232200Y-57357143D01*
X33232200Y-57357143D02*
X33184580Y-57309524D01*
X33184580Y-57309524D02*
X33089342Y-57261905D01*
X33089342Y-57261905D02*
X32994104Y-57261905D01*
X32994104Y-57261905D02*
X32898866Y-57309524D01*
X32898866Y-57309524D02*
X32851247Y-57357143D01*
X32851247Y-57357143D02*
X32803628Y-57452381D01*
X32803628Y-57452381D02*
X32756009Y-57642857D01*
X32756009Y-57642857D02*
X32708390Y-57738095D01*
X32708390Y-57738095D02*
X32660771Y-57785714D01*
X32660771Y-57785714D02*
X32565533Y-57833333D01*
X32565533Y-57833333D02*
X32470295Y-57833333D01*
X32470295Y-57833333D02*
X32375057Y-57785714D01*
X32375057Y-57785714D02*
X32327438Y-57738095D01*
X32327438Y-57738095D02*
X32279819Y-57642857D01*
X32279819Y-57642857D02*
X32279819Y-57404762D01*
X32279819Y-57404762D02*
X32327438Y-57261905D01*
X32279819Y-56928571D02*
X33279819Y-56690476D01*
X33279819Y-56690476D02*
X32565533Y-56500000D01*
X32565533Y-56500000D02*
X33279819Y-56309524D01*
X33279819Y-56309524D02*
X32279819Y-56071429D01*
X32279819Y-55785714D02*
X32279819Y-55166667D01*
X32279819Y-55166667D02*
X32660771Y-55500000D01*
X32660771Y-55500000D02*
X32660771Y-55357143D01*
X32660771Y-55357143D02*
X32708390Y-55261905D01*
X32708390Y-55261905D02*
X32756009Y-55214286D01*
X32756009Y-55214286D02*
X32851247Y-55166667D01*
X32851247Y-55166667D02*
X33089342Y-55166667D01*
X33089342Y-55166667D02*
X33184580Y-55214286D01*
X33184580Y-55214286D02*
X33232200Y-55261905D01*
X33232200Y-55261905D02*
X33279819Y-55357143D01*
X33279819Y-55357143D02*
X33279819Y-55642857D01*
X33279819Y-55642857D02*
X33232200Y-55738095D01*
X33232200Y-55738095D02*
X33184580Y-55785714D01*
D13*
X69340000Y-56961252D02*
X69340000Y-55538748D01*
X71160000Y-56961252D02*
X71160000Y-55538748D01*
X53620000Y-53080000D02*
X55000000Y-53080000D01*
X53620000Y-54460000D02*
X53620000Y-53080000D01*
X53620000Y-55730000D02*
X53620000Y-60920000D01*
X53620000Y-55730000D02*
X56380000Y-55730000D01*
X53620000Y-60920000D02*
X56380000Y-60920000D01*
X56380000Y-55730000D02*
X56380000Y-60920000D01*
X49727064Y-46590000D02*
X48272936Y-46590000D01*
X49727064Y-48410000D02*
X48272936Y-48410000D01*
X36590000Y-49727064D02*
X36590000Y-48272936D01*
X38410000Y-49727064D02*
X38410000Y-48272936D01*
X42272936Y-46590000D02*
X43727064Y-46590000D01*
X42272936Y-48410000D02*
X43727064Y-48410000D01*
X72590000Y-39788748D02*
X72590000Y-41211252D01*
X74410000Y-39788748D02*
X74410000Y-41211252D01*
X38729216Y-57499999D02*
G75*
G02*
X38729216Y-54500000I6400000J1499999D01*
G01*
X51359216Y-56000000D02*
G75*
G02*
X38899216Y-56000000I-6230000J0D01*
G01*
X38899216Y-56000000D02*
G75*
G02*
X51359216Y-56000000I6230000J0D01*
G01*
D14*
X53923907Y-42000000D02*
X60500000Y-35423907D01*
X60500000Y-35423907D02*
X67076093Y-42000000D01*
X60500000Y-48576093D02*
X53923907Y-42000000D01*
X67076093Y-42000000D02*
X60500000Y-48576093D01*
D15*
X61986181Y-49725142D02*
G75*
G02*
X61736181Y-49725142I-125000J0D01*
G01*
X61736181Y-49725142D02*
G75*
G02*
X61986181Y-49725142I125000J0D01*
G01*
D13*
X46062500Y-41940000D02*
X45412500Y-41940000D01*
X46062500Y-41940000D02*
X46712500Y-41940000D01*
X46062500Y-45060000D02*
X45412500Y-45060000D01*
X46062500Y-45060000D02*
X46712500Y-45060000D01*
X47465000Y-45340000D02*
X46985000Y-45340000D01*
X47225000Y-45010000D01*
X47465000Y-45340000D01*
G36*
X47465000Y-45340000D02*
G01*
X46985000Y-45340000D01*
X47225000Y-45010000D01*
X47465000Y-45340000D01*
G37*
X60727064Y-53050000D02*
X59272936Y-53050000D01*
X60727064Y-54870000D02*
X59272936Y-54870000D01*
X36090000Y-37272936D02*
X36090000Y-38727064D01*
X37910000Y-37272936D02*
X37910000Y-38727064D01*
X72590000Y-53227064D02*
X72590000Y-51772936D01*
X74410000Y-53227064D02*
X74410000Y-51772936D01*
X63590000Y-54227064D02*
X63590000Y-52772936D01*
X65410000Y-54227064D02*
X65410000Y-52772936D01*
X74227064Y-35090000D02*
X72772936Y-35090000D01*
X74227064Y-36910000D02*
X72772936Y-36910000D01*
X27955000Y-33730001D02*
X27955000Y-41270001D01*
X27955000Y-41270001D02*
X31405000Y-41270001D01*
X31405000Y-33730001D02*
X27955000Y-33730001D01*
X31895000Y-39890001D02*
X31895000Y-35110001D01*
X34245000Y-33730001D02*
X34445000Y-33730001D01*
X34245000Y-41270001D02*
X34445000Y-41270001D01*
X34445000Y-33730001D02*
X34445000Y-34520001D01*
X34445000Y-34520001D02*
X34195000Y-34520001D01*
X34445000Y-40480001D02*
X34195000Y-40480001D01*
X34445000Y-40480001D02*
X34445000Y-41270001D01*
X67931000Y-51401000D02*
G75*
G02*
X69569000Y-51401000I819000J-748532D01*
G01*
X69569000Y-52899000D02*
G75*
G02*
X67931000Y-52899000I-819000J748532D01*
G01*
X36090000Y-55772936D02*
X36090000Y-57227064D01*
X37910000Y-55772936D02*
X37910000Y-57227064D01*
X69590000Y-46272936D02*
X69590000Y-47727064D01*
X71410000Y-46272936D02*
X71410000Y-47727064D01*
D11*
X75250000Y-57500000D02*
X82750000Y-57500000D01*
X82750000Y-43500000D01*
X75250000Y-43500000D01*
X75250000Y-57500000D01*
D13*
X72590000Y-46711252D02*
X72590000Y-45288748D01*
X74410000Y-46711252D02*
X74410000Y-45288748D01*
X66340000Y-56961252D02*
X66340000Y-55538748D01*
X68160000Y-56961252D02*
X68160000Y-55538748D01*
X60727064Y-56050000D02*
X59272936Y-56050000D01*
X60727064Y-57870000D02*
X59272936Y-57870000D01*
X74345000Y-61380000D02*
X74345000Y-60000000D01*
X75725000Y-61380000D02*
X74345000Y-61380000D01*
X76995000Y-58620000D02*
X79645000Y-58620000D01*
X76995000Y-61380000D02*
X76995000Y-58620000D01*
X76995000Y-61380000D02*
X79645000Y-61380000D01*
X79645000Y-61380000D02*
X79645000Y-58620000D01*
X60727064Y-59050000D02*
X59272936Y-59050000D01*
X60727064Y-60870000D02*
X59272936Y-60870000D01*
X78880000Y-34519999D02*
X78880000Y-33729999D01*
X78880000Y-34519999D02*
X79130000Y-34519999D01*
X78880000Y-40479999D02*
X79130000Y-40479999D01*
X78880000Y-41269999D02*
X78880000Y-40479999D01*
X79080000Y-33729999D02*
X78880000Y-33729999D01*
X79080000Y-41269999D02*
X78880000Y-41269999D01*
X81430000Y-35109999D02*
X81430000Y-39889999D01*
X81920000Y-41269999D02*
X85370000Y-41269999D01*
X85370000Y-33729999D02*
X81920000Y-33729999D01*
X85370000Y-41269999D02*
X85370000Y-33729999D01*
X27955000Y-52730001D02*
X27955000Y-60270001D01*
X27955000Y-60270001D02*
X31405000Y-60270001D01*
X31405000Y-52730001D02*
X27955000Y-52730001D01*
X31895000Y-58890001D02*
X31895000Y-54110001D01*
X34245000Y-52730001D02*
X34445000Y-52730001D01*
X34245000Y-60270001D02*
X34445000Y-60270001D01*
X34445000Y-52730001D02*
X34445000Y-53520001D01*
X34445000Y-53520001D02*
X34195000Y-53520001D01*
X34445000Y-59480001D02*
X34195000Y-59480001D01*
X34445000Y-59480001D02*
X34445000Y-60270001D01*
%LPC*%
G36*
X81567042Y-62512393D02*
G01*
X81579370Y-62520630D01*
X81587607Y-62532958D01*
X81590500Y-62547500D01*
X81590500Y-64452500D01*
X81587607Y-64467042D01*
X81579370Y-64479370D01*
X81567042Y-64487607D01*
X81552500Y-64490500D01*
X79647500Y-64490500D01*
X79632958Y-64487607D01*
X79620630Y-64479370D01*
X79612393Y-64467042D01*
X79609500Y-64452500D01*
X79609500Y-62547500D01*
X79612393Y-62532958D01*
X79620630Y-62520630D01*
X79632958Y-62512393D01*
X79647500Y-62509500D01*
X81552500Y-62509500D01*
X81567042Y-62512393D01*
G37*
G36*
X32627527Y-62552151D02*
G01*
X32806918Y-62626457D01*
X32968367Y-62734333D01*
X33105667Y-62871633D01*
X33213543Y-63033082D01*
X33287849Y-63212473D01*
X33325730Y-63402914D01*
X33325730Y-63597086D01*
X33287849Y-63787527D01*
X33213543Y-63966918D01*
X33105667Y-64128367D01*
X32968367Y-64265667D01*
X32806918Y-64373543D01*
X32627527Y-64447849D01*
X32437086Y-64485730D01*
X32242914Y-64485730D01*
X32052473Y-64447849D01*
X31873082Y-64373543D01*
X31711633Y-64265667D01*
X31574333Y-64128367D01*
X31466457Y-63966918D01*
X31392151Y-63787527D01*
X31354270Y-63597086D01*
X31354270Y-63402914D01*
X31392151Y-63212473D01*
X31466457Y-63033082D01*
X31574333Y-62871633D01*
X31711633Y-62734333D01*
X31873082Y-62626457D01*
X32052473Y-62552151D01*
X32242914Y-62514270D01*
X32437086Y-62514270D01*
X32627527Y-62552151D01*
G37*
G36*
X35167527Y-62552151D02*
G01*
X35346918Y-62626457D01*
X35508367Y-62734333D01*
X35645667Y-62871633D01*
X35753543Y-63033082D01*
X35827849Y-63212473D01*
X35865730Y-63402914D01*
X35865730Y-63597086D01*
X35827849Y-63787527D01*
X35753543Y-63966918D01*
X35645667Y-64128367D01*
X35508367Y-64265667D01*
X35346918Y-64373543D01*
X35167527Y-64447849D01*
X34977086Y-64485730D01*
X34782914Y-64485730D01*
X34592473Y-64447849D01*
X34413082Y-64373543D01*
X34251633Y-64265667D01*
X34114333Y-64128367D01*
X34006457Y-63966918D01*
X33932151Y-63787527D01*
X33894270Y-63597086D01*
X33894270Y-63402914D01*
X33932151Y-63212473D01*
X34006457Y-63033082D01*
X34114333Y-62871633D01*
X34251633Y-62734333D01*
X34413082Y-62626457D01*
X34592473Y-62552151D01*
X34782914Y-62514270D01*
X34977086Y-62514270D01*
X35167527Y-62552151D01*
G37*
G36*
X37707527Y-62552151D02*
G01*
X37886918Y-62626457D01*
X38048367Y-62734333D01*
X38185667Y-62871633D01*
X38293543Y-63033082D01*
X38367849Y-63212473D01*
X38405730Y-63402914D01*
X38405730Y-63597086D01*
X38367849Y-63787527D01*
X38293543Y-63966918D01*
X38185667Y-64128367D01*
X38048367Y-64265667D01*
X37886918Y-64373543D01*
X37707527Y-64447849D01*
X37517086Y-64485730D01*
X37322914Y-64485730D01*
X37132473Y-64447849D01*
X36953082Y-64373543D01*
X36791633Y-64265667D01*
X36654333Y-64128367D01*
X36546457Y-63966918D01*
X36472151Y-63787527D01*
X36434270Y-63597086D01*
X36434270Y-63402914D01*
X36472151Y-63212473D01*
X36546457Y-63033082D01*
X36654333Y-62871633D01*
X36791633Y-62734333D01*
X36953082Y-62626457D01*
X37132473Y-62552151D01*
X37322914Y-62514270D01*
X37517086Y-62514270D01*
X37707527Y-62552151D01*
G37*
G36*
X40247527Y-62552151D02*
G01*
X40426918Y-62626457D01*
X40588367Y-62734333D01*
X40725667Y-62871633D01*
X40833543Y-63033082D01*
X40907849Y-63212473D01*
X40945730Y-63402914D01*
X40945730Y-63597086D01*
X40907849Y-63787527D01*
X40833543Y-63966918D01*
X40725667Y-64128367D01*
X40588367Y-64265667D01*
X40426918Y-64373543D01*
X40247527Y-64447849D01*
X40057086Y-64485730D01*
X39862914Y-64485730D01*
X39672473Y-64447849D01*
X39493082Y-64373543D01*
X39331633Y-64265667D01*
X39194333Y-64128367D01*
X39086457Y-63966918D01*
X39012151Y-63787527D01*
X38974270Y-63597086D01*
X38974270Y-63402914D01*
X39012151Y-63212473D01*
X39086457Y-63033082D01*
X39194333Y-62871633D01*
X39331633Y-62734333D01*
X39493082Y-62626457D01*
X39672473Y-62552151D01*
X39862914Y-62514270D01*
X40057086Y-62514270D01*
X40247527Y-62552151D01*
G37*
G36*
X42787527Y-62552151D02*
G01*
X42966918Y-62626457D01*
X43128367Y-62734333D01*
X43265667Y-62871633D01*
X43373543Y-63033082D01*
X43447849Y-63212473D01*
X43485730Y-63402914D01*
X43485730Y-63597086D01*
X43447849Y-63787527D01*
X43373543Y-63966918D01*
X43265667Y-64128367D01*
X43128367Y-64265667D01*
X42966918Y-64373543D01*
X42787527Y-64447849D01*
X42597086Y-64485730D01*
X42402914Y-64485730D01*
X42212473Y-64447849D01*
X42033082Y-64373543D01*
X41871633Y-64265667D01*
X41734333Y-64128367D01*
X41626457Y-63966918D01*
X41552151Y-63787527D01*
X41514270Y-63597086D01*
X41514270Y-63402914D01*
X41552151Y-63212473D01*
X41626457Y-63033082D01*
X41734333Y-62871633D01*
X41871633Y-62734333D01*
X42033082Y-62626457D01*
X42212473Y-62552151D01*
X42402914Y-62514270D01*
X42597086Y-62514270D01*
X42787527Y-62552151D01*
G37*
G36*
X45327527Y-62552151D02*
G01*
X45506918Y-62626457D01*
X45668367Y-62734333D01*
X45805667Y-62871633D01*
X45913543Y-63033082D01*
X45987849Y-63212473D01*
X46025730Y-63402914D01*
X46025730Y-63597086D01*
X45987849Y-63787527D01*
X45913543Y-63966918D01*
X45805667Y-64128367D01*
X45668367Y-64265667D01*
X45506918Y-64373543D01*
X45327527Y-64447849D01*
X45137086Y-64485730D01*
X44942914Y-64485730D01*
X44752473Y-64447849D01*
X44573082Y-64373543D01*
X44411633Y-64265667D01*
X44274333Y-64128367D01*
X44166457Y-63966918D01*
X44092151Y-63787527D01*
X44054270Y-63597086D01*
X44054270Y-63402914D01*
X44092151Y-63212473D01*
X44166457Y-63033082D01*
X44274333Y-62871633D01*
X44411633Y-62734333D01*
X44573082Y-62626457D01*
X44752473Y-62552151D01*
X44942914Y-62514270D01*
X45137086Y-62514270D01*
X45327527Y-62552151D01*
G37*
G36*
X47867527Y-62552151D02*
G01*
X48046918Y-62626457D01*
X48208367Y-62734333D01*
X48345667Y-62871633D01*
X48453543Y-63033082D01*
X48527849Y-63212473D01*
X48565730Y-63402914D01*
X48565730Y-63597086D01*
X48527849Y-63787527D01*
X48453543Y-63966918D01*
X48345667Y-64128367D01*
X48208367Y-64265667D01*
X48046918Y-64373543D01*
X47867527Y-64447849D01*
X47677086Y-64485730D01*
X47482914Y-64485730D01*
X47292473Y-64447849D01*
X47113082Y-64373543D01*
X46951633Y-64265667D01*
X46814333Y-64128367D01*
X46706457Y-63966918D01*
X46632151Y-63787527D01*
X46594270Y-63597086D01*
X46594270Y-63402914D01*
X46632151Y-63212473D01*
X46706457Y-63033082D01*
X46814333Y-62871633D01*
X46951633Y-62734333D01*
X47113082Y-62626457D01*
X47292473Y-62552151D01*
X47482914Y-62514270D01*
X47677086Y-62514270D01*
X47867527Y-62552151D01*
G37*
G36*
X50407527Y-62552151D02*
G01*
X50586918Y-62626457D01*
X50748367Y-62734333D01*
X50885667Y-62871633D01*
X50993543Y-63033082D01*
X51067849Y-63212473D01*
X51105730Y-63402914D01*
X51105730Y-63597086D01*
X51067849Y-63787527D01*
X50993543Y-63966918D01*
X50885667Y-64128367D01*
X50748367Y-64265667D01*
X50586918Y-64373543D01*
X50407527Y-64447849D01*
X50217086Y-64485730D01*
X50022914Y-64485730D01*
X49832473Y-64447849D01*
X49653082Y-64373543D01*
X49491633Y-64265667D01*
X49354333Y-64128367D01*
X49246457Y-63966918D01*
X49172151Y-63787527D01*
X49134270Y-63597086D01*
X49134270Y-63402914D01*
X49172151Y-63212473D01*
X49246457Y-63033082D01*
X49354333Y-62871633D01*
X49491633Y-62734333D01*
X49653082Y-62626457D01*
X49832473Y-62552151D01*
X50022914Y-62514270D01*
X50217086Y-62514270D01*
X50407527Y-62552151D01*
G37*
G36*
X52947527Y-62552151D02*
G01*
X53126918Y-62626457D01*
X53288367Y-62734333D01*
X53425667Y-62871633D01*
X53533543Y-63033082D01*
X53607849Y-63212473D01*
X53645730Y-63402914D01*
X53645730Y-63597086D01*
X53607849Y-63787527D01*
X53533543Y-63966918D01*
X53425667Y-64128367D01*
X53288367Y-64265667D01*
X53126918Y-64373543D01*
X52947527Y-64447849D01*
X52757086Y-64485730D01*
X52562914Y-64485730D01*
X52372473Y-64447849D01*
X52193082Y-64373543D01*
X52031633Y-64265667D01*
X51894333Y-64128367D01*
X51786457Y-63966918D01*
X51712151Y-63787527D01*
X51674270Y-63597086D01*
X51674270Y-63402914D01*
X51712151Y-63212473D01*
X51786457Y-63033082D01*
X51894333Y-62871633D01*
X52031633Y-62734333D01*
X52193082Y-62626457D01*
X52372473Y-62552151D01*
X52562914Y-62514270D01*
X52757086Y-62514270D01*
X52947527Y-62552151D01*
G37*
G36*
X55487527Y-62552151D02*
G01*
X55666918Y-62626457D01*
X55828367Y-62734333D01*
X55965667Y-62871633D01*
X56073543Y-63033082D01*
X56147849Y-63212473D01*
X56185730Y-63402914D01*
X56185730Y-63597086D01*
X56147849Y-63787527D01*
X56073543Y-63966918D01*
X55965667Y-64128367D01*
X55828367Y-64265667D01*
X55666918Y-64373543D01*
X55487527Y-64447849D01*
X55297086Y-64485730D01*
X55102914Y-64485730D01*
X54912473Y-64447849D01*
X54733082Y-64373543D01*
X54571633Y-64265667D01*
X54434333Y-64128367D01*
X54326457Y-63966918D01*
X54252151Y-63787527D01*
X54214270Y-63597086D01*
X54214270Y-63402914D01*
X54252151Y-63212473D01*
X54326457Y-63033082D01*
X54434333Y-62871633D01*
X54571633Y-62734333D01*
X54733082Y-62626457D01*
X54912473Y-62552151D01*
X55102914Y-62514270D01*
X55297086Y-62514270D01*
X55487527Y-62552151D01*
G37*
G36*
X58027527Y-62552151D02*
G01*
X58206918Y-62626457D01*
X58368367Y-62734333D01*
X58505667Y-62871633D01*
X58613543Y-63033082D01*
X58687849Y-63212473D01*
X58725730Y-63402914D01*
X58725730Y-63597086D01*
X58687849Y-63787527D01*
X58613543Y-63966918D01*
X58505667Y-64128367D01*
X58368367Y-64265667D01*
X58206918Y-64373543D01*
X58027527Y-64447849D01*
X57837086Y-64485730D01*
X57642914Y-64485730D01*
X57452473Y-64447849D01*
X57273082Y-64373543D01*
X57111633Y-64265667D01*
X56974333Y-64128367D01*
X56866457Y-63966918D01*
X56792151Y-63787527D01*
X56754270Y-63597086D01*
X56754270Y-63402914D01*
X56792151Y-63212473D01*
X56866457Y-63033082D01*
X56974333Y-62871633D01*
X57111633Y-62734333D01*
X57273082Y-62626457D01*
X57452473Y-62552151D01*
X57642914Y-62514270D01*
X57837086Y-62514270D01*
X58027527Y-62552151D01*
G37*
G36*
X60567527Y-62552151D02*
G01*
X60746918Y-62626457D01*
X60908367Y-62734333D01*
X61045667Y-62871633D01*
X61153543Y-63033082D01*
X61227849Y-63212473D01*
X61265730Y-63402914D01*
X61265730Y-63597086D01*
X61227849Y-63787527D01*
X61153543Y-63966918D01*
X61045667Y-64128367D01*
X60908367Y-64265667D01*
X60746918Y-64373543D01*
X60567527Y-64447849D01*
X60377086Y-64485730D01*
X60182914Y-64485730D01*
X59992473Y-64447849D01*
X59813082Y-64373543D01*
X59651633Y-64265667D01*
X59514333Y-64128367D01*
X59406457Y-63966918D01*
X59332151Y-63787527D01*
X59294270Y-63597086D01*
X59294270Y-63402914D01*
X59332151Y-63212473D01*
X59406457Y-63033082D01*
X59514333Y-62871633D01*
X59651633Y-62734333D01*
X59813082Y-62626457D01*
X59992473Y-62552151D01*
X60182914Y-62514270D01*
X60377086Y-62514270D01*
X60567527Y-62552151D01*
G37*
G36*
X63107527Y-62552151D02*
G01*
X63286918Y-62626457D01*
X63448367Y-62734333D01*
X63585667Y-62871633D01*
X63693543Y-63033082D01*
X63767849Y-63212473D01*
X63805730Y-63402914D01*
X63805730Y-63597086D01*
X63767849Y-63787527D01*
X63693543Y-63966918D01*
X63585667Y-64128367D01*
X63448367Y-64265667D01*
X63286918Y-64373543D01*
X63107527Y-64447849D01*
X62917086Y-64485730D01*
X62722914Y-64485730D01*
X62532473Y-64447849D01*
X62353082Y-64373543D01*
X62191633Y-64265667D01*
X62054333Y-64128367D01*
X61946457Y-63966918D01*
X61872151Y-63787527D01*
X61834270Y-63597086D01*
X61834270Y-63402914D01*
X61872151Y-63212473D01*
X61946457Y-63033082D01*
X62054333Y-62871633D01*
X62191633Y-62734333D01*
X62353082Y-62626457D01*
X62532473Y-62552151D01*
X62722914Y-62514270D01*
X62917086Y-62514270D01*
X63107527Y-62552151D01*
G37*
G36*
X65647527Y-62552151D02*
G01*
X65826918Y-62626457D01*
X65988367Y-62734333D01*
X66125667Y-62871633D01*
X66233543Y-63033082D01*
X66307849Y-63212473D01*
X66345730Y-63402914D01*
X66345730Y-63597086D01*
X66307849Y-63787527D01*
X66233543Y-63966918D01*
X66125667Y-64128367D01*
X65988367Y-64265667D01*
X65826918Y-64373543D01*
X65647527Y-64447849D01*
X65457086Y-64485730D01*
X65262914Y-64485730D01*
X65072473Y-64447849D01*
X64893082Y-64373543D01*
X64731633Y-64265667D01*
X64594333Y-64128367D01*
X64486457Y-63966918D01*
X64412151Y-63787527D01*
X64374270Y-63597086D01*
X64374270Y-63402914D01*
X64412151Y-63212473D01*
X64486457Y-63033082D01*
X64594333Y-62871633D01*
X64731633Y-62734333D01*
X64893082Y-62626457D01*
X65072473Y-62552151D01*
X65262914Y-62514270D01*
X65457086Y-62514270D01*
X65647527Y-62552151D01*
G37*
G36*
X68187527Y-62552151D02*
G01*
X68366918Y-62626457D01*
X68528367Y-62734333D01*
X68665667Y-62871633D01*
X68773543Y-63033082D01*
X68847849Y-63212473D01*
X68885730Y-63402914D01*
X68885730Y-63597086D01*
X68847849Y-63787527D01*
X68773543Y-63966918D01*
X68665667Y-64128367D01*
X68528367Y-64265667D01*
X68366918Y-64373543D01*
X68187527Y-64447849D01*
X67997086Y-64485730D01*
X67802914Y-64485730D01*
X67612473Y-64447849D01*
X67433082Y-64373543D01*
X67271633Y-64265667D01*
X67134333Y-64128367D01*
X67026457Y-63966918D01*
X66952151Y-63787527D01*
X66914270Y-63597086D01*
X66914270Y-63402914D01*
X66952151Y-63212473D01*
X67026457Y-63033082D01*
X67134333Y-62871633D01*
X67271633Y-62734333D01*
X67433082Y-62626457D01*
X67612473Y-62552151D01*
X67802914Y-62514270D01*
X67997086Y-62514270D01*
X68187527Y-62552151D01*
G37*
G36*
X70727527Y-62552151D02*
G01*
X70906918Y-62626457D01*
X71068367Y-62734333D01*
X71205667Y-62871633D01*
X71313543Y-63033082D01*
X71387849Y-63212473D01*
X71425730Y-63402914D01*
X71425730Y-63597086D01*
X71387849Y-63787527D01*
X71313543Y-63966918D01*
X71205667Y-64128367D01*
X71068367Y-64265667D01*
X70906918Y-64373543D01*
X70727527Y-64447849D01*
X70537086Y-64485730D01*
X70342914Y-64485730D01*
X70152473Y-64447849D01*
X69973082Y-64373543D01*
X69811633Y-64265667D01*
X69674333Y-64128367D01*
X69566457Y-63966918D01*
X69492151Y-63787527D01*
X69454270Y-63597086D01*
X69454270Y-63402914D01*
X69492151Y-63212473D01*
X69566457Y-63033082D01*
X69674333Y-62871633D01*
X69811633Y-62734333D01*
X69973082Y-62626457D01*
X70152473Y-62552151D01*
X70342914Y-62514270D01*
X70537086Y-62514270D01*
X70727527Y-62552151D01*
G37*
G36*
X73267527Y-62552151D02*
G01*
X73446918Y-62626457D01*
X73608367Y-62734333D01*
X73745667Y-62871633D01*
X73853543Y-63033082D01*
X73927849Y-63212473D01*
X73965730Y-63402914D01*
X73965730Y-63597086D01*
X73927849Y-63787527D01*
X73853543Y-63966918D01*
X73745667Y-64128367D01*
X73608367Y-64265667D01*
X73446918Y-64373543D01*
X73267527Y-64447849D01*
X73077086Y-64485730D01*
X72882914Y-64485730D01*
X72692473Y-64447849D01*
X72513082Y-64373543D01*
X72351633Y-64265667D01*
X72214333Y-64128367D01*
X72106457Y-63966918D01*
X72032151Y-63787527D01*
X71994270Y-63597086D01*
X71994270Y-63402914D01*
X72032151Y-63212473D01*
X72106457Y-63033082D01*
X72214333Y-62871633D01*
X72351633Y-62734333D01*
X72513082Y-62626457D01*
X72692473Y-62552151D01*
X72882914Y-62514270D01*
X73077086Y-62514270D01*
X73267527Y-62552151D01*
G37*
G36*
X75807527Y-62552151D02*
G01*
X75986918Y-62626457D01*
X76148367Y-62734333D01*
X76285667Y-62871633D01*
X76393543Y-63033082D01*
X76467849Y-63212473D01*
X76505730Y-63402914D01*
X76505730Y-63597086D01*
X76467849Y-63787527D01*
X76393543Y-63966918D01*
X76285667Y-64128367D01*
X76148367Y-64265667D01*
X75986918Y-64373543D01*
X75807527Y-64447849D01*
X75617086Y-64485730D01*
X75422914Y-64485730D01*
X75232473Y-64447849D01*
X75053082Y-64373543D01*
X74891633Y-64265667D01*
X74754333Y-64128367D01*
X74646457Y-63966918D01*
X74572151Y-63787527D01*
X74534270Y-63597086D01*
X74534270Y-63402914D01*
X74572151Y-63212473D01*
X74646457Y-63033082D01*
X74754333Y-62871633D01*
X74891633Y-62734333D01*
X75053082Y-62626457D01*
X75232473Y-62552151D01*
X75422914Y-62514270D01*
X75617086Y-62514270D01*
X75807527Y-62552151D01*
G37*
G36*
X78347527Y-62552151D02*
G01*
X78526918Y-62626457D01*
X78688367Y-62734333D01*
X78825667Y-62871633D01*
X78933543Y-63033082D01*
X79007849Y-63212473D01*
X79045730Y-63402914D01*
X79045730Y-63597086D01*
X79007849Y-63787527D01*
X78933543Y-63966918D01*
X78825667Y-64128367D01*
X78688367Y-64265667D01*
X78526918Y-64373543D01*
X78347527Y-64447849D01*
X78157086Y-64485730D01*
X77962914Y-64485730D01*
X77772473Y-64447849D01*
X77593082Y-64373543D01*
X77431633Y-64265667D01*
X77294333Y-64128367D01*
X77186457Y-63966918D01*
X77112151Y-63787527D01*
X77074270Y-63597086D01*
X77074270Y-63402914D01*
X77112151Y-63212473D01*
X77186457Y-63033082D01*
X77294333Y-62871633D01*
X77431633Y-62734333D01*
X77593082Y-62626457D01*
X77772473Y-62552151D01*
X77962914Y-62514270D01*
X78157086Y-62514270D01*
X78347527Y-62552151D01*
G37*
G36*
X33114005Y-58796207D02*
G01*
X33298762Y-58856238D01*
X33471853Y-58944432D01*
X33629017Y-59058618D01*
X33766383Y-59195984D01*
X33880569Y-59353148D01*
X33968763Y-59526239D01*
X34028794Y-59710996D01*
X34059184Y-59902869D01*
X34059184Y-60097133D01*
X34028794Y-60289006D01*
X33968763Y-60473763D01*
X33880569Y-60646854D01*
X33766383Y-60804018D01*
X33629017Y-60941384D01*
X33471853Y-61055570D01*
X33298762Y-61143764D01*
X33114005Y-61203795D01*
X32922132Y-61234185D01*
X32727868Y-61234185D01*
X32535995Y-61203795D01*
X32351238Y-61143764D01*
X32178147Y-61055570D01*
X32020983Y-60941384D01*
X31883617Y-60804018D01*
X31769431Y-60646854D01*
X31681237Y-60473763D01*
X31621206Y-60289006D01*
X31590816Y-60097133D01*
X31590816Y-59902869D01*
X31621206Y-59710996D01*
X31681237Y-59526239D01*
X31769431Y-59353148D01*
X31883617Y-59195984D01*
X32020983Y-59058618D01*
X32178147Y-58944432D01*
X32351238Y-58856238D01*
X32535995Y-58796207D01*
X32727868Y-58765817D01*
X32922132Y-58765817D01*
X33114005Y-58796207D01*
G37*
G36*
X76589542Y-59114893D02*
G01*
X76601870Y-59123130D01*
X76610107Y-59135458D01*
X76613000Y-59150000D01*
X76613000Y-60850000D01*
X76610107Y-60864542D01*
X76601870Y-60876870D01*
X76589542Y-60885107D01*
X76575000Y-60888000D01*
X74875000Y-60888000D01*
X74860458Y-60885107D01*
X74848130Y-60876870D01*
X74839893Y-60864542D01*
X74837000Y-60850000D01*
X74837000Y-59150000D01*
X74839893Y-59135458D01*
X74848130Y-59123130D01*
X74860458Y-59114893D01*
X74875000Y-59112000D01*
X76575000Y-59112000D01*
X76589542Y-59114893D01*
G37*
G36*
X78522773Y-59150237D02*
G01*
X78683600Y-59216854D01*
X78828341Y-59313567D01*
X78951433Y-59436659D01*
X79048146Y-59581400D01*
X79114763Y-59742227D01*
X79148724Y-59912961D01*
X79148724Y-60087039D01*
X79114763Y-60257773D01*
X79048146Y-60418600D01*
X78951433Y-60563341D01*
X78828341Y-60686433D01*
X78683600Y-60783146D01*
X78522773Y-60849763D01*
X78352039Y-60883724D01*
X78177961Y-60883724D01*
X78007227Y-60849763D01*
X77846400Y-60783146D01*
X77701659Y-60686433D01*
X77578567Y-60563341D01*
X77481854Y-60418600D01*
X77415237Y-60257773D01*
X77381276Y-60087039D01*
X77381276Y-59912961D01*
X77415237Y-59742227D01*
X77481854Y-59581400D01*
X77578567Y-59436659D01*
X77701659Y-59313567D01*
X77846400Y-59216854D01*
X78007227Y-59150237D01*
X78177961Y-59116276D01*
X78352039Y-59116276D01*
X78522773Y-59150237D01*
G37*
G36*
X58915938Y-59054650D02*
G01*
X58924692Y-59058515D01*
X58931367Y-59059488D01*
X58973097Y-59079888D01*
X59012759Y-59097401D01*
X59016430Y-59101072D01*
X59016867Y-59101286D01*
X59083713Y-59168132D01*
X59083926Y-59168568D01*
X59087599Y-59172241D01*
X59105116Y-59211913D01*
X59125511Y-59253632D01*
X59126483Y-59260304D01*
X59130350Y-59269062D01*
X59138000Y-59335000D01*
X59138000Y-60585000D01*
X59130350Y-60650938D01*
X59126482Y-60659696D01*
X59125511Y-60666367D01*
X59105120Y-60708076D01*
X59087599Y-60747759D01*
X59083925Y-60751432D01*
X59083713Y-60751867D01*
X59016867Y-60818713D01*
X59016432Y-60818925D01*
X59012759Y-60822599D01*
X58973076Y-60840120D01*
X58931367Y-60860511D01*
X58924696Y-60861482D01*
X58915938Y-60865350D01*
X58850000Y-60873000D01*
X58050000Y-60873000D01*
X57984062Y-60865350D01*
X57975304Y-60861483D01*
X57968632Y-60860511D01*
X57926913Y-60840116D01*
X57887241Y-60822599D01*
X57883568Y-60818926D01*
X57883132Y-60818713D01*
X57816286Y-60751867D01*
X57816072Y-60751430D01*
X57812401Y-60747759D01*
X57794888Y-60708097D01*
X57774488Y-60666367D01*
X57773515Y-60659692D01*
X57769650Y-60650938D01*
X57762000Y-60585000D01*
X57762000Y-59335000D01*
X57769650Y-59269062D01*
X57773515Y-59260307D01*
X57774488Y-59253632D01*
X57794893Y-59211892D01*
X57812401Y-59172241D01*
X57816071Y-59168570D01*
X57816286Y-59168132D01*
X57883132Y-59101286D01*
X57883570Y-59101071D01*
X57887241Y-59097401D01*
X57926892Y-59079893D01*
X57968632Y-59059488D01*
X57975307Y-59058515D01*
X57984062Y-59054650D01*
X58050000Y-59047000D01*
X58850000Y-59047000D01*
X58915938Y-59054650D01*
G37*
G36*
X62015938Y-59054650D02*
G01*
X62024692Y-59058515D01*
X62031367Y-59059488D01*
X62073097Y-59079888D01*
X62112759Y-59097401D01*
X62116430Y-59101072D01*
X62116867Y-59101286D01*
X62183713Y-59168132D01*
X62183926Y-59168568D01*
X62187599Y-59172241D01*
X62205116Y-59211913D01*
X62225511Y-59253632D01*
X62226483Y-59260304D01*
X62230350Y-59269062D01*
X62238000Y-59335000D01*
X62238000Y-60585000D01*
X62230350Y-60650938D01*
X62226482Y-60659696D01*
X62225511Y-60666367D01*
X62205120Y-60708076D01*
X62187599Y-60747759D01*
X62183925Y-60751432D01*
X62183713Y-60751867D01*
X62116867Y-60818713D01*
X62116432Y-60818925D01*
X62112759Y-60822599D01*
X62073076Y-60840120D01*
X62031367Y-60860511D01*
X62024696Y-60861482D01*
X62015938Y-60865350D01*
X61950000Y-60873000D01*
X61150000Y-60873000D01*
X61084062Y-60865350D01*
X61075304Y-60861483D01*
X61068632Y-60860511D01*
X61026913Y-60840116D01*
X60987241Y-60822599D01*
X60983568Y-60818926D01*
X60983132Y-60818713D01*
X60916286Y-60751867D01*
X60916072Y-60751430D01*
X60912401Y-60747759D01*
X60894888Y-60708097D01*
X60874488Y-60666367D01*
X60873515Y-60659692D01*
X60869650Y-60650938D01*
X60862000Y-60585000D01*
X60862000Y-59335000D01*
X60869650Y-59269062D01*
X60873515Y-59260307D01*
X60874488Y-59253632D01*
X60894893Y-59211892D01*
X60912401Y-59172241D01*
X60916071Y-59168570D01*
X60916286Y-59168132D01*
X60983132Y-59101286D01*
X60983570Y-59101071D01*
X60987241Y-59097401D01*
X61026892Y-59079893D01*
X61068632Y-59059488D01*
X61075307Y-59058515D01*
X61084062Y-59054650D01*
X61150000Y-59047000D01*
X61950000Y-59047000D01*
X62015938Y-59054650D01*
G37*
G36*
X55257773Y-58690237D02*
G01*
X55418600Y-58756854D01*
X55563341Y-58853567D01*
X55686433Y-58976659D01*
X55783146Y-59121400D01*
X55849763Y-59282227D01*
X55883724Y-59452961D01*
X55883724Y-59627039D01*
X55849763Y-59797773D01*
X55783146Y-59958600D01*
X55686433Y-60103341D01*
X55563341Y-60226433D01*
X55418600Y-60323146D01*
X55257773Y-60389763D01*
X55087039Y-60423724D01*
X54912961Y-60423724D01*
X54742227Y-60389763D01*
X54581400Y-60323146D01*
X54436659Y-60226433D01*
X54313567Y-60103341D01*
X54216854Y-59958600D01*
X54150237Y-59797773D01*
X54116276Y-59627039D01*
X54116276Y-59452961D01*
X54150237Y-59282227D01*
X54216854Y-59121400D01*
X54313567Y-58976659D01*
X54436659Y-58853567D01*
X54581400Y-58756854D01*
X54742227Y-58690237D01*
X54912961Y-58656276D01*
X55087039Y-58656276D01*
X55257773Y-58690237D01*
G37*
G36*
X30582773Y-57900238D02*
G01*
X30743600Y-57966855D01*
X30888341Y-58063568D01*
X31011433Y-58186660D01*
X31108146Y-58331401D01*
X31174763Y-58492228D01*
X31208724Y-58662962D01*
X31208724Y-58837040D01*
X31174763Y-59007774D01*
X31108146Y-59168601D01*
X31011433Y-59313342D01*
X30888341Y-59436434D01*
X30743600Y-59533147D01*
X30582773Y-59599764D01*
X30412039Y-59633725D01*
X30237961Y-59633725D01*
X30067227Y-59599764D01*
X29906400Y-59533147D01*
X29761659Y-59436434D01*
X29638567Y-59313342D01*
X29541854Y-59168601D01*
X29475237Y-59007774D01*
X29441276Y-58837040D01*
X29441276Y-58662962D01*
X29475237Y-58492228D01*
X29541854Y-58331401D01*
X29638567Y-58186660D01*
X29761659Y-58063568D01*
X29906400Y-57966855D01*
X30067227Y-57900238D01*
X30237961Y-57866277D01*
X30412039Y-57866277D01*
X30582773Y-57900238D01*
G37*
G36*
X37690938Y-57369650D02*
G01*
X37699692Y-57373515D01*
X37706367Y-57374488D01*
X37748097Y-57394888D01*
X37787759Y-57412401D01*
X37791430Y-57416072D01*
X37791867Y-57416286D01*
X37858713Y-57483132D01*
X37858926Y-57483568D01*
X37862599Y-57487241D01*
X37880116Y-57526913D01*
X37900511Y-57568632D01*
X37901483Y-57575304D01*
X37905350Y-57584062D01*
X37913000Y-57650000D01*
X37913000Y-58450000D01*
X37905350Y-58515938D01*
X37901482Y-58524696D01*
X37900511Y-58531367D01*
X37880120Y-58573076D01*
X37862599Y-58612759D01*
X37858925Y-58616432D01*
X37858713Y-58616867D01*
X37791867Y-58683713D01*
X37791432Y-58683925D01*
X37787759Y-58687599D01*
X37748076Y-58705120D01*
X37706367Y-58725511D01*
X37699696Y-58726482D01*
X37690938Y-58730350D01*
X37625000Y-58738000D01*
X36375000Y-58738000D01*
X36309062Y-58730350D01*
X36300304Y-58726483D01*
X36293632Y-58725511D01*
X36251913Y-58705116D01*
X36212241Y-58687599D01*
X36208568Y-58683926D01*
X36208132Y-58683713D01*
X36141286Y-58616867D01*
X36141072Y-58616430D01*
X36137401Y-58612759D01*
X36119888Y-58573097D01*
X36099488Y-58531367D01*
X36098515Y-58524692D01*
X36094650Y-58515938D01*
X36087000Y-58450000D01*
X36087000Y-57650000D01*
X36094650Y-57584062D01*
X36098515Y-57575307D01*
X36099488Y-57568632D01*
X36119893Y-57526892D01*
X36137401Y-57487241D01*
X36141071Y-57483570D01*
X36141286Y-57483132D01*
X36208132Y-57416286D01*
X36208570Y-57416071D01*
X36212241Y-57412401D01*
X36251892Y-57394893D01*
X36293632Y-57374488D01*
X36300307Y-57373515D01*
X36309062Y-57369650D01*
X36375000Y-57362000D01*
X37625000Y-57362000D01*
X37690938Y-57369650D01*
G37*
G36*
X67965938Y-57119650D02*
G01*
X67974692Y-57123515D01*
X67981367Y-57124488D01*
X68023097Y-57144888D01*
X68062759Y-57162401D01*
X68066430Y-57166072D01*
X68066867Y-57166286D01*
X68133713Y-57233132D01*
X68133926Y-57233568D01*
X68137599Y-57237241D01*
X68155116Y-57276913D01*
X68175511Y-57318632D01*
X68176483Y-57325304D01*
X68180350Y-57334062D01*
X68188000Y-57400000D01*
X68188000Y-58225000D01*
X68180350Y-58290938D01*
X68176482Y-58299696D01*
X68175511Y-58306367D01*
X68155120Y-58348076D01*
X68137599Y-58387759D01*
X68133925Y-58391432D01*
X68133713Y-58391867D01*
X68066867Y-58458713D01*
X68066432Y-58458925D01*
X68062759Y-58462599D01*
X68023076Y-58480120D01*
X67981367Y-58500511D01*
X67974696Y-58501482D01*
X67965938Y-58505350D01*
X67900000Y-58513000D01*
X66600000Y-58513000D01*
X66534062Y-58505350D01*
X66525304Y-58501483D01*
X66518632Y-58500511D01*
X66476913Y-58480116D01*
X66437241Y-58462599D01*
X66433568Y-58458926D01*
X66433132Y-58458713D01*
X66366286Y-58391867D01*
X66366072Y-58391430D01*
X66362401Y-58387759D01*
X66344888Y-58348097D01*
X66324488Y-58306367D01*
X66323515Y-58299692D01*
X66319650Y-58290938D01*
X66312000Y-58225000D01*
X66312000Y-57400000D01*
X66319650Y-57334062D01*
X66323515Y-57325307D01*
X66324488Y-57318632D01*
X66344893Y-57276892D01*
X66362401Y-57237241D01*
X66366071Y-57233570D01*
X66366286Y-57233132D01*
X66433132Y-57166286D01*
X66433570Y-57166071D01*
X66437241Y-57162401D01*
X66476892Y-57144893D01*
X66518632Y-57124488D01*
X66525307Y-57123515D01*
X66534062Y-57119650D01*
X66600000Y-57112000D01*
X67900000Y-57112000D01*
X67965938Y-57119650D01*
G37*
G36*
X70965938Y-57119650D02*
G01*
X70974692Y-57123515D01*
X70981367Y-57124488D01*
X71023097Y-57144888D01*
X71062759Y-57162401D01*
X71066430Y-57166072D01*
X71066867Y-57166286D01*
X71133713Y-57233132D01*
X71133926Y-57233568D01*
X71137599Y-57237241D01*
X71155116Y-57276913D01*
X71175511Y-57318632D01*
X71176483Y-57325304D01*
X71180350Y-57334062D01*
X71188000Y-57400000D01*
X71188000Y-58225000D01*
X71180350Y-58290938D01*
X71176482Y-58299696D01*
X71175511Y-58306367D01*
X71155120Y-58348076D01*
X71137599Y-58387759D01*
X71133925Y-58391432D01*
X71133713Y-58391867D01*
X71066867Y-58458713D01*
X71066432Y-58458925D01*
X71062759Y-58462599D01*
X71023076Y-58480120D01*
X70981367Y-58500511D01*
X70974696Y-58501482D01*
X70965938Y-58505350D01*
X70900000Y-58513000D01*
X69600000Y-58513000D01*
X69534062Y-58505350D01*
X69525304Y-58501483D01*
X69518632Y-58500511D01*
X69476913Y-58480116D01*
X69437241Y-58462599D01*
X69433568Y-58458926D01*
X69433132Y-58458713D01*
X69366286Y-58391867D01*
X69366072Y-58391430D01*
X69362401Y-58387759D01*
X69344888Y-58348097D01*
X69324488Y-58306367D01*
X69323515Y-58299692D01*
X69319650Y-58290938D01*
X69312000Y-58225000D01*
X69312000Y-57400000D01*
X69319650Y-57334062D01*
X69323515Y-57325307D01*
X69324488Y-57318632D01*
X69344893Y-57276892D01*
X69362401Y-57237241D01*
X69366071Y-57233570D01*
X69366286Y-57233132D01*
X69433132Y-57166286D01*
X69433570Y-57166071D01*
X69437241Y-57162401D01*
X69476892Y-57144893D01*
X69518632Y-57124488D01*
X69525307Y-57123515D01*
X69534062Y-57119650D01*
X69600000Y-57112000D01*
X70900000Y-57112000D01*
X70965938Y-57119650D01*
G37*
G36*
X55257773Y-56150237D02*
G01*
X55418600Y-56216854D01*
X55563341Y-56313567D01*
X55686433Y-56436659D01*
X55783146Y-56581400D01*
X55849763Y-56742227D01*
X55883724Y-56912961D01*
X55883724Y-57087039D01*
X55849763Y-57257773D01*
X55783146Y-57418600D01*
X55686433Y-57563341D01*
X55563341Y-57686433D01*
X55418600Y-57783146D01*
X55257773Y-57849763D01*
X55087039Y-57883724D01*
X54912961Y-57883724D01*
X54742227Y-57849763D01*
X54581400Y-57783146D01*
X54436659Y-57686433D01*
X54313567Y-57563341D01*
X54216854Y-57418600D01*
X54150237Y-57257773D01*
X54116276Y-57087039D01*
X54116276Y-56912961D01*
X54150237Y-56742227D01*
X54216854Y-56581400D01*
X54313567Y-56436659D01*
X54436659Y-56313567D01*
X54581400Y-56216854D01*
X54742227Y-56150237D01*
X54912961Y-56116276D01*
X55087039Y-56116276D01*
X55257773Y-56150237D01*
G37*
G36*
X58915938Y-56054650D02*
G01*
X58924692Y-56058515D01*
X58931367Y-56059488D01*
X58973097Y-56079888D01*
X59012759Y-56097401D01*
X59016430Y-56101072D01*
X59016867Y-56101286D01*
X59083713Y-56168132D01*
X59083926Y-56168568D01*
X59087599Y-56172241D01*
X59105116Y-56211913D01*
X59125511Y-56253632D01*
X59126483Y-56260304D01*
X59130350Y-56269062D01*
X59138000Y-56335000D01*
X59138000Y-57585000D01*
X59130350Y-57650938D01*
X59126482Y-57659696D01*
X59125511Y-57666367D01*
X59105120Y-57708076D01*
X59087599Y-57747759D01*
X59083925Y-57751432D01*
X59083713Y-57751867D01*
X59016867Y-57818713D01*
X59016432Y-57818925D01*
X59012759Y-57822599D01*
X58973076Y-57840120D01*
X58931367Y-57860511D01*
X58924696Y-57861482D01*
X58915938Y-57865350D01*
X58850000Y-57873000D01*
X58050000Y-57873000D01*
X57984062Y-57865350D01*
X57975304Y-57861483D01*
X57968632Y-57860511D01*
X57926913Y-57840116D01*
X57887241Y-57822599D01*
X57883568Y-57818926D01*
X57883132Y-57818713D01*
X57816286Y-57751867D01*
X57816072Y-57751430D01*
X57812401Y-57747759D01*
X57794888Y-57708097D01*
X57774488Y-57666367D01*
X57773515Y-57659692D01*
X57769650Y-57650938D01*
X57762000Y-57585000D01*
X57762000Y-56335000D01*
X57769650Y-56269062D01*
X57773515Y-56260307D01*
X57774488Y-56253632D01*
X57794893Y-56211892D01*
X57812401Y-56172241D01*
X57816071Y-56168570D01*
X57816286Y-56168132D01*
X57883132Y-56101286D01*
X57883570Y-56101071D01*
X57887241Y-56097401D01*
X57926892Y-56079893D01*
X57968632Y-56059488D01*
X57975307Y-56058515D01*
X57984062Y-56054650D01*
X58050000Y-56047000D01*
X58850000Y-56047000D01*
X58915938Y-56054650D01*
G37*
G36*
X62015938Y-56054650D02*
G01*
X62024692Y-56058515D01*
X62031367Y-56059488D01*
X62073097Y-56079888D01*
X62112759Y-56097401D01*
X62116430Y-56101072D01*
X62116867Y-56101286D01*
X62183713Y-56168132D01*
X62183926Y-56168568D01*
X62187599Y-56172241D01*
X62205116Y-56211913D01*
X62225511Y-56253632D01*
X62226483Y-56260304D01*
X62230350Y-56269062D01*
X62238000Y-56335000D01*
X62238000Y-57585000D01*
X62230350Y-57650938D01*
X62226482Y-57659696D01*
X62225511Y-57666367D01*
X62205120Y-57708076D01*
X62187599Y-57747759D01*
X62183925Y-57751432D01*
X62183713Y-57751867D01*
X62116867Y-57818713D01*
X62116432Y-57818925D01*
X62112759Y-57822599D01*
X62073076Y-57840120D01*
X62031367Y-57860511D01*
X62024696Y-57861482D01*
X62015938Y-57865350D01*
X61950000Y-57873000D01*
X61150000Y-57873000D01*
X61084062Y-57865350D01*
X61075304Y-57861483D01*
X61068632Y-57860511D01*
X61026913Y-57840116D01*
X60987241Y-57822599D01*
X60983568Y-57818926D01*
X60983132Y-57818713D01*
X60916286Y-57751867D01*
X60916072Y-57751430D01*
X60912401Y-57747759D01*
X60894888Y-57708097D01*
X60874488Y-57666367D01*
X60873515Y-57659692D01*
X60869650Y-57650938D01*
X60862000Y-57585000D01*
X60862000Y-56335000D01*
X60869650Y-56269062D01*
X60873515Y-56260307D01*
X60874488Y-56253632D01*
X60894893Y-56211892D01*
X60912401Y-56172241D01*
X60916071Y-56168570D01*
X60916286Y-56168132D01*
X60983132Y-56101286D01*
X60983570Y-56101071D01*
X60987241Y-56097401D01*
X61026892Y-56079893D01*
X61068632Y-56059488D01*
X61075307Y-56058515D01*
X61084062Y-56054650D01*
X61150000Y-56047000D01*
X61950000Y-56047000D01*
X62015938Y-56054650D01*
G37*
G36*
X43643758Y-54964893D02*
G01*
X43656086Y-54973130D01*
X43664323Y-54985458D01*
X43667216Y-55000000D01*
X43667216Y-57000000D01*
X43664323Y-57014542D01*
X43656086Y-57026870D01*
X43643758Y-57035107D01*
X43629216Y-57038000D01*
X41629216Y-57038000D01*
X41614674Y-57035107D01*
X41602346Y-57026870D01*
X41594109Y-57014542D01*
X41591216Y-57000000D01*
X41591216Y-55000000D01*
X41594109Y-54985458D01*
X41602346Y-54973130D01*
X41614674Y-54964893D01*
X41629216Y-54962000D01*
X43629216Y-54962000D01*
X43643758Y-54964893D01*
G37*
G36*
X47720828Y-54966998D02*
G01*
X47730958Y-54966998D01*
X47770540Y-54974871D01*
X47871489Y-54990860D01*
X47903961Y-55001410D01*
X47930531Y-55006696D01*
X47968022Y-55022225D01*
X48026371Y-55041184D01*
X48081035Y-55069037D01*
X48118526Y-55084566D01*
X48141048Y-55099614D01*
X48171469Y-55115115D01*
X48254158Y-55175192D01*
X48287716Y-55197615D01*
X48294878Y-55204777D01*
X48303220Y-55210838D01*
X48418377Y-55325995D01*
X48424437Y-55334336D01*
X48431601Y-55341500D01*
X48454026Y-55375062D01*
X48514100Y-55457746D01*
X48529599Y-55488164D01*
X48544650Y-55510690D01*
X48560181Y-55548185D01*
X48588031Y-55602844D01*
X48606987Y-55661185D01*
X48622520Y-55698685D01*
X48627806Y-55725259D01*
X48638355Y-55757726D01*
X48654342Y-55858667D01*
X48662218Y-55898258D01*
X48662218Y-55908388D01*
X48663831Y-55918572D01*
X48663831Y-56081427D01*
X48662218Y-56091610D01*
X48662218Y-56101742D01*
X48654342Y-56141336D01*
X48638355Y-56242273D01*
X48627806Y-56274737D01*
X48622520Y-56301315D01*
X48606985Y-56338818D01*
X48588031Y-56397155D01*
X48560183Y-56451809D01*
X48544650Y-56489310D01*
X48529596Y-56511838D01*
X48514100Y-56542253D01*
X48454034Y-56624925D01*
X48431601Y-56658500D01*
X48424434Y-56665666D01*
X48418377Y-56674004D01*
X48303220Y-56789161D01*
X48294882Y-56795218D01*
X48287716Y-56802385D01*
X48254141Y-56824818D01*
X48171469Y-56884884D01*
X48141054Y-56900380D01*
X48118526Y-56915434D01*
X48081025Y-56930967D01*
X48026371Y-56958815D01*
X47968034Y-56977769D01*
X47930531Y-56993304D01*
X47903953Y-56998590D01*
X47871489Y-57009139D01*
X47770549Y-57025126D01*
X47730958Y-57033002D01*
X47720828Y-57033002D01*
X47710644Y-57034615D01*
X47547788Y-57034615D01*
X47537604Y-57033002D01*
X47527474Y-57033002D01*
X47487883Y-57025126D01*
X47386942Y-57009139D01*
X47354475Y-56998590D01*
X47327901Y-56993304D01*
X47290401Y-56977771D01*
X47232060Y-56958815D01*
X47177401Y-56930965D01*
X47139906Y-56915434D01*
X47117380Y-56900383D01*
X47086962Y-56884884D01*
X47004278Y-56824810D01*
X46970716Y-56802385D01*
X46963552Y-56795221D01*
X46955211Y-56789161D01*
X46840054Y-56674004D01*
X46833993Y-56665662D01*
X46826831Y-56658500D01*
X46804408Y-56624942D01*
X46744331Y-56542253D01*
X46728830Y-56511832D01*
X46713782Y-56489310D01*
X46698253Y-56451819D01*
X46670400Y-56397155D01*
X46651441Y-56338806D01*
X46635912Y-56301315D01*
X46630626Y-56274745D01*
X46620076Y-56242273D01*
X46604088Y-56141327D01*
X46596214Y-56101742D01*
X46596214Y-56091611D01*
X46594601Y-56081427D01*
X46594601Y-55918572D01*
X46596214Y-55908387D01*
X46596214Y-55898258D01*
X46604087Y-55858676D01*
X46620076Y-55757726D01*
X46630627Y-55725251D01*
X46635912Y-55698685D01*
X46651440Y-55661196D01*
X46670400Y-55602844D01*
X46698255Y-55548174D01*
X46713782Y-55510690D01*
X46728828Y-55488170D01*
X46744331Y-55457746D01*
X46804416Y-55375045D01*
X46826831Y-55341500D01*
X46833990Y-55334340D01*
X46840054Y-55325995D01*
X46955211Y-55210838D01*
X46963556Y-55204774D01*
X46970716Y-55197615D01*
X47004261Y-55175200D01*
X47086962Y-55115115D01*
X47117386Y-55099612D01*
X47139906Y-55084566D01*
X47177390Y-55069039D01*
X47232060Y-55041184D01*
X47290412Y-55022224D01*
X47327901Y-55006696D01*
X47354467Y-55001411D01*
X47386942Y-54990860D01*
X47487892Y-54974871D01*
X47527474Y-54966998D01*
X47537604Y-54966998D01*
X47547788Y-54965385D01*
X47710644Y-54965385D01*
X47720828Y-54966998D01*
G37*
G36*
X81015661Y-54393443D02*
G01*
X81185494Y-54448625D01*
X81344603Y-54529695D01*
X81489072Y-54634658D01*
X81615342Y-54760928D01*
X81720305Y-54905397D01*
X81801375Y-55064506D01*
X81856557Y-55234339D01*
X81884492Y-55410714D01*
X81884492Y-55589286D01*
X81856557Y-55765661D01*
X81801375Y-55935494D01*
X81720305Y-56094603D01*
X81615342Y-56239072D01*
X81489072Y-56365342D01*
X81344603Y-56470305D01*
X81185494Y-56551375D01*
X81015661Y-56606557D01*
X80839286Y-56634492D01*
X80660714Y-56634492D01*
X80484339Y-56606557D01*
X80314506Y-56551375D01*
X80155397Y-56470305D01*
X80010928Y-56365342D01*
X79884658Y-56239072D01*
X79779695Y-56094603D01*
X79698625Y-55935494D01*
X79643443Y-55765661D01*
X79615508Y-55589286D01*
X79615508Y-55410714D01*
X79643443Y-55234339D01*
X79698625Y-55064506D01*
X79779695Y-54905397D01*
X79884658Y-54760928D01*
X80010928Y-54634658D01*
X80155397Y-54529695D01*
X80314506Y-54448625D01*
X80484339Y-54393443D01*
X80660714Y-54365508D01*
X80839286Y-54365508D01*
X81015661Y-54393443D01*
G37*
G36*
X65190938Y-54369650D02*
G01*
X65199692Y-54373515D01*
X65206367Y-54374488D01*
X65248097Y-54394888D01*
X65287759Y-54412401D01*
X65291430Y-54416072D01*
X65291867Y-54416286D01*
X65358713Y-54483132D01*
X65358926Y-54483568D01*
X65362599Y-54487241D01*
X65380116Y-54526913D01*
X65400511Y-54568632D01*
X65401483Y-54575304D01*
X65405350Y-54584062D01*
X65413000Y-54650000D01*
X65413000Y-55450000D01*
X65405350Y-55515938D01*
X65401482Y-55524696D01*
X65400511Y-55531367D01*
X65380120Y-55573076D01*
X65362599Y-55612759D01*
X65358925Y-55616432D01*
X65358713Y-55616867D01*
X65291867Y-55683713D01*
X65291432Y-55683925D01*
X65287759Y-55687599D01*
X65248076Y-55705120D01*
X65206367Y-55725511D01*
X65199696Y-55726482D01*
X65190938Y-55730350D01*
X65125000Y-55738000D01*
X63875000Y-55738000D01*
X63809062Y-55730350D01*
X63800304Y-55726483D01*
X63793632Y-55725511D01*
X63751913Y-55705116D01*
X63712241Y-55687599D01*
X63708568Y-55683926D01*
X63708132Y-55683713D01*
X63641286Y-55616867D01*
X63641072Y-55616430D01*
X63637401Y-55612759D01*
X63619888Y-55573097D01*
X63599488Y-55531367D01*
X63598515Y-55524692D01*
X63594650Y-55515938D01*
X63587000Y-55450000D01*
X63587000Y-54650000D01*
X63594650Y-54584062D01*
X63598515Y-54575307D01*
X63599488Y-54568632D01*
X63619893Y-54526892D01*
X63637401Y-54487241D01*
X63641071Y-54483570D01*
X63641286Y-54483132D01*
X63708132Y-54416286D01*
X63708570Y-54416071D01*
X63712241Y-54412401D01*
X63751892Y-54394893D01*
X63793632Y-54374488D01*
X63800307Y-54373515D01*
X63809062Y-54369650D01*
X63875000Y-54362000D01*
X65125000Y-54362000D01*
X65190938Y-54369650D01*
G37*
G36*
X37690938Y-54269650D02*
G01*
X37699692Y-54273515D01*
X37706367Y-54274488D01*
X37748097Y-54294888D01*
X37787759Y-54312401D01*
X37791430Y-54316072D01*
X37791867Y-54316286D01*
X37858713Y-54383132D01*
X37858926Y-54383568D01*
X37862599Y-54387241D01*
X37880116Y-54426913D01*
X37900511Y-54468632D01*
X37901483Y-54475304D01*
X37905350Y-54484062D01*
X37913000Y-54550000D01*
X37913000Y-55350000D01*
X37905350Y-55415938D01*
X37901482Y-55424696D01*
X37900511Y-55431367D01*
X37880120Y-55473076D01*
X37862599Y-55512759D01*
X37858925Y-55516432D01*
X37858713Y-55516867D01*
X37791867Y-55583713D01*
X37791432Y-55583925D01*
X37787759Y-55587599D01*
X37748076Y-55605120D01*
X37706367Y-55625511D01*
X37699696Y-55626482D01*
X37690938Y-55630350D01*
X37625000Y-55638000D01*
X36375000Y-55638000D01*
X36309062Y-55630350D01*
X36300304Y-55626483D01*
X36293632Y-55625511D01*
X36251913Y-55605116D01*
X36212241Y-55587599D01*
X36208568Y-55583926D01*
X36208132Y-55583713D01*
X36141286Y-55516867D01*
X36141072Y-55516430D01*
X36137401Y-55512759D01*
X36119888Y-55473097D01*
X36099488Y-55431367D01*
X36098515Y-55424692D01*
X36094650Y-55415938D01*
X36087000Y-55350000D01*
X36087000Y-54550000D01*
X36094650Y-54484062D01*
X36098515Y-54475307D01*
X36099488Y-54468632D01*
X36119893Y-54426892D01*
X36137401Y-54387241D01*
X36141071Y-54383570D01*
X36141286Y-54383132D01*
X36208132Y-54316286D01*
X36208570Y-54316071D01*
X36212241Y-54312401D01*
X36251892Y-54294893D01*
X36293632Y-54274488D01*
X36300307Y-54273515D01*
X36309062Y-54269650D01*
X36375000Y-54262000D01*
X37625000Y-54262000D01*
X37690938Y-54269650D01*
G37*
G36*
X67965938Y-53994650D02*
G01*
X67974692Y-53998515D01*
X67981367Y-53999488D01*
X68023097Y-54019888D01*
X68062759Y-54037401D01*
X68066430Y-54041072D01*
X68066867Y-54041286D01*
X68133713Y-54108132D01*
X68133926Y-54108568D01*
X68137599Y-54112241D01*
X68155116Y-54151913D01*
X68175511Y-54193632D01*
X68176483Y-54200304D01*
X68180350Y-54209062D01*
X68188000Y-54275000D01*
X68188000Y-55100000D01*
X68180350Y-55165938D01*
X68176482Y-55174696D01*
X68175511Y-55181367D01*
X68155120Y-55223076D01*
X68137599Y-55262759D01*
X68133925Y-55266432D01*
X68133713Y-55266867D01*
X68066867Y-55333713D01*
X68066432Y-55333925D01*
X68062759Y-55337599D01*
X68023076Y-55355120D01*
X67981367Y-55375511D01*
X67974696Y-55376482D01*
X67965938Y-55380350D01*
X67900000Y-55388000D01*
X66600000Y-55388000D01*
X66534062Y-55380350D01*
X66525304Y-55376483D01*
X66518632Y-55375511D01*
X66476913Y-55355116D01*
X66437241Y-55337599D01*
X66433568Y-55333926D01*
X66433132Y-55333713D01*
X66366286Y-55266867D01*
X66366072Y-55266430D01*
X66362401Y-55262759D01*
X66344888Y-55223097D01*
X66324488Y-55181367D01*
X66323515Y-55174692D01*
X66319650Y-55165938D01*
X66312000Y-55100000D01*
X66312000Y-54275000D01*
X66319650Y-54209062D01*
X66323515Y-54200307D01*
X66324488Y-54193632D01*
X66344893Y-54151892D01*
X66362401Y-54112241D01*
X66366071Y-54108570D01*
X66366286Y-54108132D01*
X66433132Y-54041286D01*
X66433570Y-54041071D01*
X66437241Y-54037401D01*
X66476892Y-54019893D01*
X66518632Y-53999488D01*
X66525307Y-53998515D01*
X66534062Y-53994650D01*
X66600000Y-53987000D01*
X67900000Y-53987000D01*
X67965938Y-53994650D01*
G37*
G36*
X70965938Y-53994650D02*
G01*
X70974692Y-53998515D01*
X70981367Y-53999488D01*
X71023097Y-54019888D01*
X71062759Y-54037401D01*
X71066430Y-54041072D01*
X71066867Y-54041286D01*
X71133713Y-54108132D01*
X71133926Y-54108568D01*
X71137599Y-54112241D01*
X71155116Y-54151913D01*
X71175511Y-54193632D01*
X71176483Y-54200304D01*
X71180350Y-54209062D01*
X71188000Y-54275000D01*
X71188000Y-55100000D01*
X71180350Y-55165938D01*
X71176482Y-55174696D01*
X71175511Y-55181367D01*
X71155120Y-55223076D01*
X71137599Y-55262759D01*
X71133925Y-55266432D01*
X71133713Y-55266867D01*
X71066867Y-55333713D01*
X71066432Y-55333925D01*
X71062759Y-55337599D01*
X71023076Y-55355120D01*
X70981367Y-55375511D01*
X70974696Y-55376482D01*
X70965938Y-55380350D01*
X70900000Y-55388000D01*
X69600000Y-55388000D01*
X69534062Y-55380350D01*
X69525304Y-55376483D01*
X69518632Y-55375511D01*
X69476913Y-55355116D01*
X69437241Y-55337599D01*
X69433568Y-55333926D01*
X69433132Y-55333713D01*
X69366286Y-55266867D01*
X69366072Y-55266430D01*
X69362401Y-55262759D01*
X69344888Y-55223097D01*
X69324488Y-55181367D01*
X69323515Y-55174692D01*
X69319650Y-55165938D01*
X69312000Y-55100000D01*
X69312000Y-54275000D01*
X69319650Y-54209062D01*
X69323515Y-54200307D01*
X69324488Y-54193632D01*
X69344893Y-54151892D01*
X69362401Y-54112241D01*
X69366071Y-54108570D01*
X69366286Y-54108132D01*
X69433132Y-54041286D01*
X69433570Y-54041071D01*
X69437241Y-54037401D01*
X69476892Y-54019893D01*
X69518632Y-53999488D01*
X69525307Y-53998515D01*
X69534062Y-53994650D01*
X69600000Y-53987000D01*
X70900000Y-53987000D01*
X70965938Y-53994650D01*
G37*
G36*
X55864542Y-53574893D02*
G01*
X55876870Y-53583130D01*
X55885107Y-53595458D01*
X55888000Y-53610000D01*
X55888000Y-55310000D01*
X55885107Y-55324542D01*
X55876870Y-55336870D01*
X55864542Y-55345107D01*
X55850000Y-55348000D01*
X54150000Y-55348000D01*
X54135458Y-55345107D01*
X54123130Y-55336870D01*
X54114893Y-55324542D01*
X54112000Y-55310000D01*
X54112000Y-53610000D01*
X54114893Y-53595458D01*
X54123130Y-53583130D01*
X54135458Y-53574893D01*
X54150000Y-53572000D01*
X55850000Y-53572000D01*
X55864542Y-53574893D01*
G37*
G36*
X30582773Y-53400238D02*
G01*
X30743600Y-53466855D01*
X30888341Y-53563568D01*
X31011433Y-53686660D01*
X31108146Y-53831401D01*
X31174763Y-53992228D01*
X31208724Y-54162962D01*
X31208724Y-54337040D01*
X31174763Y-54507774D01*
X31108146Y-54668601D01*
X31011433Y-54813342D01*
X30888341Y-54936434D01*
X30743600Y-55033147D01*
X30582773Y-55099764D01*
X30412039Y-55133725D01*
X30237961Y-55133725D01*
X30067227Y-55099764D01*
X29906400Y-55033147D01*
X29761659Y-54936434D01*
X29638567Y-54813342D01*
X29541854Y-54668601D01*
X29475237Y-54507774D01*
X29441276Y-54337040D01*
X29441276Y-54162962D01*
X29475237Y-53992228D01*
X29541854Y-53831401D01*
X29638567Y-53686660D01*
X29761659Y-53563568D01*
X29906400Y-53466855D01*
X30067227Y-53400238D01*
X30237961Y-53366277D01*
X30412039Y-53366277D01*
X30582773Y-53400238D01*
G37*
G36*
X58915938Y-53054650D02*
G01*
X58924692Y-53058515D01*
X58931367Y-53059488D01*
X58973097Y-53079888D01*
X59012759Y-53097401D01*
X59016430Y-53101072D01*
X59016867Y-53101286D01*
X59083713Y-53168132D01*
X59083926Y-53168568D01*
X59087599Y-53172241D01*
X59105116Y-53211913D01*
X59125511Y-53253632D01*
X59126483Y-53260304D01*
X59130350Y-53269062D01*
X59138000Y-53335000D01*
X59138000Y-54585000D01*
X59130350Y-54650938D01*
X59126482Y-54659696D01*
X59125511Y-54666367D01*
X59105120Y-54708076D01*
X59087599Y-54747759D01*
X59083925Y-54751432D01*
X59083713Y-54751867D01*
X59016867Y-54818713D01*
X59016432Y-54818925D01*
X59012759Y-54822599D01*
X58973076Y-54840120D01*
X58931367Y-54860511D01*
X58924696Y-54861482D01*
X58915938Y-54865350D01*
X58850000Y-54873000D01*
X58050000Y-54873000D01*
X57984062Y-54865350D01*
X57975304Y-54861483D01*
X57968632Y-54860511D01*
X57926913Y-54840116D01*
X57887241Y-54822599D01*
X57883568Y-54818926D01*
X57883132Y-54818713D01*
X57816286Y-54751867D01*
X57816072Y-54751430D01*
X57812401Y-54747759D01*
X57794888Y-54708097D01*
X57774488Y-54666367D01*
X57773515Y-54659692D01*
X57769650Y-54650938D01*
X57762000Y-54585000D01*
X57762000Y-53335000D01*
X57769650Y-53269062D01*
X57773515Y-53260307D01*
X57774488Y-53253632D01*
X57794893Y-53211892D01*
X57812401Y-53172241D01*
X57816071Y-53168570D01*
X57816286Y-53168132D01*
X57883132Y-53101286D01*
X57883570Y-53101071D01*
X57887241Y-53097401D01*
X57926892Y-53079893D01*
X57968632Y-53059488D01*
X57975307Y-53058515D01*
X57984062Y-53054650D01*
X58050000Y-53047000D01*
X58850000Y-53047000D01*
X58915938Y-53054650D01*
G37*
G36*
X62015938Y-53054650D02*
G01*
X62024692Y-53058515D01*
X62031367Y-53059488D01*
X62073097Y-53079888D01*
X62112759Y-53097401D01*
X62116430Y-53101072D01*
X62116867Y-53101286D01*
X62183713Y-53168132D01*
X62183926Y-53168568D01*
X62187599Y-53172241D01*
X62205116Y-53211913D01*
X62225511Y-53253632D01*
X62226483Y-53260304D01*
X62230350Y-53269062D01*
X62238000Y-53335000D01*
X62238000Y-54585000D01*
X62230350Y-54650938D01*
X62226482Y-54659696D01*
X62225511Y-54666367D01*
X62205120Y-54708076D01*
X62187599Y-54747759D01*
X62183925Y-54751432D01*
X62183713Y-54751867D01*
X62116867Y-54818713D01*
X62116432Y-54818925D01*
X62112759Y-54822599D01*
X62073076Y-54840120D01*
X62031367Y-54860511D01*
X62024696Y-54861482D01*
X62015938Y-54865350D01*
X61950000Y-54873000D01*
X61150000Y-54873000D01*
X61084062Y-54865350D01*
X61075304Y-54861483D01*
X61068632Y-54860511D01*
X61026913Y-54840116D01*
X60987241Y-54822599D01*
X60983568Y-54818926D01*
X60983132Y-54818713D01*
X60916286Y-54751867D01*
X60916072Y-54751430D01*
X60912401Y-54747759D01*
X60894888Y-54708097D01*
X60874488Y-54666367D01*
X60873515Y-54659692D01*
X60869650Y-54650938D01*
X60862000Y-54585000D01*
X60862000Y-53335000D01*
X60869650Y-53269062D01*
X60873515Y-53260307D01*
X60874488Y-53253632D01*
X60894893Y-53211892D01*
X60912401Y-53172241D01*
X60916071Y-53168570D01*
X60916286Y-53168132D01*
X60983132Y-53101286D01*
X60983570Y-53101071D01*
X60987241Y-53097401D01*
X61026892Y-53079893D01*
X61068632Y-53059488D01*
X61075307Y-53058515D01*
X61084062Y-53054650D01*
X61150000Y-53047000D01*
X61950000Y-53047000D01*
X62015938Y-53054650D01*
G37*
G36*
X74190938Y-53369650D02*
G01*
X74199692Y-53373515D01*
X74206367Y-53374488D01*
X74248097Y-53394888D01*
X74287759Y-53412401D01*
X74291430Y-53416072D01*
X74291867Y-53416286D01*
X74358713Y-53483132D01*
X74358926Y-53483568D01*
X74362599Y-53487241D01*
X74380116Y-53526913D01*
X74400511Y-53568632D01*
X74401483Y-53575304D01*
X74405350Y-53584062D01*
X74413000Y-53650000D01*
X74413000Y-54450000D01*
X74405350Y-54515938D01*
X74401482Y-54524696D01*
X74400511Y-54531367D01*
X74380120Y-54573076D01*
X74362599Y-54612759D01*
X74358925Y-54616432D01*
X74358713Y-54616867D01*
X74291867Y-54683713D01*
X74291432Y-54683925D01*
X74287759Y-54687599D01*
X74248076Y-54705120D01*
X74206367Y-54725511D01*
X74199696Y-54726482D01*
X74190938Y-54730350D01*
X74125000Y-54738000D01*
X72875000Y-54738000D01*
X72809062Y-54730350D01*
X72800304Y-54726483D01*
X72793632Y-54725511D01*
X72751913Y-54705116D01*
X72712241Y-54687599D01*
X72708568Y-54683926D01*
X72708132Y-54683713D01*
X72641286Y-54616867D01*
X72641072Y-54616430D01*
X72637401Y-54612759D01*
X72619888Y-54573097D01*
X72599488Y-54531367D01*
X72598515Y-54524692D01*
X72594650Y-54515938D01*
X72587000Y-54450000D01*
X72587000Y-53650000D01*
X72594650Y-53584062D01*
X72598515Y-53575307D01*
X72599488Y-53568632D01*
X72619893Y-53526892D01*
X72637401Y-53487241D01*
X72641071Y-53483570D01*
X72641286Y-53483132D01*
X72708132Y-53416286D01*
X72708570Y-53416071D01*
X72712241Y-53412401D01*
X72751892Y-53394893D01*
X72793632Y-53374488D01*
X72800307Y-53373515D01*
X72809062Y-53369650D01*
X72875000Y-53362000D01*
X74125000Y-53362000D01*
X74190938Y-53369650D01*
G37*
G36*
X33114005Y-51796207D02*
G01*
X33298762Y-51856238D01*
X33471853Y-51944432D01*
X33629017Y-52058618D01*
X33766383Y-52195984D01*
X33880569Y-52353148D01*
X33968763Y-52526239D01*
X34028794Y-52710996D01*
X34059184Y-52902869D01*
X34059184Y-53097133D01*
X34028794Y-53289006D01*
X33968763Y-53473763D01*
X33880569Y-53646854D01*
X33766383Y-53804018D01*
X33629017Y-53941384D01*
X33471853Y-54055570D01*
X33298762Y-54143764D01*
X33114005Y-54203795D01*
X32922132Y-54234185D01*
X32727868Y-54234185D01*
X32535995Y-54203795D01*
X32351238Y-54143764D01*
X32178147Y-54055570D01*
X32020983Y-53941384D01*
X31883617Y-53804018D01*
X31769431Y-53646854D01*
X31681237Y-53473763D01*
X31621206Y-53289006D01*
X31590816Y-53097133D01*
X31590816Y-52902869D01*
X31621206Y-52710996D01*
X31681237Y-52526239D01*
X31769431Y-52353148D01*
X31883617Y-52195984D01*
X32020983Y-52058618D01*
X32178147Y-51944432D01*
X32351238Y-51856238D01*
X32535995Y-51796207D01*
X32727868Y-51765817D01*
X32922132Y-51765817D01*
X33114005Y-51796207D01*
G37*
G36*
X68005884Y-51652953D02*
G01*
X68127514Y-51723176D01*
X68226824Y-51822486D01*
X68297047Y-51944116D01*
X68333397Y-52079777D01*
X68333397Y-52220223D01*
X68297047Y-52355884D01*
X68226824Y-52477514D01*
X68127514Y-52576824D01*
X68005884Y-52647047D01*
X67870223Y-52683397D01*
X67729777Y-52683397D01*
X67594116Y-52647047D01*
X67472486Y-52576824D01*
X67373176Y-52477514D01*
X67302953Y-52355884D01*
X67266603Y-52220223D01*
X67266603Y-52079777D01*
X67302953Y-51944116D01*
X67373176Y-51822486D01*
X67472486Y-51723176D01*
X67594116Y-51652953D01*
X67729777Y-51616603D01*
X67870223Y-51616603D01*
X68005884Y-51652953D01*
G37*
G36*
X69905884Y-51652953D02*
G01*
X70027514Y-51723176D01*
X70126824Y-51822486D01*
X70197047Y-51944116D01*
X70233397Y-52079777D01*
X70233397Y-52220223D01*
X70197047Y-52355884D01*
X70126824Y-52477514D01*
X70027514Y-52576824D01*
X69905884Y-52647047D01*
X69770223Y-52683397D01*
X69629777Y-52683397D01*
X69494116Y-52647047D01*
X69372486Y-52576824D01*
X69273176Y-52477514D01*
X69202953Y-52355884D01*
X69166603Y-52220223D01*
X69166603Y-52079777D01*
X69202953Y-51944116D01*
X69273176Y-51822486D01*
X69372486Y-51723176D01*
X69494116Y-51652953D01*
X69629777Y-51616603D01*
X69770223Y-51616603D01*
X69905884Y-51652953D01*
G37*
G36*
X65190938Y-51269650D02*
G01*
X65199692Y-51273515D01*
X65206367Y-51274488D01*
X65248097Y-51294888D01*
X65287759Y-51312401D01*
X65291430Y-51316072D01*
X65291867Y-51316286D01*
X65358713Y-51383132D01*
X65358926Y-51383568D01*
X65362599Y-51387241D01*
X65380116Y-51426913D01*
X65400511Y-51468632D01*
X65401483Y-51475304D01*
X65405350Y-51484062D01*
X65413000Y-51550000D01*
X65413000Y-52350000D01*
X65405350Y-52415938D01*
X65401482Y-52424696D01*
X65400511Y-52431367D01*
X65380120Y-52473076D01*
X65362599Y-52512759D01*
X65358925Y-52516432D01*
X65358713Y-52516867D01*
X65291867Y-52583713D01*
X65291432Y-52583925D01*
X65287759Y-52587599D01*
X65248076Y-52605120D01*
X65206367Y-52625511D01*
X65199696Y-52626482D01*
X65190938Y-52630350D01*
X65125000Y-52638000D01*
X63875000Y-52638000D01*
X63809062Y-52630350D01*
X63800304Y-52626483D01*
X63793632Y-52625511D01*
X63751913Y-52605116D01*
X63712241Y-52587599D01*
X63708568Y-52583926D01*
X63708132Y-52583713D01*
X63641286Y-52516867D01*
X63641072Y-52516430D01*
X63637401Y-52512759D01*
X63619888Y-52473097D01*
X63599488Y-52431367D01*
X63598515Y-52424692D01*
X63594650Y-52415938D01*
X63587000Y-52350000D01*
X63587000Y-51550000D01*
X63594650Y-51484062D01*
X63598515Y-51475307D01*
X63599488Y-51468632D01*
X63619893Y-51426892D01*
X63637401Y-51387241D01*
X63641071Y-51383570D01*
X63641286Y-51383132D01*
X63708132Y-51316286D01*
X63708570Y-51316071D01*
X63712241Y-51312401D01*
X63751892Y-51294893D01*
X63793632Y-51274488D01*
X63800307Y-51273515D01*
X63809062Y-51269650D01*
X63875000Y-51262000D01*
X65125000Y-51262000D01*
X65190938Y-51269650D01*
G37*
G36*
X74190938Y-50269650D02*
G01*
X74199692Y-50273515D01*
X74206367Y-50274488D01*
X74248097Y-50294888D01*
X74287759Y-50312401D01*
X74291430Y-50316072D01*
X74291867Y-50316286D01*
X74358713Y-50383132D01*
X74358926Y-50383568D01*
X74362599Y-50387241D01*
X74380116Y-50426913D01*
X74400511Y-50468632D01*
X74401483Y-50475304D01*
X74405350Y-50484062D01*
X74413000Y-50550000D01*
X74413000Y-51350000D01*
X74405350Y-51415938D01*
X74401482Y-51424696D01*
X74400511Y-51431367D01*
X74380120Y-51473076D01*
X74362599Y-51512759D01*
X74358925Y-51516432D01*
X74358713Y-51516867D01*
X74291867Y-51583713D01*
X74291432Y-51583925D01*
X74287759Y-51587599D01*
X74248076Y-51605120D01*
X74206367Y-51625511D01*
X74199696Y-51626482D01*
X74190938Y-51630350D01*
X74125000Y-51638000D01*
X72875000Y-51638000D01*
X72809062Y-51630350D01*
X72800304Y-51626483D01*
X72793632Y-51625511D01*
X72751913Y-51605116D01*
X72712241Y-51587599D01*
X72708568Y-51583926D01*
X72708132Y-51583713D01*
X72641286Y-51516867D01*
X72641072Y-51516430D01*
X72637401Y-51512759D01*
X72619888Y-51473097D01*
X72599488Y-51431367D01*
X72598515Y-51424692D01*
X72594650Y-51415938D01*
X72587000Y-51350000D01*
X72587000Y-50550000D01*
X72594650Y-50484062D01*
X72598515Y-50475307D01*
X72599488Y-50468632D01*
X72619893Y-50426892D01*
X72637401Y-50387241D01*
X72641071Y-50383570D01*
X72641286Y-50383132D01*
X72708132Y-50316286D01*
X72708570Y-50316071D01*
X72712241Y-50312401D01*
X72751892Y-50294893D01*
X72793632Y-50274488D01*
X72800307Y-50273515D01*
X72809062Y-50269650D01*
X72875000Y-50262000D01*
X74125000Y-50262000D01*
X74190938Y-50269650D01*
G37*
G36*
X77615661Y-49393443D02*
G01*
X77785494Y-49448625D01*
X77944603Y-49529695D01*
X78089072Y-49634658D01*
X78215342Y-49760928D01*
X78320305Y-49905397D01*
X78401375Y-50064506D01*
X78456557Y-50234339D01*
X78484492Y-50410714D01*
X78484492Y-50589286D01*
X78456557Y-50765661D01*
X78401375Y-50935494D01*
X78320305Y-51094603D01*
X78215342Y-51239072D01*
X78089072Y-51365342D01*
X77944603Y-51470305D01*
X77785494Y-51551375D01*
X77615661Y-51606557D01*
X77439286Y-51634492D01*
X77260714Y-51634492D01*
X77084339Y-51606557D01*
X76914506Y-51551375D01*
X76755397Y-51470305D01*
X76610928Y-51365342D01*
X76484658Y-51239072D01*
X76379695Y-51094603D01*
X76298625Y-50935494D01*
X76243443Y-50765661D01*
X76215508Y-50589286D01*
X76215508Y-50410714D01*
X76243443Y-50234339D01*
X76298625Y-50064506D01*
X76379695Y-49905397D01*
X76484658Y-49760928D01*
X76610928Y-49634658D01*
X76755397Y-49529695D01*
X76914506Y-49448625D01*
X77084339Y-49393443D01*
X77260714Y-49365508D01*
X77439286Y-49365508D01*
X77615661Y-49393443D01*
G37*
G36*
X38190938Y-49869650D02*
G01*
X38199692Y-49873515D01*
X38206367Y-49874488D01*
X38248097Y-49894888D01*
X38287759Y-49912401D01*
X38291430Y-49916072D01*
X38291867Y-49916286D01*
X38358713Y-49983132D01*
X38358926Y-49983568D01*
X38362599Y-49987241D01*
X38380116Y-50026913D01*
X38400511Y-50068632D01*
X38401483Y-50075304D01*
X38405350Y-50084062D01*
X38413000Y-50150000D01*
X38413000Y-50950000D01*
X38405350Y-51015938D01*
X38401482Y-51024696D01*
X38400511Y-51031367D01*
X38380120Y-51073076D01*
X38362599Y-51112759D01*
X38358925Y-51116432D01*
X38358713Y-51116867D01*
X38291867Y-51183713D01*
X38291432Y-51183925D01*
X38287759Y-51187599D01*
X38248076Y-51205120D01*
X38206367Y-51225511D01*
X38199696Y-51226482D01*
X38190938Y-51230350D01*
X38125000Y-51238000D01*
X36875000Y-51238000D01*
X36809062Y-51230350D01*
X36800304Y-51226483D01*
X36793632Y-51225511D01*
X36751913Y-51205116D01*
X36712241Y-51187599D01*
X36708568Y-51183926D01*
X36708132Y-51183713D01*
X36641286Y-51116867D01*
X36641072Y-51116430D01*
X36637401Y-51112759D01*
X36619888Y-51073097D01*
X36599488Y-51031367D01*
X36598515Y-51024692D01*
X36594650Y-51015938D01*
X36587000Y-50950000D01*
X36587000Y-50150000D01*
X36594650Y-50084062D01*
X36598515Y-50075307D01*
X36599488Y-50068632D01*
X36619893Y-50026892D01*
X36637401Y-49987241D01*
X36641071Y-49983570D01*
X36641286Y-49983132D01*
X36708132Y-49916286D01*
X36708570Y-49916071D01*
X36712241Y-49912401D01*
X36751892Y-49894893D01*
X36793632Y-49874488D01*
X36800307Y-49873515D01*
X36809062Y-49869650D01*
X36875000Y-49862000D01*
X38125000Y-49862000D01*
X38190938Y-49869650D01*
G37*
G36*
X59524239Y-48046365D02*
G01*
X59536567Y-48054602D01*
X59602617Y-48120652D01*
X59744520Y-48262554D01*
X59744522Y-48262557D01*
X59748699Y-48266734D01*
X59756936Y-48279062D01*
X59759829Y-48293604D01*
X59756936Y-48308146D01*
X59748699Y-48320474D01*
X58564295Y-49504878D01*
X58551967Y-49513115D01*
X58537425Y-49516008D01*
X58522883Y-49513115D01*
X58510555Y-49504878D01*
X58371185Y-49365508D01*
X58302601Y-49296925D01*
X58302598Y-49296921D01*
X58298423Y-49292746D01*
X58290186Y-49280418D01*
X58287293Y-49265876D01*
X58290186Y-49251334D01*
X58298423Y-49239006D01*
X59178716Y-48358713D01*
X59478650Y-48058778D01*
X59478653Y-48058775D01*
X59482827Y-48054602D01*
X59495155Y-48046365D01*
X59509697Y-48043472D01*
X59524239Y-48046365D01*
G37*
G36*
X61504845Y-48046365D02*
G01*
X61517173Y-48054602D01*
X62701577Y-49239006D01*
X62709814Y-49251334D01*
X62712707Y-49265876D01*
X62709814Y-49280418D01*
X62701577Y-49292746D01*
X62489445Y-49504878D01*
X62477117Y-49513115D01*
X62462575Y-49516008D01*
X62448033Y-49513115D01*
X62435705Y-49504878D01*
X61251301Y-48320474D01*
X61243064Y-48308146D01*
X61240171Y-48293604D01*
X61243064Y-48279062D01*
X61251301Y-48266734D01*
X61305436Y-48212599D01*
X61459253Y-48058780D01*
X61459259Y-48058775D01*
X61463433Y-48054602D01*
X61475761Y-48046365D01*
X61490303Y-48043472D01*
X61504845Y-48046365D01*
G37*
G36*
X71190938Y-47869650D02*
G01*
X71199692Y-47873515D01*
X71206367Y-47874488D01*
X71248097Y-47894888D01*
X71287759Y-47912401D01*
X71291430Y-47916072D01*
X71291867Y-47916286D01*
X71358713Y-47983132D01*
X71358926Y-47983568D01*
X71362599Y-47987241D01*
X71380116Y-48026913D01*
X71400511Y-48068632D01*
X71401483Y-48075304D01*
X71405350Y-48084062D01*
X71413000Y-48150000D01*
X71413000Y-48950000D01*
X71405350Y-49015938D01*
X71401482Y-49024696D01*
X71400511Y-49031367D01*
X71380120Y-49073076D01*
X71362599Y-49112759D01*
X71358925Y-49116432D01*
X71358713Y-49116867D01*
X71291867Y-49183713D01*
X71291432Y-49183925D01*
X71287759Y-49187599D01*
X71248076Y-49205120D01*
X71206367Y-49225511D01*
X71199696Y-49226482D01*
X71190938Y-49230350D01*
X71125000Y-49238000D01*
X69875000Y-49238000D01*
X69809062Y-49230350D01*
X69800304Y-49226483D01*
X69793632Y-49225511D01*
X69751913Y-49205116D01*
X69712241Y-49187599D01*
X69708568Y-49183926D01*
X69708132Y-49183713D01*
X69641286Y-49116867D01*
X69641072Y-49116430D01*
X69637401Y-49112759D01*
X69619888Y-49073097D01*
X69599488Y-49031367D01*
X69598515Y-49024692D01*
X69594650Y-49015938D01*
X69587000Y-48950000D01*
X69587000Y-48150000D01*
X69594650Y-48084062D01*
X69598515Y-48075307D01*
X69599488Y-48068632D01*
X69619893Y-48026892D01*
X69637401Y-47987241D01*
X69641071Y-47983570D01*
X69641286Y-47983132D01*
X69708132Y-47916286D01*
X69708570Y-47916071D01*
X69712241Y-47912401D01*
X69751892Y-47894893D01*
X69793632Y-47874488D01*
X69800307Y-47873515D01*
X69809062Y-47869650D01*
X69875000Y-47862000D01*
X71125000Y-47862000D01*
X71190938Y-47869650D01*
G37*
G36*
X59170686Y-47692811D02*
G01*
X59183014Y-47701048D01*
X59289081Y-47807115D01*
X59390967Y-47909000D01*
X59390969Y-47909003D01*
X59395146Y-47913180D01*
X59403383Y-47925508D01*
X59406276Y-47940050D01*
X59403383Y-47954592D01*
X59395146Y-47966920D01*
X58210742Y-49151324D01*
X58198414Y-49159561D01*
X58183872Y-49162454D01*
X58169330Y-49159561D01*
X58157002Y-49151324D01*
X58021616Y-49015938D01*
X57949048Y-48943371D01*
X57949045Y-48943367D01*
X57944870Y-48939192D01*
X57936633Y-48926864D01*
X57933740Y-48912322D01*
X57936633Y-48897780D01*
X57944870Y-48885452D01*
X58817563Y-48012759D01*
X59125097Y-47705224D01*
X59125100Y-47705221D01*
X59129274Y-47701048D01*
X59141602Y-47692811D01*
X59156144Y-47689918D01*
X59170686Y-47692811D01*
G37*
G36*
X61858398Y-47692811D02*
G01*
X61870726Y-47701048D01*
X63055130Y-48885452D01*
X63063367Y-48897780D01*
X63066260Y-48912322D01*
X63063367Y-48926864D01*
X63055130Y-48939192D01*
X62842998Y-49151324D01*
X62830670Y-49159561D01*
X62816128Y-49162454D01*
X62801586Y-49159561D01*
X62789258Y-49151324D01*
X61604854Y-47966920D01*
X61596617Y-47954592D01*
X61593724Y-47940050D01*
X61596617Y-47925508D01*
X61604854Y-47913180D01*
X61656034Y-47862000D01*
X61812806Y-47705226D01*
X61812812Y-47705221D01*
X61816986Y-47701048D01*
X61829314Y-47692811D01*
X61843856Y-47689918D01*
X61858398Y-47692811D01*
G37*
G36*
X58817132Y-47339258D02*
G01*
X58829460Y-47347495D01*
X58935527Y-47453562D01*
X59037413Y-47555447D01*
X59037415Y-47555450D01*
X59041592Y-47559627D01*
X59049829Y-47571955D01*
X59052722Y-47586497D01*
X59049829Y-47601039D01*
X59041592Y-47613367D01*
X57857188Y-48797771D01*
X57844860Y-48806008D01*
X57830318Y-48808901D01*
X57815776Y-48806008D01*
X57803448Y-48797771D01*
X57697380Y-48691703D01*
X57595494Y-48589818D01*
X57595491Y-48589814D01*
X57591316Y-48585639D01*
X57583079Y-48573311D01*
X57580186Y-48558769D01*
X57583079Y-48544227D01*
X57591316Y-48531899D01*
X58433297Y-47689918D01*
X58771543Y-47351671D01*
X58771546Y-47351668D01*
X58775720Y-47347495D01*
X58788048Y-47339258D01*
X58802590Y-47336365D01*
X58817132Y-47339258D01*
G37*
G36*
X62211952Y-47339258D02*
G01*
X62224280Y-47347495D01*
X63408684Y-48531899D01*
X63416921Y-48544227D01*
X63419814Y-48558769D01*
X63416921Y-48573311D01*
X63408684Y-48585639D01*
X63196552Y-48797771D01*
X63184224Y-48806008D01*
X63169682Y-48808901D01*
X63155140Y-48806008D01*
X63142812Y-48797771D01*
X61958408Y-47613367D01*
X61950171Y-47601039D01*
X61947278Y-47586497D01*
X61950171Y-47571955D01*
X61958408Y-47559627D01*
X62005837Y-47512198D01*
X62166360Y-47351673D01*
X62166366Y-47351668D01*
X62170540Y-47347495D01*
X62182868Y-47339258D01*
X62197410Y-47336365D01*
X62211952Y-47339258D01*
G37*
G36*
X58463579Y-46985705D02*
G01*
X58475907Y-46993942D01*
X58531965Y-47050000D01*
X58683860Y-47201894D01*
X58683862Y-47201897D01*
X58688039Y-47206074D01*
X58696276Y-47218402D01*
X58699169Y-47232944D01*
X58696276Y-47247486D01*
X58688039Y-47259814D01*
X57503635Y-48444218D01*
X57491307Y-48452455D01*
X57476765Y-48455348D01*
X57462223Y-48452455D01*
X57449895Y-48444218D01*
X57293436Y-48287759D01*
X57241941Y-48236265D01*
X57241938Y-48236261D01*
X57237763Y-48232086D01*
X57229526Y-48219758D01*
X57226633Y-48205216D01*
X57229526Y-48190674D01*
X57237763Y-48178346D01*
X58079744Y-47336365D01*
X58417990Y-46998118D01*
X58417993Y-46998115D01*
X58422167Y-46993942D01*
X58434495Y-46985705D01*
X58449037Y-46982812D01*
X58463579Y-46985705D01*
G37*
G36*
X62565505Y-46985705D02*
G01*
X62577833Y-46993942D01*
X63762237Y-48178346D01*
X63770474Y-48190674D01*
X63773367Y-48205216D01*
X63770474Y-48219758D01*
X63762237Y-48232086D01*
X63550105Y-48444218D01*
X63537777Y-48452455D01*
X63523235Y-48455348D01*
X63508693Y-48452455D01*
X63496365Y-48444218D01*
X62311961Y-47259814D01*
X62303724Y-47247486D01*
X62300831Y-47232944D01*
X62303724Y-47218402D01*
X62311961Y-47206074D01*
X62363689Y-47154346D01*
X62519913Y-46998120D01*
X62519919Y-46998115D01*
X62524093Y-46993942D01*
X62536421Y-46985705D01*
X62550963Y-46982812D01*
X62565505Y-46985705D01*
G37*
G36*
X41915938Y-46594650D02*
G01*
X41924692Y-46598515D01*
X41931367Y-46599488D01*
X41973097Y-46619888D01*
X42012759Y-46637401D01*
X42016430Y-46641072D01*
X42016867Y-46641286D01*
X42083713Y-46708132D01*
X42083926Y-46708568D01*
X42087599Y-46712241D01*
X42105116Y-46751913D01*
X42125511Y-46793632D01*
X42126483Y-46800304D01*
X42130350Y-46809062D01*
X42138000Y-46875000D01*
X42138000Y-48125000D01*
X42130350Y-48190938D01*
X42126482Y-48199696D01*
X42125511Y-48206367D01*
X42105120Y-48248076D01*
X42087599Y-48287759D01*
X42083925Y-48291432D01*
X42083713Y-48291867D01*
X42016867Y-48358713D01*
X42016432Y-48358925D01*
X42012759Y-48362599D01*
X41973076Y-48380120D01*
X41931367Y-48400511D01*
X41924696Y-48401482D01*
X41915938Y-48405350D01*
X41850000Y-48413000D01*
X41050000Y-48413000D01*
X40984062Y-48405350D01*
X40975304Y-48401483D01*
X40968632Y-48400511D01*
X40926913Y-48380116D01*
X40887241Y-48362599D01*
X40883568Y-48358926D01*
X40883132Y-48358713D01*
X40816286Y-48291867D01*
X40816072Y-48291430D01*
X40812401Y-48287759D01*
X40794888Y-48248097D01*
X40774488Y-48206367D01*
X40773515Y-48199692D01*
X40769650Y-48190938D01*
X40762000Y-48125000D01*
X40762000Y-46875000D01*
X40769650Y-46809062D01*
X40773515Y-46800307D01*
X40774488Y-46793632D01*
X40794893Y-46751892D01*
X40812401Y-46712241D01*
X40816071Y-46708570D01*
X40816286Y-46708132D01*
X40883132Y-46641286D01*
X40883570Y-46641071D01*
X40887241Y-46637401D01*
X40926892Y-46619893D01*
X40968632Y-46599488D01*
X40975307Y-46598515D01*
X40984062Y-46594650D01*
X41050000Y-46587000D01*
X41850000Y-46587000D01*
X41915938Y-46594650D01*
G37*
G36*
X45015938Y-46594650D02*
G01*
X45024692Y-46598515D01*
X45031367Y-46599488D01*
X45073097Y-46619888D01*
X45112759Y-46637401D01*
X45116430Y-46641072D01*
X45116867Y-46641286D01*
X45183713Y-46708132D01*
X45183926Y-46708568D01*
X45187599Y-46712241D01*
X45205116Y-46751913D01*
X45225511Y-46793632D01*
X45226483Y-46800304D01*
X45230350Y-46809062D01*
X45238000Y-46875000D01*
X45238000Y-48125000D01*
X45230350Y-48190938D01*
X45226482Y-48199696D01*
X45225511Y-48206367D01*
X45205120Y-48248076D01*
X45187599Y-48287759D01*
X45183925Y-48291432D01*
X45183713Y-48291867D01*
X45116867Y-48358713D01*
X45116432Y-48358925D01*
X45112759Y-48362599D01*
X45073076Y-48380120D01*
X45031367Y-48400511D01*
X45024696Y-48401482D01*
X45015938Y-48405350D01*
X44950000Y-48413000D01*
X44150000Y-48413000D01*
X44084062Y-48405350D01*
X44075304Y-48401483D01*
X44068632Y-48400511D01*
X44026913Y-48380116D01*
X43987241Y-48362599D01*
X43983568Y-48358926D01*
X43983132Y-48358713D01*
X43916286Y-48291867D01*
X43916072Y-48291430D01*
X43912401Y-48287759D01*
X43894888Y-48248097D01*
X43874488Y-48206367D01*
X43873515Y-48199692D01*
X43869650Y-48190938D01*
X43862000Y-48125000D01*
X43862000Y-46875000D01*
X43869650Y-46809062D01*
X43873515Y-46800307D01*
X43874488Y-46793632D01*
X43894893Y-46751892D01*
X43912401Y-46712241D01*
X43916071Y-46708570D01*
X43916286Y-46708132D01*
X43983132Y-46641286D01*
X43983570Y-46641071D01*
X43987241Y-46637401D01*
X44026892Y-46619893D01*
X44068632Y-46599488D01*
X44075307Y-46598515D01*
X44084062Y-46594650D01*
X44150000Y-46587000D01*
X44950000Y-46587000D01*
X45015938Y-46594650D01*
G37*
G36*
X47915938Y-46594650D02*
G01*
X47924692Y-46598515D01*
X47931367Y-46599488D01*
X47973097Y-46619888D01*
X48012759Y-46637401D01*
X48016430Y-46641072D01*
X48016867Y-46641286D01*
X48083713Y-46708132D01*
X48083926Y-46708568D01*
X48087599Y-46712241D01*
X48105116Y-46751913D01*
X48125511Y-46793632D01*
X48126483Y-46800304D01*
X48130350Y-46809062D01*
X48138000Y-46875000D01*
X48138000Y-48125000D01*
X48130350Y-48190938D01*
X48126482Y-48199696D01*
X48125511Y-48206367D01*
X48105120Y-48248076D01*
X48087599Y-48287759D01*
X48083925Y-48291432D01*
X48083713Y-48291867D01*
X48016867Y-48358713D01*
X48016432Y-48358925D01*
X48012759Y-48362599D01*
X47973076Y-48380120D01*
X47931367Y-48400511D01*
X47924696Y-48401482D01*
X47915938Y-48405350D01*
X47850000Y-48413000D01*
X47050000Y-48413000D01*
X46984062Y-48405350D01*
X46975304Y-48401483D01*
X46968632Y-48400511D01*
X46926913Y-48380116D01*
X46887241Y-48362599D01*
X46883568Y-48358926D01*
X46883132Y-48358713D01*
X46816286Y-48291867D01*
X46816072Y-48291430D01*
X46812401Y-48287759D01*
X46794888Y-48248097D01*
X46774488Y-48206367D01*
X46773515Y-48199692D01*
X46769650Y-48190938D01*
X46762000Y-48125000D01*
X46762000Y-46875000D01*
X46769650Y-46809062D01*
X46773515Y-46800307D01*
X46774488Y-46793632D01*
X46794893Y-46751892D01*
X46812401Y-46712241D01*
X46816071Y-46708570D01*
X46816286Y-46708132D01*
X46883132Y-46641286D01*
X46883570Y-46641071D01*
X46887241Y-46637401D01*
X46926892Y-46619893D01*
X46968632Y-46599488D01*
X46975307Y-46598515D01*
X46984062Y-46594650D01*
X47050000Y-46587000D01*
X47850000Y-46587000D01*
X47915938Y-46594650D01*
G37*
G36*
X51015938Y-46594650D02*
G01*
X51024692Y-46598515D01*
X51031367Y-46599488D01*
X51073097Y-46619888D01*
X51112759Y-46637401D01*
X51116430Y-46641072D01*
X51116867Y-46641286D01*
X51183713Y-46708132D01*
X51183926Y-46708568D01*
X51187599Y-46712241D01*
X51205116Y-46751913D01*
X51225511Y-46793632D01*
X51226483Y-46800304D01*
X51230350Y-46809062D01*
X51238000Y-46875000D01*
X51238000Y-48125000D01*
X51230350Y-48190938D01*
X51226482Y-48199696D01*
X51225511Y-48206367D01*
X51205120Y-48248076D01*
X51187599Y-48287759D01*
X51183925Y-48291432D01*
X51183713Y-48291867D01*
X51116867Y-48358713D01*
X51116432Y-48358925D01*
X51112759Y-48362599D01*
X51073076Y-48380120D01*
X51031367Y-48400511D01*
X51024696Y-48401482D01*
X51015938Y-48405350D01*
X50950000Y-48413000D01*
X50150000Y-48413000D01*
X50084062Y-48405350D01*
X50075304Y-48401483D01*
X50068632Y-48400511D01*
X50026913Y-48380116D01*
X49987241Y-48362599D01*
X49983568Y-48358926D01*
X49983132Y-48358713D01*
X49916286Y-48291867D01*
X49916072Y-48291430D01*
X49912401Y-48287759D01*
X49894888Y-48248097D01*
X49874488Y-48206367D01*
X49873515Y-48199692D01*
X49869650Y-48190938D01*
X49862000Y-48125000D01*
X49862000Y-46875000D01*
X49869650Y-46809062D01*
X49873515Y-46800307D01*
X49874488Y-46793632D01*
X49894893Y-46751892D01*
X49912401Y-46712241D01*
X49916071Y-46708570D01*
X49916286Y-46708132D01*
X49983132Y-46641286D01*
X49983570Y-46641071D01*
X49987241Y-46637401D01*
X50026892Y-46619893D01*
X50068632Y-46599488D01*
X50075307Y-46598515D01*
X50084062Y-46594650D01*
X50150000Y-46587000D01*
X50950000Y-46587000D01*
X51015938Y-46594650D01*
G37*
G36*
X74215938Y-46869650D02*
G01*
X74224692Y-46873515D01*
X74231367Y-46874488D01*
X74273097Y-46894888D01*
X74312759Y-46912401D01*
X74316430Y-46916072D01*
X74316867Y-46916286D01*
X74383713Y-46983132D01*
X74383926Y-46983568D01*
X74387599Y-46987241D01*
X74405116Y-47026913D01*
X74425511Y-47068632D01*
X74426483Y-47075304D01*
X74430350Y-47084062D01*
X74438000Y-47150000D01*
X74438000Y-47975000D01*
X74430350Y-48040938D01*
X74426482Y-48049696D01*
X74425511Y-48056367D01*
X74405120Y-48098076D01*
X74387599Y-48137759D01*
X74383925Y-48141432D01*
X74383713Y-48141867D01*
X74316867Y-48208713D01*
X74316432Y-48208925D01*
X74312759Y-48212599D01*
X74273076Y-48230120D01*
X74231367Y-48250511D01*
X74224696Y-48251482D01*
X74215938Y-48255350D01*
X74150000Y-48263000D01*
X72850000Y-48263000D01*
X72784062Y-48255350D01*
X72775304Y-48251483D01*
X72768632Y-48250511D01*
X72726913Y-48230116D01*
X72687241Y-48212599D01*
X72683568Y-48208926D01*
X72683132Y-48208713D01*
X72616286Y-48141867D01*
X72616072Y-48141430D01*
X72612401Y-48137759D01*
X72594888Y-48098097D01*
X72574488Y-48056367D01*
X72573515Y-48049692D01*
X72569650Y-48040938D01*
X72562000Y-47975000D01*
X72562000Y-47150000D01*
X72569650Y-47084062D01*
X72573515Y-47075307D01*
X72574488Y-47068632D01*
X72594893Y-47026892D01*
X72612401Y-46987241D01*
X72616071Y-46983570D01*
X72616286Y-46983132D01*
X72683132Y-46916286D01*
X72683570Y-46916071D01*
X72687241Y-46912401D01*
X72726892Y-46894893D01*
X72768632Y-46874488D01*
X72775307Y-46873515D01*
X72784062Y-46869650D01*
X72850000Y-46862000D01*
X74150000Y-46862000D01*
X74215938Y-46869650D01*
G37*
G36*
X38190938Y-46769650D02*
G01*
X38199692Y-46773515D01*
X38206367Y-46774488D01*
X38248097Y-46794888D01*
X38287759Y-46812401D01*
X38291430Y-46816072D01*
X38291867Y-46816286D01*
X38358713Y-46883132D01*
X38358926Y-46883568D01*
X38362599Y-46887241D01*
X38380116Y-46926913D01*
X38400511Y-46968632D01*
X38401483Y-46975304D01*
X38405350Y-46984062D01*
X38413000Y-47050000D01*
X38413000Y-47850000D01*
X38405350Y-47915938D01*
X38401482Y-47924696D01*
X38400511Y-47931367D01*
X38380120Y-47973076D01*
X38362599Y-48012759D01*
X38358925Y-48016432D01*
X38358713Y-48016867D01*
X38291867Y-48083713D01*
X38291432Y-48083925D01*
X38287759Y-48087599D01*
X38248076Y-48105120D01*
X38206367Y-48125511D01*
X38199696Y-48126482D01*
X38190938Y-48130350D01*
X38125000Y-48138000D01*
X36875000Y-48138000D01*
X36809062Y-48130350D01*
X36800304Y-48126483D01*
X36793632Y-48125511D01*
X36751913Y-48105116D01*
X36712241Y-48087599D01*
X36708568Y-48083926D01*
X36708132Y-48083713D01*
X36641286Y-48016867D01*
X36641072Y-48016430D01*
X36637401Y-48012759D01*
X36619888Y-47973097D01*
X36599488Y-47931367D01*
X36598515Y-47924692D01*
X36594650Y-47915938D01*
X36587000Y-47850000D01*
X36587000Y-47050000D01*
X36594650Y-46984062D01*
X36598515Y-46975307D01*
X36599488Y-46968632D01*
X36619893Y-46926892D01*
X36637401Y-46887241D01*
X36641071Y-46883570D01*
X36641286Y-46883132D01*
X36708132Y-46816286D01*
X36708570Y-46816071D01*
X36712241Y-46812401D01*
X36751892Y-46794893D01*
X36793632Y-46774488D01*
X36800307Y-46773515D01*
X36809062Y-46769650D01*
X36875000Y-46762000D01*
X38125000Y-46762000D01*
X38190938Y-46769650D01*
G37*
G36*
X58110025Y-46632151D02*
G01*
X58122353Y-46640388D01*
X58190097Y-46708132D01*
X58330306Y-46848340D01*
X58330308Y-46848343D01*
X58334485Y-46852520D01*
X58342722Y-46864848D01*
X58345615Y-46879390D01*
X58342722Y-46893932D01*
X58334485Y-46906260D01*
X57150081Y-48090664D01*
X57137753Y-48098901D01*
X57123211Y-48101794D01*
X57108669Y-48098901D01*
X57096341Y-48090664D01*
X56945727Y-47940050D01*
X56888387Y-47882711D01*
X56888384Y-47882707D01*
X56884209Y-47878532D01*
X56875972Y-47866204D01*
X56873079Y-47851662D01*
X56875972Y-47837120D01*
X56884209Y-47824792D01*
X57740369Y-46968632D01*
X58064436Y-46644564D01*
X58064439Y-46644561D01*
X58068613Y-46640388D01*
X58080941Y-46632151D01*
X58095483Y-46629258D01*
X58110025Y-46632151D01*
G37*
G36*
X62919059Y-46632151D02*
G01*
X62931387Y-46640388D01*
X64115791Y-47824792D01*
X64124028Y-47837120D01*
X64126921Y-47851662D01*
X64124028Y-47866204D01*
X64115791Y-47878532D01*
X63903659Y-48090664D01*
X63891331Y-48098901D01*
X63876789Y-48101794D01*
X63862247Y-48098901D01*
X63849919Y-48090664D01*
X62665515Y-46906260D01*
X62657278Y-46893932D01*
X62654385Y-46879390D01*
X62657278Y-46864848D01*
X62665515Y-46852520D01*
X62712944Y-46805091D01*
X62873467Y-46644566D01*
X62873473Y-46644561D01*
X62877647Y-46640388D01*
X62889975Y-46632151D01*
X62904517Y-46629258D01*
X62919059Y-46632151D01*
G37*
G36*
X57756472Y-46278598D02*
G01*
X57768800Y-46286835D01*
X57847170Y-46365205D01*
X57976753Y-46494787D01*
X57976755Y-46494790D01*
X57980932Y-46498967D01*
X57989169Y-46511295D01*
X57992062Y-46525837D01*
X57989169Y-46540379D01*
X57980932Y-46552707D01*
X56796528Y-47737111D01*
X56784200Y-47745348D01*
X56769658Y-47748241D01*
X56755116Y-47745348D01*
X56742788Y-47737111D01*
X56592174Y-47586497D01*
X56534834Y-47529158D01*
X56534831Y-47529154D01*
X56530656Y-47524979D01*
X56522419Y-47512651D01*
X56519526Y-47498109D01*
X56522419Y-47483567D01*
X56530656Y-47471239D01*
X57414895Y-46587000D01*
X57710883Y-46291011D01*
X57710886Y-46291008D01*
X57715060Y-46286835D01*
X57727388Y-46278598D01*
X57741930Y-46275705D01*
X57756472Y-46278598D01*
G37*
G36*
X63272612Y-46278598D02*
G01*
X63284940Y-46286835D01*
X64469344Y-47471239D01*
X64477581Y-47483567D01*
X64480474Y-47498109D01*
X64477581Y-47512651D01*
X64469344Y-47524979D01*
X64257212Y-47737111D01*
X64244884Y-47745348D01*
X64230342Y-47748241D01*
X64215800Y-47745348D01*
X64203472Y-47737111D01*
X63019068Y-46552707D01*
X63010831Y-46540379D01*
X63007938Y-46525837D01*
X63010831Y-46511295D01*
X63019068Y-46498967D01*
X63066497Y-46451538D01*
X63227020Y-46291013D01*
X63227026Y-46291008D01*
X63231200Y-46286835D01*
X63243528Y-46278598D01*
X63258070Y-46275705D01*
X63272612Y-46278598D01*
G37*
G36*
X57402919Y-45925044D02*
G01*
X57415247Y-45933281D01*
X57494725Y-46012759D01*
X57623200Y-46141233D01*
X57623202Y-46141236D01*
X57627379Y-46145413D01*
X57635616Y-46157741D01*
X57638509Y-46172283D01*
X57635616Y-46186825D01*
X57627379Y-46199153D01*
X56442975Y-47383557D01*
X56430647Y-47391794D01*
X56416105Y-47394687D01*
X56401563Y-47391794D01*
X56389235Y-47383557D01*
X56238622Y-47232944D01*
X56181281Y-47175604D01*
X56181278Y-47175600D01*
X56177103Y-47171425D01*
X56168866Y-47159097D01*
X56165973Y-47144555D01*
X56168866Y-47130013D01*
X56177103Y-47117685D01*
X57055842Y-46238946D01*
X57357330Y-45937457D01*
X57357333Y-45937454D01*
X57361507Y-45933281D01*
X57373835Y-45925044D01*
X57388377Y-45922151D01*
X57402919Y-45925044D01*
G37*
G36*
X63626165Y-45925044D02*
G01*
X63638493Y-45933281D01*
X64822897Y-47117685D01*
X64831134Y-47130013D01*
X64834027Y-47144555D01*
X64831134Y-47159097D01*
X64822897Y-47171425D01*
X64610765Y-47383557D01*
X64598437Y-47391794D01*
X64583895Y-47394687D01*
X64569353Y-47391794D01*
X64557025Y-47383557D01*
X63372621Y-46199153D01*
X63364384Y-46186825D01*
X63361491Y-46172283D01*
X63364384Y-46157741D01*
X63372621Y-46145413D01*
X63423523Y-46094511D01*
X63580573Y-45937459D01*
X63580579Y-45937454D01*
X63584753Y-45933281D01*
X63597081Y-45925044D01*
X63611623Y-45922151D01*
X63626165Y-45925044D01*
G37*
G36*
X57049365Y-45571491D02*
G01*
X57061693Y-45579728D01*
X57167760Y-45685795D01*
X57269646Y-45787680D01*
X57269648Y-45787683D01*
X57273825Y-45791860D01*
X57282062Y-45804188D01*
X57284955Y-45818730D01*
X57282062Y-45833272D01*
X57273825Y-45845600D01*
X56089421Y-47030004D01*
X56077093Y-47038241D01*
X56062551Y-47041134D01*
X56048009Y-47038241D01*
X56035681Y-47030004D01*
X55880165Y-46874488D01*
X55827727Y-46822051D01*
X55827724Y-46822047D01*
X55823549Y-46817872D01*
X55815312Y-46805544D01*
X55812419Y-46791002D01*
X55815312Y-46776460D01*
X55823549Y-46764132D01*
X56671743Y-45915938D01*
X57003776Y-45583904D01*
X57003779Y-45583901D01*
X57007953Y-45579728D01*
X57020281Y-45571491D01*
X57034823Y-45568598D01*
X57049365Y-45571491D01*
G37*
G36*
X63979719Y-45571491D02*
G01*
X63992047Y-45579728D01*
X65176451Y-46764132D01*
X65184688Y-46776460D01*
X65187581Y-46791002D01*
X65184688Y-46805544D01*
X65176451Y-46817872D01*
X64964319Y-47030004D01*
X64951991Y-47038241D01*
X64937449Y-47041134D01*
X64922907Y-47038241D01*
X64910579Y-47030004D01*
X63726175Y-45845600D01*
X63717938Y-45833272D01*
X63715045Y-45818730D01*
X63717938Y-45804188D01*
X63726175Y-45791860D01*
X63773604Y-45744431D01*
X63934127Y-45583906D01*
X63934133Y-45583901D01*
X63938307Y-45579728D01*
X63950635Y-45571491D01*
X63965177Y-45568598D01*
X63979719Y-45571491D01*
G37*
G36*
X56695812Y-45217938D02*
G01*
X56708140Y-45226175D01*
X56814207Y-45332242D01*
X56916093Y-45434127D01*
X56916095Y-45434130D01*
X56920272Y-45438307D01*
X56928509Y-45450635D01*
X56931402Y-45465177D01*
X56928509Y-45479719D01*
X56920272Y-45492047D01*
X55735868Y-46676451D01*
X55723540Y-46684688D01*
X55708998Y-46687581D01*
X55694456Y-46684688D01*
X55682128Y-46676451D01*
X55531514Y-46525837D01*
X55474174Y-46468498D01*
X55474171Y-46468494D01*
X55469996Y-46464319D01*
X55461759Y-46451991D01*
X55458866Y-46437449D01*
X55461759Y-46422907D01*
X55469996Y-46410579D01*
X56311977Y-45568598D01*
X56650223Y-45230351D01*
X56650226Y-45230348D01*
X56654400Y-45226175D01*
X56666728Y-45217938D01*
X56681270Y-45215045D01*
X56695812Y-45217938D01*
G37*
G36*
X64333272Y-45217938D02*
G01*
X64345600Y-45226175D01*
X65530004Y-46410579D01*
X65538241Y-46422907D01*
X65541134Y-46437449D01*
X65538241Y-46451991D01*
X65530004Y-46464319D01*
X65317872Y-46676451D01*
X65305544Y-46684688D01*
X65291002Y-46687581D01*
X65276460Y-46684688D01*
X65264132Y-46676451D01*
X64079728Y-45492047D01*
X64071491Y-45479719D01*
X64068598Y-45465177D01*
X64071491Y-45450635D01*
X64079728Y-45438307D01*
X64127157Y-45390878D01*
X64287680Y-45230353D01*
X64287686Y-45230348D01*
X64291860Y-45226175D01*
X64304188Y-45217938D01*
X64318730Y-45215045D01*
X64333272Y-45217938D01*
G37*
G36*
X81015661Y-44393443D02*
G01*
X81185494Y-44448625D01*
X81344603Y-44529695D01*
X81489072Y-44634658D01*
X81615342Y-44760928D01*
X81720305Y-44905397D01*
X81801375Y-45064506D01*
X81856557Y-45234339D01*
X81884492Y-45410714D01*
X81884492Y-45589286D01*
X81856557Y-45765661D01*
X81801375Y-45935494D01*
X81720305Y-46094603D01*
X81615342Y-46239072D01*
X81489072Y-46365342D01*
X81344603Y-46470305D01*
X81185494Y-46551375D01*
X81015661Y-46606557D01*
X80839286Y-46634492D01*
X80660714Y-46634492D01*
X80484339Y-46606557D01*
X80314506Y-46551375D01*
X80155397Y-46470305D01*
X80010928Y-46365342D01*
X79884658Y-46239072D01*
X79779695Y-46094603D01*
X79698625Y-45935494D01*
X79643443Y-45765661D01*
X79615508Y-45589286D01*
X79615508Y-45410714D01*
X79643443Y-45234339D01*
X79698625Y-45064506D01*
X79779695Y-44905397D01*
X79884658Y-44760928D01*
X80010928Y-44634658D01*
X80155397Y-44529695D01*
X80314506Y-44448625D01*
X80484339Y-44393443D01*
X80660714Y-44365508D01*
X80839286Y-44365508D01*
X81015661Y-44393443D01*
G37*
G36*
X56342259Y-44864384D02*
G01*
X56354587Y-44872621D01*
X56413333Y-44931367D01*
X56562540Y-45080573D01*
X56562542Y-45080576D01*
X56566719Y-45084753D01*
X56574956Y-45097081D01*
X56577849Y-45111623D01*
X56574956Y-45126165D01*
X56566719Y-45138493D01*
X55382315Y-46322897D01*
X55369987Y-46331134D01*
X55355445Y-46334027D01*
X55340903Y-46331134D01*
X55328575Y-46322897D01*
X55177961Y-46172283D01*
X55120621Y-46114944D01*
X55120618Y-46114940D01*
X55116443Y-46110765D01*
X55108206Y-46098437D01*
X55105313Y-46083895D01*
X55108206Y-46069353D01*
X55116443Y-46057025D01*
X55958423Y-45215045D01*
X56296670Y-44876797D01*
X56296673Y-44876794D01*
X56300847Y-44872621D01*
X56313175Y-44864384D01*
X56327717Y-44861491D01*
X56342259Y-44864384D01*
G37*
G36*
X64686825Y-44864384D02*
G01*
X64699153Y-44872621D01*
X65883557Y-46057025D01*
X65891794Y-46069353D01*
X65894687Y-46083895D01*
X65891794Y-46098437D01*
X65883557Y-46110765D01*
X65671425Y-46322897D01*
X65659097Y-46331134D01*
X65644555Y-46334027D01*
X65630013Y-46331134D01*
X65617685Y-46322897D01*
X64433281Y-45138493D01*
X64425044Y-45126165D01*
X64422151Y-45111623D01*
X64425044Y-45097081D01*
X64433281Y-45084753D01*
X64480710Y-45037324D01*
X64641233Y-44876799D01*
X64641239Y-44876794D01*
X64645413Y-44872621D01*
X64657741Y-44864384D01*
X64672283Y-44861491D01*
X64686825Y-44864384D01*
G37*
G36*
X71190938Y-44769650D02*
G01*
X71199692Y-44773515D01*
X71206367Y-44774488D01*
X71248097Y-44794888D01*
X71287759Y-44812401D01*
X71291430Y-44816072D01*
X71291867Y-44816286D01*
X71358713Y-44883132D01*
X71358926Y-44883568D01*
X71362599Y-44887241D01*
X71380116Y-44926913D01*
X71400511Y-44968632D01*
X71401483Y-44975304D01*
X71405350Y-44984062D01*
X71413000Y-45050000D01*
X71413000Y-45850000D01*
X71405350Y-45915938D01*
X71401482Y-45924696D01*
X71400511Y-45931367D01*
X71380120Y-45973076D01*
X71362599Y-46012759D01*
X71358925Y-46016432D01*
X71358713Y-46016867D01*
X71291867Y-46083713D01*
X71291432Y-46083925D01*
X71287759Y-46087599D01*
X71248076Y-46105120D01*
X71206367Y-46125511D01*
X71199696Y-46126482D01*
X71190938Y-46130350D01*
X71125000Y-46138000D01*
X69875000Y-46138000D01*
X69809062Y-46130350D01*
X69800304Y-46126483D01*
X69793632Y-46125511D01*
X69751913Y-46105116D01*
X69712241Y-46087599D01*
X69708568Y-46083926D01*
X69708132Y-46083713D01*
X69641286Y-46016867D01*
X69641072Y-46016430D01*
X69637401Y-46012759D01*
X69619888Y-45973097D01*
X69599488Y-45931367D01*
X69598515Y-45924692D01*
X69594650Y-45915938D01*
X69587000Y-45850000D01*
X69587000Y-45050000D01*
X69594650Y-44984062D01*
X69598515Y-44975307D01*
X69599488Y-44968632D01*
X69619893Y-44926892D01*
X69637401Y-44887241D01*
X69641071Y-44883570D01*
X69641286Y-44883132D01*
X69708132Y-44816286D01*
X69708570Y-44816071D01*
X69712241Y-44812401D01*
X69751892Y-44794893D01*
X69793632Y-44774488D01*
X69800307Y-44773515D01*
X69809062Y-44769650D01*
X69875000Y-44762000D01*
X71125000Y-44762000D01*
X71190938Y-44769650D01*
G37*
G36*
X55988705Y-44510831D02*
G01*
X56001033Y-44519068D01*
X56076055Y-44594090D01*
X56208986Y-44727020D01*
X56208988Y-44727023D01*
X56213165Y-44731200D01*
X56221402Y-44743528D01*
X56224295Y-44758070D01*
X56221402Y-44772612D01*
X56213165Y-44784940D01*
X55028761Y-45969344D01*
X55016433Y-45977581D01*
X55001891Y-45980474D01*
X54987349Y-45977581D01*
X54975021Y-45969344D01*
X54824407Y-45818730D01*
X54767067Y-45761391D01*
X54767064Y-45761387D01*
X54762889Y-45757212D01*
X54754652Y-45744884D01*
X54751759Y-45730342D01*
X54754652Y-45715800D01*
X54762889Y-45703472D01*
X55620709Y-44845652D01*
X55943116Y-44523244D01*
X55943119Y-44523241D01*
X55947293Y-44519068D01*
X55959621Y-44510831D01*
X55974163Y-44507938D01*
X55988705Y-44510831D01*
G37*
G36*
X65040379Y-44510831D02*
G01*
X65052707Y-44519068D01*
X66237111Y-45703472D01*
X66245348Y-45715800D01*
X66248241Y-45730342D01*
X66245348Y-45744884D01*
X66237111Y-45757212D01*
X66024979Y-45969344D01*
X66012651Y-45977581D01*
X65998109Y-45980474D01*
X65983567Y-45977581D01*
X65971239Y-45969344D01*
X64786835Y-44784940D01*
X64778598Y-44772612D01*
X64775705Y-44758070D01*
X64778598Y-44743528D01*
X64786835Y-44731200D01*
X64834264Y-44683771D01*
X64994787Y-44523246D01*
X64994793Y-44523241D01*
X64998967Y-44519068D01*
X65011295Y-44510831D01*
X65025837Y-44507938D01*
X65040379Y-44510831D01*
G37*
G36*
X55635152Y-44157278D02*
G01*
X55647480Y-44165515D01*
X55710021Y-44228056D01*
X55855433Y-44373467D01*
X55855435Y-44373470D01*
X55859612Y-44377647D01*
X55867849Y-44389975D01*
X55870742Y-44404517D01*
X55867849Y-44419059D01*
X55859612Y-44431387D01*
X54675208Y-45615791D01*
X54662880Y-45624028D01*
X54648338Y-45626921D01*
X54633796Y-45624028D01*
X54621468Y-45615791D01*
X54470854Y-45465177D01*
X54413514Y-45407838D01*
X54413511Y-45407834D01*
X54409336Y-45403659D01*
X54401099Y-45391331D01*
X54398206Y-45376789D01*
X54401099Y-45362247D01*
X54409336Y-45349919D01*
X55251317Y-44507938D01*
X55589563Y-44169691D01*
X55589566Y-44169688D01*
X55593740Y-44165515D01*
X55606068Y-44157278D01*
X55620610Y-44154385D01*
X55635152Y-44157278D01*
G37*
G36*
X65393932Y-44157278D02*
G01*
X65406260Y-44165515D01*
X66590664Y-45349919D01*
X66598901Y-45362247D01*
X66601794Y-45376789D01*
X66598901Y-45391331D01*
X66590664Y-45403659D01*
X66378532Y-45615791D01*
X66366204Y-45624028D01*
X66351662Y-45626921D01*
X66337120Y-45624028D01*
X66324792Y-45615791D01*
X65140388Y-44431387D01*
X65132151Y-44419059D01*
X65129258Y-44404517D01*
X65132151Y-44389975D01*
X65140388Y-44377647D01*
X65187818Y-44330217D01*
X65348340Y-44169693D01*
X65348346Y-44169688D01*
X65352520Y-44165515D01*
X65364848Y-44157278D01*
X65379390Y-44154385D01*
X65393932Y-44157278D01*
G37*
G36*
X55281598Y-43803724D02*
G01*
X55293926Y-43811961D01*
X55399993Y-43918028D01*
X55501879Y-44019913D01*
X55501881Y-44019916D01*
X55506058Y-44024093D01*
X55514295Y-44036421D01*
X55517188Y-44050963D01*
X55514295Y-44065505D01*
X55506058Y-44077833D01*
X54321654Y-45262237D01*
X54309326Y-45270474D01*
X54294784Y-45273367D01*
X54280242Y-45270474D01*
X54267914Y-45262237D01*
X54117300Y-45111623D01*
X54059960Y-45054284D01*
X54059957Y-45054280D01*
X54055782Y-45050105D01*
X54047545Y-45037777D01*
X54044652Y-45023235D01*
X54047545Y-45008693D01*
X54055782Y-44996365D01*
X54940147Y-44112000D01*
X55236009Y-43816137D01*
X55236012Y-43816134D01*
X55240186Y-43811961D01*
X55252514Y-43803724D01*
X55267056Y-43800831D01*
X55281598Y-43803724D01*
G37*
G36*
X65747486Y-43803724D02*
G01*
X65759814Y-43811961D01*
X66944218Y-44996365D01*
X66952455Y-45008693D01*
X66955348Y-45023235D01*
X66952455Y-45037777D01*
X66944218Y-45050105D01*
X66732086Y-45262237D01*
X66719758Y-45270474D01*
X66705216Y-45273367D01*
X66690674Y-45270474D01*
X66678346Y-45262237D01*
X65493942Y-44077833D01*
X65485705Y-44065505D01*
X65482812Y-44050963D01*
X65485705Y-44036421D01*
X65493942Y-44024093D01*
X65541371Y-43976664D01*
X65701894Y-43816139D01*
X65701900Y-43816134D01*
X65706074Y-43811961D01*
X65718402Y-43803724D01*
X65732944Y-43800831D01*
X65747486Y-43803724D01*
G37*
G36*
X74215938Y-43744650D02*
G01*
X74224692Y-43748515D01*
X74231367Y-43749488D01*
X74273097Y-43769888D01*
X74312759Y-43787401D01*
X74316430Y-43791072D01*
X74316867Y-43791286D01*
X74383713Y-43858132D01*
X74383926Y-43858568D01*
X74387599Y-43862241D01*
X74405116Y-43901913D01*
X74425511Y-43943632D01*
X74426483Y-43950304D01*
X74430350Y-43959062D01*
X74438000Y-44025000D01*
X74438000Y-44850000D01*
X74430350Y-44915938D01*
X74426482Y-44924696D01*
X74425511Y-44931367D01*
X74405120Y-44973076D01*
X74387599Y-45012759D01*
X74383925Y-45016432D01*
X74383713Y-45016867D01*
X74316867Y-45083713D01*
X74316432Y-45083925D01*
X74312759Y-45087599D01*
X74273076Y-45105120D01*
X74231367Y-45125511D01*
X74224696Y-45126482D01*
X74215938Y-45130350D01*
X74150000Y-45138000D01*
X72850000Y-45138000D01*
X72784062Y-45130350D01*
X72775304Y-45126483D01*
X72768632Y-45125511D01*
X72726913Y-45105116D01*
X72687241Y-45087599D01*
X72683568Y-45083926D01*
X72683132Y-45083713D01*
X72616286Y-45016867D01*
X72616072Y-45016430D01*
X72612401Y-45012759D01*
X72594888Y-44973097D01*
X72574488Y-44931367D01*
X72573515Y-44924692D01*
X72569650Y-44915938D01*
X72562000Y-44850000D01*
X72562000Y-44025000D01*
X72569650Y-43959062D01*
X72573515Y-43950307D01*
X72574488Y-43943632D01*
X72594893Y-43901892D01*
X72612401Y-43862241D01*
X72616071Y-43858570D01*
X72616286Y-43858132D01*
X72683132Y-43791286D01*
X72683570Y-43791071D01*
X72687241Y-43787401D01*
X72726892Y-43769893D01*
X72768632Y-43749488D01*
X72775307Y-43748515D01*
X72784062Y-43744650D01*
X72850000Y-43737000D01*
X74150000Y-43737000D01*
X74215938Y-43744650D01*
G37*
G36*
X54928045Y-43450171D02*
G01*
X54940373Y-43458408D01*
X55046440Y-43564475D01*
X55148326Y-43666360D01*
X55148328Y-43666363D01*
X55152505Y-43670540D01*
X55160742Y-43682868D01*
X55163635Y-43697410D01*
X55160742Y-43711952D01*
X55152505Y-43724280D01*
X53968101Y-44908684D01*
X53955773Y-44916921D01*
X53941231Y-44919814D01*
X53926689Y-44916921D01*
X53914361Y-44908684D01*
X53763747Y-44758070D01*
X53706407Y-44700731D01*
X53706404Y-44700727D01*
X53702229Y-44696552D01*
X53693992Y-44684224D01*
X53691099Y-44669682D01*
X53693992Y-44655140D01*
X53702229Y-44642812D01*
X54562937Y-43782104D01*
X54882456Y-43462584D01*
X54882459Y-43462581D01*
X54886633Y-43458408D01*
X54898961Y-43450171D01*
X54913503Y-43447278D01*
X54928045Y-43450171D01*
G37*
G36*
X66101039Y-43450171D02*
G01*
X66113367Y-43458408D01*
X67297771Y-44642812D01*
X67306008Y-44655140D01*
X67308901Y-44669682D01*
X67306008Y-44684224D01*
X67297771Y-44696552D01*
X67085639Y-44908684D01*
X67073311Y-44916921D01*
X67058769Y-44919814D01*
X67044227Y-44916921D01*
X67031899Y-44908684D01*
X65847495Y-43724280D01*
X65839258Y-43711952D01*
X65836365Y-43697410D01*
X65839258Y-43682868D01*
X65847495Y-43670540D01*
X65873945Y-43644090D01*
X66055447Y-43462586D01*
X66055453Y-43462581D01*
X66059627Y-43458408D01*
X66071955Y-43450171D01*
X66086497Y-43447278D01*
X66101039Y-43450171D01*
G37*
G36*
X47659444Y-44126311D02*
G01*
X47720436Y-44167064D01*
X47761189Y-44228056D01*
X47775500Y-44300000D01*
X47775500Y-44600000D01*
X47761189Y-44671944D01*
X47720436Y-44732936D01*
X47659444Y-44773689D01*
X47587500Y-44788000D01*
X46412500Y-44788000D01*
X46340556Y-44773689D01*
X46279564Y-44732936D01*
X46238811Y-44671944D01*
X46224500Y-44600000D01*
X46224500Y-44300000D01*
X46238811Y-44228056D01*
X46279564Y-44167064D01*
X46340556Y-44126311D01*
X46412500Y-44112000D01*
X47587500Y-44112000D01*
X47659444Y-44126311D01*
G37*
G36*
X54574492Y-43096617D02*
G01*
X54586820Y-43104854D01*
X54643966Y-43162000D01*
X54794773Y-43312806D01*
X54794775Y-43312809D01*
X54798952Y-43316986D01*
X54807189Y-43329314D01*
X54810082Y-43343856D01*
X54807189Y-43358398D01*
X54798952Y-43370726D01*
X53614548Y-44555130D01*
X53602220Y-44563367D01*
X53587678Y-44566260D01*
X53573136Y-44563367D01*
X53560808Y-44555130D01*
X53410195Y-44404517D01*
X53352854Y-44347177D01*
X53352851Y-44347173D01*
X53348676Y-44342998D01*
X53340439Y-44330670D01*
X53337546Y-44316128D01*
X53340439Y-44301586D01*
X53348676Y-44289258D01*
X54190656Y-43447278D01*
X54528903Y-43109030D01*
X54528906Y-43109027D01*
X54533080Y-43104854D01*
X54545408Y-43096617D01*
X54559950Y-43093724D01*
X54574492Y-43096617D01*
G37*
G36*
X66454592Y-43096617D02*
G01*
X66466920Y-43104854D01*
X67651324Y-44289258D01*
X67659561Y-44301586D01*
X67662454Y-44316128D01*
X67659561Y-44330670D01*
X67651324Y-44342998D01*
X67439192Y-44555130D01*
X67426864Y-44563367D01*
X67412322Y-44566260D01*
X67397780Y-44563367D01*
X67385452Y-44555130D01*
X66201048Y-43370726D01*
X66192811Y-43358398D01*
X66189918Y-43343856D01*
X66192811Y-43329314D01*
X66201048Y-43316986D01*
X66239978Y-43278056D01*
X66409000Y-43109032D01*
X66409006Y-43109027D01*
X66413180Y-43104854D01*
X66425508Y-43096617D01*
X66440050Y-43093724D01*
X66454592Y-43096617D01*
G37*
G36*
X54220938Y-42743064D02*
G01*
X54233266Y-42751301D01*
X54314069Y-42832104D01*
X54441219Y-42959253D01*
X54441221Y-42959256D01*
X54445398Y-42963433D01*
X54453635Y-42975761D01*
X54456528Y-42990303D01*
X54453635Y-43004845D01*
X54445398Y-43017173D01*
X53260994Y-44201577D01*
X53248666Y-44209814D01*
X53234124Y-44212707D01*
X53219582Y-44209814D01*
X53207254Y-44201577D01*
X53056640Y-44050963D01*
X52999300Y-43993624D01*
X52999297Y-43993620D01*
X52995122Y-43989445D01*
X52986885Y-43977117D01*
X52983992Y-43962575D01*
X52986885Y-43948033D01*
X52995122Y-43935705D01*
X53837103Y-43093724D01*
X54175349Y-42755477D01*
X54175352Y-42755474D01*
X54179526Y-42751301D01*
X54191854Y-42743064D01*
X54206396Y-42740171D01*
X54220938Y-42743064D01*
G37*
G36*
X66808146Y-42743064D02*
G01*
X66820474Y-42751301D01*
X68004878Y-43935705D01*
X68013115Y-43948033D01*
X68016008Y-43962575D01*
X68013115Y-43977117D01*
X68004878Y-43989445D01*
X67792746Y-44201577D01*
X67780418Y-44209814D01*
X67765876Y-44212707D01*
X67751334Y-44209814D01*
X67739006Y-44201577D01*
X66554602Y-43017173D01*
X66546365Y-43004845D01*
X66543472Y-42990303D01*
X66546365Y-42975761D01*
X66554602Y-42963433D01*
X66558784Y-42959251D01*
X66762554Y-42755479D01*
X66762560Y-42755474D01*
X66766734Y-42751301D01*
X66779062Y-42743064D01*
X66793604Y-42740171D01*
X66808146Y-42743064D01*
G37*
G36*
X45784444Y-43176311D02*
G01*
X45845436Y-43217064D01*
X45886189Y-43278056D01*
X45900500Y-43350000D01*
X45900500Y-43650000D01*
X45886189Y-43721944D01*
X45845436Y-43782936D01*
X45784444Y-43823689D01*
X45712500Y-43838000D01*
X44537500Y-43838000D01*
X44465556Y-43823689D01*
X44404564Y-43782936D01*
X44363811Y-43721944D01*
X44349500Y-43650000D01*
X44349500Y-43350000D01*
X44363811Y-43278056D01*
X44404564Y-43217064D01*
X44465556Y-43176311D01*
X44537500Y-43162000D01*
X45712500Y-43162000D01*
X45784444Y-43176311D01*
G37*
G36*
X47659444Y-42226311D02*
G01*
X47720436Y-42267064D01*
X47761189Y-42328056D01*
X47775500Y-42400000D01*
X47775500Y-42700000D01*
X47761189Y-42771944D01*
X47720436Y-42832936D01*
X47659444Y-42873689D01*
X47587500Y-42888000D01*
X46412500Y-42888000D01*
X46340556Y-42873689D01*
X46279564Y-42832936D01*
X46238811Y-42771944D01*
X46224500Y-42700000D01*
X46224500Y-42400000D01*
X46238811Y-42328056D01*
X46279564Y-42267064D01*
X46340556Y-42226311D01*
X46412500Y-42212000D01*
X47587500Y-42212000D01*
X47659444Y-42226311D01*
G37*
G36*
X74215938Y-41369650D02*
G01*
X74224692Y-41373515D01*
X74231367Y-41374488D01*
X74273097Y-41394888D01*
X74312759Y-41412401D01*
X74316430Y-41416072D01*
X74316867Y-41416286D01*
X74383713Y-41483132D01*
X74383926Y-41483568D01*
X74387599Y-41487241D01*
X74405116Y-41526913D01*
X74425511Y-41568632D01*
X74426483Y-41575304D01*
X74430350Y-41584062D01*
X74438000Y-41650000D01*
X74438000Y-42475000D01*
X74430350Y-42540938D01*
X74426482Y-42549696D01*
X74425511Y-42556367D01*
X74405120Y-42598076D01*
X74387599Y-42637759D01*
X74383925Y-42641432D01*
X74383713Y-42641867D01*
X74316867Y-42708713D01*
X74316432Y-42708925D01*
X74312759Y-42712599D01*
X74273076Y-42730120D01*
X74231367Y-42750511D01*
X74224696Y-42751482D01*
X74215938Y-42755350D01*
X74150000Y-42763000D01*
X72850000Y-42763000D01*
X72784062Y-42755350D01*
X72775304Y-42751483D01*
X72768632Y-42750511D01*
X72726913Y-42730116D01*
X72687241Y-42712599D01*
X72683568Y-42708926D01*
X72683132Y-42708713D01*
X72616286Y-42641867D01*
X72616072Y-42641430D01*
X72612401Y-42637759D01*
X72594888Y-42598097D01*
X72574488Y-42556367D01*
X72573515Y-42549692D01*
X72569650Y-42540938D01*
X72562000Y-42475000D01*
X72562000Y-41650000D01*
X72569650Y-41584062D01*
X72573515Y-41575307D01*
X72574488Y-41568632D01*
X72594893Y-41526892D01*
X72612401Y-41487241D01*
X72616071Y-41483570D01*
X72616286Y-41483132D01*
X72683132Y-41416286D01*
X72683570Y-41416071D01*
X72687241Y-41412401D01*
X72726892Y-41394893D01*
X72768632Y-41374488D01*
X72775307Y-41373515D01*
X72784062Y-41369650D01*
X72850000Y-41362000D01*
X74150000Y-41362000D01*
X74215938Y-41369650D01*
G37*
G36*
X33114005Y-39796207D02*
G01*
X33298762Y-39856238D01*
X33471853Y-39944432D01*
X33629017Y-40058618D01*
X33766383Y-40195984D01*
X33880569Y-40353148D01*
X33968763Y-40526239D01*
X34028794Y-40710996D01*
X34059184Y-40902869D01*
X34059184Y-41097133D01*
X34028794Y-41289006D01*
X33968763Y-41473763D01*
X33880569Y-41646854D01*
X33766383Y-41804018D01*
X33629017Y-41941384D01*
X33471853Y-42055570D01*
X33298762Y-42143764D01*
X33114005Y-42203795D01*
X32922132Y-42234185D01*
X32727868Y-42234185D01*
X32535995Y-42203795D01*
X32351238Y-42143764D01*
X32178147Y-42055570D01*
X32020983Y-41941384D01*
X31883617Y-41804018D01*
X31769431Y-41646854D01*
X31681237Y-41473763D01*
X31621206Y-41289006D01*
X31590816Y-41097133D01*
X31590816Y-40902869D01*
X31621206Y-40710996D01*
X31681237Y-40526239D01*
X31769431Y-40353148D01*
X31883617Y-40195984D01*
X32020983Y-40058618D01*
X32178147Y-39944432D01*
X32351238Y-39856238D01*
X32535995Y-39796207D01*
X32727868Y-39765817D01*
X32922132Y-39765817D01*
X33114005Y-39796207D01*
G37*
G36*
X80789005Y-39796205D02*
G01*
X80973762Y-39856236D01*
X81146853Y-39944430D01*
X81304017Y-40058616D01*
X81441383Y-40195982D01*
X81555569Y-40353146D01*
X81643763Y-40526237D01*
X81703794Y-40710994D01*
X81734184Y-40902867D01*
X81734184Y-41097131D01*
X81703794Y-41289004D01*
X81643763Y-41473761D01*
X81555569Y-41646852D01*
X81441383Y-41804016D01*
X81304017Y-41941382D01*
X81146853Y-42055568D01*
X80973762Y-42143762D01*
X80789005Y-42203793D01*
X80597132Y-42234183D01*
X80402868Y-42234183D01*
X80210995Y-42203793D01*
X80026238Y-42143762D01*
X79853147Y-42055568D01*
X79695983Y-41941382D01*
X79558617Y-41804016D01*
X79444431Y-41646852D01*
X79356237Y-41473761D01*
X79296206Y-41289004D01*
X79265816Y-41097131D01*
X79265816Y-40902867D01*
X79296206Y-40710994D01*
X79356237Y-40526237D01*
X79444431Y-40353146D01*
X79558617Y-40195982D01*
X79695983Y-40058616D01*
X79853147Y-39944430D01*
X80026238Y-39856236D01*
X80210995Y-39796205D01*
X80402868Y-39765815D01*
X80597132Y-39765815D01*
X80789005Y-39796205D01*
G37*
G36*
X53248666Y-39790186D02*
G01*
X53260994Y-39798423D01*
X54445398Y-40982827D01*
X54453635Y-40995155D01*
X54456528Y-41009697D01*
X54453635Y-41024239D01*
X54445398Y-41036567D01*
X54233266Y-41248699D01*
X54220938Y-41256936D01*
X54206396Y-41259829D01*
X54191854Y-41256936D01*
X54179526Y-41248699D01*
X52995122Y-40064295D01*
X52986885Y-40051967D01*
X52983992Y-40037425D01*
X52986885Y-40022883D01*
X52995122Y-40010555D01*
X53042551Y-39963126D01*
X53203074Y-39802601D01*
X53203080Y-39802596D01*
X53207254Y-39798423D01*
X53219582Y-39790186D01*
X53234124Y-39787293D01*
X53248666Y-39790186D01*
G37*
G36*
X67780418Y-39790186D02*
G01*
X67792746Y-39798423D01*
X67850559Y-39856236D01*
X68000699Y-40006375D01*
X68000701Y-40006378D01*
X68004878Y-40010555D01*
X68013115Y-40022883D01*
X68016008Y-40037425D01*
X68013115Y-40051967D01*
X68004878Y-40064295D01*
X66820474Y-41248699D01*
X66808146Y-41256936D01*
X66793604Y-41259829D01*
X66779062Y-41256936D01*
X66766734Y-41248699D01*
X66615153Y-41097118D01*
X66558780Y-41040746D01*
X66558777Y-41040742D01*
X66554602Y-41036567D01*
X66546365Y-41024239D01*
X66543472Y-41009697D01*
X66546365Y-40995155D01*
X66554602Y-40982827D01*
X67424670Y-40112759D01*
X67734829Y-39802599D01*
X67734832Y-39802596D01*
X67739006Y-39798423D01*
X67751334Y-39790186D01*
X67765876Y-39787293D01*
X67780418Y-39790186D01*
G37*
G36*
X53602220Y-39436633D02*
G01*
X53614548Y-39444870D01*
X54798952Y-40629274D01*
X54807189Y-40641602D01*
X54810082Y-40656144D01*
X54807189Y-40670686D01*
X54798952Y-40683014D01*
X54586820Y-40895146D01*
X54574492Y-40903383D01*
X54559950Y-40906276D01*
X54545408Y-40903383D01*
X54533080Y-40895146D01*
X53348676Y-39710742D01*
X53340439Y-39698414D01*
X53337546Y-39683872D01*
X53340439Y-39669330D01*
X53348676Y-39657002D01*
X53396106Y-39609572D01*
X53556628Y-39449048D01*
X53556634Y-39449043D01*
X53560808Y-39444870D01*
X53573136Y-39436633D01*
X53587678Y-39433740D01*
X53602220Y-39436633D01*
G37*
G36*
X67426864Y-39436633D02*
G01*
X67439192Y-39444870D01*
X67502855Y-39508533D01*
X67647145Y-39652822D01*
X67647147Y-39652825D01*
X67651324Y-39657002D01*
X67659561Y-39669330D01*
X67662454Y-39683872D01*
X67659561Y-39698414D01*
X67651324Y-39710742D01*
X66466920Y-40895146D01*
X66454592Y-40903383D01*
X66440050Y-40906276D01*
X66425508Y-40903383D01*
X66413180Y-40895146D01*
X66307112Y-40789078D01*
X66205226Y-40687193D01*
X66205223Y-40687189D01*
X66201048Y-40683014D01*
X66192811Y-40670686D01*
X66189918Y-40656144D01*
X66192811Y-40641602D01*
X66201048Y-40629274D01*
X67064507Y-39765815D01*
X67381275Y-39449046D01*
X67381278Y-39449043D01*
X67385452Y-39444870D01*
X67397780Y-39436633D01*
X67412322Y-39433740D01*
X67426864Y-39436633D01*
G37*
G36*
X30582773Y-38900238D02*
G01*
X30743600Y-38966855D01*
X30888341Y-39063568D01*
X31011433Y-39186660D01*
X31108146Y-39331401D01*
X31174763Y-39492228D01*
X31208724Y-39662962D01*
X31208724Y-39837040D01*
X31174763Y-40007774D01*
X31108146Y-40168601D01*
X31011433Y-40313342D01*
X30888341Y-40436434D01*
X30743600Y-40533147D01*
X30582773Y-40599764D01*
X30412039Y-40633725D01*
X30237961Y-40633725D01*
X30067227Y-40599764D01*
X29906400Y-40533147D01*
X29761659Y-40436434D01*
X29638567Y-40313342D01*
X29541854Y-40168601D01*
X29475237Y-40007774D01*
X29441276Y-39837040D01*
X29441276Y-39662962D01*
X29475237Y-39492228D01*
X29541854Y-39331401D01*
X29638567Y-39186660D01*
X29761659Y-39063568D01*
X29906400Y-38966855D01*
X30067227Y-38900238D01*
X30237961Y-38866277D01*
X30412039Y-38866277D01*
X30582773Y-38900238D01*
G37*
G36*
X83257773Y-38900236D02*
G01*
X83418600Y-38966853D01*
X83563341Y-39063566D01*
X83686433Y-39186658D01*
X83783146Y-39331399D01*
X83849763Y-39492226D01*
X83883724Y-39662960D01*
X83883724Y-39837038D01*
X83849763Y-40007772D01*
X83783146Y-40168599D01*
X83686433Y-40313340D01*
X83563341Y-40436432D01*
X83418600Y-40533145D01*
X83257773Y-40599762D01*
X83087039Y-40633723D01*
X82912961Y-40633723D01*
X82742227Y-40599762D01*
X82581400Y-40533145D01*
X82436659Y-40436432D01*
X82313567Y-40313340D01*
X82216854Y-40168599D01*
X82150237Y-40007772D01*
X82116276Y-39837038D01*
X82116276Y-39662960D01*
X82150237Y-39492226D01*
X82216854Y-39331399D01*
X82313567Y-39186658D01*
X82436659Y-39063566D01*
X82581400Y-38966853D01*
X82742227Y-38900236D01*
X82912961Y-38866275D01*
X83087039Y-38866275D01*
X83257773Y-38900236D01*
G37*
G36*
X53955773Y-39083079D02*
G01*
X53968101Y-39091316D01*
X55152505Y-40275720D01*
X55160742Y-40288048D01*
X55163635Y-40302590D01*
X55160742Y-40317132D01*
X55152505Y-40329460D01*
X54940373Y-40541592D01*
X54928045Y-40549829D01*
X54913503Y-40552722D01*
X54898961Y-40549829D01*
X54886633Y-40541592D01*
X53702229Y-39357188D01*
X53693992Y-39344860D01*
X53691099Y-39330318D01*
X53693992Y-39315776D01*
X53702229Y-39303448D01*
X53749658Y-39256019D01*
X53910181Y-39095494D01*
X53910187Y-39095489D01*
X53914361Y-39091316D01*
X53926689Y-39083079D01*
X53941231Y-39080186D01*
X53955773Y-39083079D01*
G37*
G36*
X67073311Y-39083079D02*
G01*
X67085639Y-39091316D01*
X67144323Y-39150000D01*
X67293592Y-39299268D01*
X67293594Y-39299271D01*
X67297771Y-39303448D01*
X67306008Y-39315776D01*
X67308901Y-39330318D01*
X67306008Y-39344860D01*
X67297771Y-39357188D01*
X66113367Y-40541592D01*
X66101039Y-40549829D01*
X66086497Y-40552722D01*
X66071955Y-40549829D01*
X66059627Y-40541592D01*
X65953559Y-40435524D01*
X65851673Y-40333639D01*
X65851670Y-40333635D01*
X65847495Y-40329460D01*
X65839258Y-40317132D01*
X65836365Y-40302590D01*
X65839258Y-40288048D01*
X65847495Y-40275720D01*
X66707277Y-39415938D01*
X67027722Y-39095492D01*
X67027725Y-39095489D01*
X67031899Y-39091316D01*
X67044227Y-39083079D01*
X67058769Y-39080186D01*
X67073311Y-39083079D01*
G37*
G36*
X37690938Y-38869650D02*
G01*
X37699692Y-38873515D01*
X37706367Y-38874488D01*
X37748097Y-38894888D01*
X37787759Y-38912401D01*
X37791430Y-38916072D01*
X37791867Y-38916286D01*
X37858713Y-38983132D01*
X37858926Y-38983568D01*
X37862599Y-38987241D01*
X37880116Y-39026913D01*
X37900511Y-39068632D01*
X37901483Y-39075304D01*
X37905350Y-39084062D01*
X37913000Y-39150000D01*
X37913000Y-39950000D01*
X37905350Y-40015938D01*
X37901482Y-40024696D01*
X37900511Y-40031367D01*
X37880120Y-40073076D01*
X37862599Y-40112759D01*
X37858925Y-40116432D01*
X37858713Y-40116867D01*
X37791867Y-40183713D01*
X37791432Y-40183925D01*
X37787759Y-40187599D01*
X37748076Y-40205120D01*
X37706367Y-40225511D01*
X37699696Y-40226482D01*
X37690938Y-40230350D01*
X37625000Y-40238000D01*
X36375000Y-40238000D01*
X36309062Y-40230350D01*
X36300304Y-40226483D01*
X36293632Y-40225511D01*
X36251913Y-40205116D01*
X36212241Y-40187599D01*
X36208568Y-40183926D01*
X36208132Y-40183713D01*
X36141286Y-40116867D01*
X36141072Y-40116430D01*
X36137401Y-40112759D01*
X36119888Y-40073097D01*
X36099488Y-40031367D01*
X36098515Y-40024692D01*
X36094650Y-40015938D01*
X36087000Y-39950000D01*
X36087000Y-39150000D01*
X36094650Y-39084062D01*
X36098515Y-39075307D01*
X36099488Y-39068632D01*
X36119893Y-39026892D01*
X36137401Y-38987241D01*
X36141071Y-38983570D01*
X36141286Y-38983132D01*
X36208132Y-38916286D01*
X36208570Y-38916071D01*
X36212241Y-38912401D01*
X36251892Y-38894893D01*
X36293632Y-38874488D01*
X36300307Y-38873515D01*
X36309062Y-38869650D01*
X36375000Y-38862000D01*
X37625000Y-38862000D01*
X37690938Y-38869650D01*
G37*
G36*
X54309326Y-38729526D02*
G01*
X54321654Y-38737763D01*
X55506058Y-39922167D01*
X55514295Y-39934495D01*
X55517188Y-39949037D01*
X55514295Y-39963579D01*
X55506058Y-39975907D01*
X55293926Y-40188039D01*
X55281598Y-40196276D01*
X55267056Y-40199169D01*
X55252514Y-40196276D01*
X55240186Y-40188039D01*
X54055782Y-39003635D01*
X54047545Y-38991307D01*
X54044652Y-38976765D01*
X54047545Y-38962223D01*
X54055782Y-38949895D01*
X54105441Y-38900236D01*
X54263734Y-38741941D01*
X54263740Y-38741936D01*
X54267914Y-38737763D01*
X54280242Y-38729526D01*
X54294784Y-38726633D01*
X54309326Y-38729526D01*
G37*
G36*
X66719758Y-38729526D02*
G01*
X66732086Y-38737763D01*
X66838153Y-38843830D01*
X66940039Y-38945715D01*
X66940041Y-38945718D01*
X66944218Y-38949895D01*
X66952455Y-38962223D01*
X66955348Y-38976765D01*
X66952455Y-38991307D01*
X66944218Y-39003635D01*
X65759814Y-40188039D01*
X65747486Y-40196276D01*
X65732944Y-40199169D01*
X65718402Y-40196276D01*
X65706074Y-40188039D01*
X65549402Y-40031367D01*
X65498120Y-39980086D01*
X65498117Y-39980082D01*
X65493942Y-39975907D01*
X65485705Y-39963579D01*
X65482812Y-39949037D01*
X65485705Y-39934495D01*
X65493942Y-39922167D01*
X66352543Y-39063566D01*
X66674169Y-38741939D01*
X66674172Y-38741936D01*
X66678346Y-38737763D01*
X66690674Y-38729526D01*
X66705216Y-38726633D01*
X66719758Y-38729526D01*
G37*
G36*
X54662880Y-38375972D02*
G01*
X54675208Y-38384209D01*
X55859612Y-39568613D01*
X55867849Y-39580941D01*
X55870742Y-39595483D01*
X55867849Y-39610025D01*
X55859612Y-39622353D01*
X55647480Y-39834485D01*
X55635152Y-39842722D01*
X55620610Y-39845615D01*
X55606068Y-39842722D01*
X55593740Y-39834485D01*
X54409336Y-38650081D01*
X54401099Y-38637753D01*
X54398206Y-38623211D01*
X54401099Y-38608669D01*
X54409336Y-38596341D01*
X54456765Y-38548912D01*
X54617288Y-38388387D01*
X54617294Y-38388382D01*
X54621468Y-38384209D01*
X54633796Y-38375972D01*
X54648338Y-38373079D01*
X54662880Y-38375972D01*
G37*
G36*
X66366204Y-38375972D02*
G01*
X66378532Y-38384209D01*
X66437955Y-38443632D01*
X66586485Y-38592161D01*
X66586487Y-38592164D01*
X66590664Y-38596341D01*
X66598901Y-38608669D01*
X66601794Y-38623211D01*
X66598901Y-38637753D01*
X66590664Y-38650081D01*
X65406260Y-39834485D01*
X65393932Y-39842722D01*
X65379390Y-39845615D01*
X65364848Y-39842722D01*
X65352520Y-39834485D01*
X65201907Y-39683872D01*
X65144566Y-39626532D01*
X65144563Y-39626528D01*
X65140388Y-39622353D01*
X65132151Y-39610025D01*
X65129258Y-39595483D01*
X65132151Y-39580941D01*
X65140388Y-39568613D01*
X65982368Y-38726633D01*
X66320615Y-38388385D01*
X66320618Y-38388382D01*
X66324792Y-38384209D01*
X66337120Y-38375972D01*
X66351662Y-38373079D01*
X66366204Y-38375972D01*
G37*
G36*
X47449350Y-37760464D02*
G01*
X47494618Y-37765716D01*
X47510087Y-37772546D01*
X47531943Y-37776894D01*
X47555341Y-37792528D01*
X47573045Y-37800345D01*
X47585135Y-37812435D01*
X47606074Y-37826426D01*
X47620064Y-37847364D01*
X47632154Y-37859454D01*
X47639970Y-37877156D01*
X47655606Y-37900557D01*
X47659953Y-37922414D01*
X47666783Y-37937881D01*
X47672033Y-37983140D01*
X47673000Y-37988000D01*
X47673000Y-39512000D01*
X47672032Y-39516862D01*
X47666783Y-39562118D01*
X47659954Y-39577583D01*
X47655606Y-39599443D01*
X47639968Y-39622845D01*
X47632154Y-39640545D01*
X47620066Y-39652632D01*
X47606074Y-39673574D01*
X47585132Y-39687566D01*
X47573045Y-39699654D01*
X47555345Y-39707468D01*
X47531943Y-39723106D01*
X47510083Y-39727454D01*
X47494618Y-39734283D01*
X47449361Y-39739532D01*
X47444500Y-39740500D01*
X46555500Y-39740500D01*
X46550638Y-39739533D01*
X46505381Y-39734283D01*
X46489914Y-39727453D01*
X46468057Y-39723106D01*
X46444656Y-39707470D01*
X46426954Y-39699654D01*
X46414864Y-39687564D01*
X46393926Y-39673574D01*
X46379935Y-39652635D01*
X46367845Y-39640545D01*
X46360028Y-39622841D01*
X46344394Y-39599443D01*
X46340046Y-39577587D01*
X46333216Y-39562118D01*
X46327964Y-39516849D01*
X46327000Y-39512000D01*
X46327000Y-37988000D01*
X46327964Y-37983150D01*
X46333216Y-37937881D01*
X46340046Y-37922410D01*
X46344394Y-37900557D01*
X46360026Y-37877160D01*
X46367845Y-37859454D01*
X46379937Y-37847361D01*
X46393926Y-37826426D01*
X46414861Y-37812437D01*
X46426954Y-37800345D01*
X46444660Y-37792526D01*
X46468057Y-37776894D01*
X46489910Y-37772546D01*
X46505381Y-37765716D01*
X46550652Y-37760464D01*
X46555500Y-37759500D01*
X47444500Y-37759500D01*
X47449350Y-37760464D01*
G37*
G36*
X49949350Y-37760464D02*
G01*
X49994618Y-37765716D01*
X50010087Y-37772546D01*
X50031943Y-37776894D01*
X50055341Y-37792528D01*
X50073045Y-37800345D01*
X50085135Y-37812435D01*
X50106074Y-37826426D01*
X50120064Y-37847364D01*
X50132154Y-37859454D01*
X50139970Y-37877156D01*
X50155606Y-37900557D01*
X50159953Y-37922414D01*
X50166783Y-37937881D01*
X50172033Y-37983140D01*
X50173000Y-37988000D01*
X50173000Y-39512000D01*
X50172032Y-39516862D01*
X50166783Y-39562118D01*
X50159954Y-39577583D01*
X50155606Y-39599443D01*
X50139968Y-39622845D01*
X50132154Y-39640545D01*
X50120066Y-39652632D01*
X50106074Y-39673574D01*
X50085132Y-39687566D01*
X50073045Y-39699654D01*
X50055345Y-39707468D01*
X50031943Y-39723106D01*
X50010083Y-39727454D01*
X49994618Y-39734283D01*
X49949361Y-39739532D01*
X49944500Y-39740500D01*
X49055500Y-39740500D01*
X49050638Y-39739533D01*
X49005381Y-39734283D01*
X48989914Y-39727453D01*
X48968057Y-39723106D01*
X48944656Y-39707470D01*
X48926954Y-39699654D01*
X48914864Y-39687564D01*
X48893926Y-39673574D01*
X48879935Y-39652635D01*
X48867845Y-39640545D01*
X48860028Y-39622841D01*
X48844394Y-39599443D01*
X48840046Y-39577587D01*
X48833216Y-39562118D01*
X48827964Y-39516849D01*
X48827000Y-39512000D01*
X48827000Y-37988000D01*
X48827964Y-37983150D01*
X48833216Y-37937881D01*
X48840046Y-37922410D01*
X48844394Y-37900557D01*
X48860026Y-37877160D01*
X48867845Y-37859454D01*
X48879937Y-37847361D01*
X48893926Y-37826426D01*
X48914861Y-37812437D01*
X48926954Y-37800345D01*
X48944660Y-37792526D01*
X48968057Y-37776894D01*
X48989910Y-37772546D01*
X49005381Y-37765716D01*
X49050652Y-37760464D01*
X49055500Y-37759500D01*
X49944500Y-37759500D01*
X49949350Y-37760464D01*
G37*
G36*
X74215938Y-38244650D02*
G01*
X74224692Y-38248515D01*
X74231367Y-38249488D01*
X74273097Y-38269888D01*
X74312759Y-38287401D01*
X74316430Y-38291072D01*
X74316867Y-38291286D01*
X74383713Y-38358132D01*
X74383926Y-38358568D01*
X74387599Y-38362241D01*
X74405116Y-38401913D01*
X74425511Y-38443632D01*
X74426483Y-38450304D01*
X74430350Y-38459062D01*
X74438000Y-38525000D01*
X74438000Y-39350000D01*
X74430350Y-39415938D01*
X74426482Y-39424696D01*
X74425511Y-39431367D01*
X74405120Y-39473076D01*
X74387599Y-39512759D01*
X74383925Y-39516432D01*
X74383713Y-39516867D01*
X74316867Y-39583713D01*
X74316432Y-39583925D01*
X74312759Y-39587599D01*
X74273076Y-39605120D01*
X74231367Y-39625511D01*
X74224696Y-39626482D01*
X74215938Y-39630350D01*
X74150000Y-39638000D01*
X72850000Y-39638000D01*
X72784062Y-39630350D01*
X72775304Y-39626483D01*
X72768632Y-39625511D01*
X72726913Y-39605116D01*
X72687241Y-39587599D01*
X72683568Y-39583926D01*
X72683132Y-39583713D01*
X72616286Y-39516867D01*
X72616072Y-39516430D01*
X72612401Y-39512759D01*
X72594888Y-39473097D01*
X72574488Y-39431367D01*
X72573515Y-39424692D01*
X72569650Y-39415938D01*
X72562000Y-39350000D01*
X72562000Y-38525000D01*
X72569650Y-38459062D01*
X72573515Y-38450307D01*
X72574488Y-38443632D01*
X72594893Y-38401892D01*
X72612401Y-38362241D01*
X72616071Y-38358570D01*
X72616286Y-38358132D01*
X72683132Y-38291286D01*
X72683570Y-38291071D01*
X72687241Y-38287401D01*
X72726892Y-38269893D01*
X72768632Y-38249488D01*
X72775307Y-38248515D01*
X72784062Y-38244650D01*
X72850000Y-38237000D01*
X74150000Y-38237000D01*
X74215938Y-38244650D01*
G37*
G36*
X55016433Y-38022419D02*
G01*
X55028761Y-38030656D01*
X56213165Y-39215060D01*
X56221402Y-39227388D01*
X56224295Y-39241930D01*
X56221402Y-39256472D01*
X56213165Y-39268800D01*
X56001033Y-39480932D01*
X55988705Y-39489169D01*
X55974163Y-39492062D01*
X55959621Y-39489169D01*
X55947293Y-39480932D01*
X54762889Y-38296528D01*
X54754652Y-38284200D01*
X54751759Y-38269658D01*
X54754652Y-38255116D01*
X54762889Y-38242788D01*
X54810318Y-38195359D01*
X54970841Y-38034834D01*
X54970847Y-38034829D01*
X54975021Y-38030656D01*
X54987349Y-38022419D01*
X55001891Y-38019526D01*
X55016433Y-38022419D01*
G37*
G36*
X66012651Y-38022419D02*
G01*
X66024979Y-38030656D01*
X66131046Y-38136723D01*
X66232932Y-38238608D01*
X66232934Y-38238611D01*
X66237111Y-38242788D01*
X66245348Y-38255116D01*
X66248241Y-38269658D01*
X66245348Y-38284200D01*
X66237111Y-38296528D01*
X65052707Y-39480932D01*
X65040379Y-39489169D01*
X65025837Y-39492062D01*
X65011295Y-39489169D01*
X64998967Y-39480932D01*
X64848353Y-39330318D01*
X64791013Y-39272979D01*
X64791010Y-39272975D01*
X64786835Y-39268800D01*
X64778598Y-39256472D01*
X64775705Y-39241930D01*
X64778598Y-39227388D01*
X64786835Y-39215060D01*
X65643763Y-38358132D01*
X65967062Y-38034832D01*
X65967065Y-38034829D01*
X65971239Y-38030656D01*
X65983567Y-38022419D01*
X65998109Y-38019526D01*
X66012651Y-38022419D01*
G37*
G36*
X55369987Y-37668866D02*
G01*
X55382315Y-37677103D01*
X56566719Y-38861507D01*
X56574956Y-38873835D01*
X56577849Y-38888377D01*
X56574956Y-38902919D01*
X56566719Y-38915247D01*
X56354587Y-39127379D01*
X56342259Y-39135616D01*
X56327717Y-39138509D01*
X56313175Y-39135616D01*
X56300847Y-39127379D01*
X55116443Y-37942975D01*
X55108206Y-37930647D01*
X55105313Y-37916105D01*
X55108206Y-37901563D01*
X55116443Y-37889235D01*
X55163872Y-37841806D01*
X55324395Y-37681281D01*
X55324401Y-37681276D01*
X55328575Y-37677103D01*
X55340903Y-37668866D01*
X55355445Y-37665973D01*
X55369987Y-37668866D01*
G37*
G36*
X65659097Y-37668866D02*
G01*
X65671425Y-37677103D01*
X65753822Y-37759500D01*
X65879378Y-37885055D01*
X65879380Y-37885058D01*
X65883557Y-37889235D01*
X65891794Y-37901563D01*
X65894687Y-37916105D01*
X65891794Y-37930647D01*
X65883557Y-37942975D01*
X64699153Y-39127379D01*
X64686825Y-39135616D01*
X64672283Y-39138509D01*
X64657741Y-39135616D01*
X64645413Y-39127379D01*
X64494799Y-38976765D01*
X64437459Y-38919426D01*
X64437456Y-38919422D01*
X64433281Y-38915247D01*
X64425044Y-38902919D01*
X64422151Y-38888377D01*
X64425044Y-38873835D01*
X64433281Y-38861507D01*
X65306788Y-37988000D01*
X65613508Y-37681279D01*
X65613511Y-37681276D01*
X65617685Y-37677103D01*
X65630013Y-37668866D01*
X65644555Y-37665973D01*
X65659097Y-37668866D01*
G37*
G36*
X55723540Y-37315312D02*
G01*
X55735868Y-37323549D01*
X56920272Y-38507953D01*
X56928509Y-38520281D01*
X56931402Y-38534823D01*
X56928509Y-38549365D01*
X56920272Y-38561693D01*
X56708140Y-38773825D01*
X56695812Y-38782062D01*
X56681270Y-38784955D01*
X56666728Y-38782062D01*
X56654400Y-38773825D01*
X55469996Y-37589421D01*
X55461759Y-37577093D01*
X55458866Y-37562551D01*
X55461759Y-37548009D01*
X55469996Y-37535681D01*
X55517425Y-37488252D01*
X55677948Y-37327727D01*
X55677954Y-37327722D01*
X55682128Y-37323549D01*
X55694456Y-37315312D01*
X55708998Y-37312419D01*
X55723540Y-37315312D01*
G37*
G36*
X65305544Y-37315312D02*
G01*
X65317872Y-37323549D01*
X65423939Y-37429616D01*
X65525825Y-37531501D01*
X65525827Y-37531504D01*
X65530004Y-37535681D01*
X65538241Y-37548009D01*
X65541134Y-37562551D01*
X65538241Y-37577093D01*
X65530004Y-37589421D01*
X64345600Y-38773825D01*
X64333272Y-38782062D01*
X64318730Y-38784955D01*
X64304188Y-38782062D01*
X64291860Y-38773825D01*
X64141246Y-38623211D01*
X64083906Y-38565872D01*
X64083903Y-38565868D01*
X64079728Y-38561693D01*
X64071491Y-38549365D01*
X64068598Y-38534823D01*
X64071491Y-38520281D01*
X64079728Y-38507953D01*
X64921708Y-37665973D01*
X65259955Y-37327725D01*
X65259958Y-37327722D01*
X65264132Y-37323549D01*
X65276460Y-37315312D01*
X65291002Y-37312419D01*
X65305544Y-37315312D01*
G37*
G36*
X56077093Y-36961759D02*
G01*
X56089421Y-36969996D01*
X57273825Y-38154400D01*
X57282062Y-38166728D01*
X57284955Y-38181270D01*
X57282062Y-38195812D01*
X57273825Y-38208140D01*
X57061693Y-38420272D01*
X57049365Y-38428509D01*
X57034823Y-38431402D01*
X57020281Y-38428509D01*
X57007953Y-38420272D01*
X55823549Y-37235868D01*
X55815312Y-37223540D01*
X55812419Y-37208998D01*
X55815312Y-37194456D01*
X55823549Y-37182128D01*
X55875327Y-37130350D01*
X56031501Y-36974174D01*
X56031507Y-36974169D01*
X56035681Y-36969996D01*
X56048009Y-36961759D01*
X56062551Y-36958866D01*
X56077093Y-36961759D01*
G37*
G36*
X64951991Y-36961759D02*
G01*
X64964319Y-36969996D01*
X65070386Y-37076063D01*
X65172272Y-37177948D01*
X65172274Y-37177951D01*
X65176451Y-37182128D01*
X65184688Y-37194456D01*
X65187581Y-37208998D01*
X65184688Y-37223540D01*
X65176451Y-37235868D01*
X63992047Y-38420272D01*
X63979719Y-38428509D01*
X63965177Y-38431402D01*
X63950635Y-38428509D01*
X63938307Y-38420272D01*
X63787693Y-38269658D01*
X63730353Y-38212319D01*
X63730350Y-38212315D01*
X63726175Y-38208140D01*
X63717938Y-38195812D01*
X63715045Y-38181270D01*
X63717938Y-38166728D01*
X63726175Y-38154400D01*
X64568156Y-37312419D01*
X64906402Y-36974172D01*
X64906405Y-36974169D01*
X64910579Y-36969996D01*
X64922907Y-36961759D01*
X64937449Y-36958866D01*
X64951991Y-36961759D01*
G37*
G36*
X56430647Y-36608206D02*
G01*
X56442975Y-36616443D01*
X57627379Y-37800847D01*
X57635616Y-37813175D01*
X57638509Y-37827717D01*
X57635616Y-37842259D01*
X57627379Y-37854587D01*
X57415247Y-38066719D01*
X57402919Y-38074956D01*
X57388377Y-38077849D01*
X57373835Y-38074956D01*
X57361507Y-38066719D01*
X56177103Y-36882315D01*
X56168866Y-36869987D01*
X56165973Y-36855445D01*
X56168866Y-36840903D01*
X56177103Y-36828575D01*
X56224533Y-36781145D01*
X56385055Y-36620621D01*
X56385061Y-36620616D01*
X56389235Y-36616443D01*
X56401563Y-36608206D01*
X56416105Y-36605313D01*
X56430647Y-36608206D01*
G37*
G36*
X64598437Y-36608206D02*
G01*
X64610765Y-36616443D01*
X64685260Y-36690938D01*
X64818718Y-36824395D01*
X64818720Y-36824398D01*
X64822897Y-36828575D01*
X64831134Y-36840903D01*
X64834027Y-36855445D01*
X64831134Y-36869987D01*
X64822897Y-36882315D01*
X63638493Y-38066719D01*
X63626165Y-38074956D01*
X63611623Y-38077849D01*
X63597081Y-38074956D01*
X63584753Y-38066719D01*
X63434139Y-37916105D01*
X63376799Y-37858766D01*
X63376796Y-37858762D01*
X63372621Y-37854587D01*
X63364384Y-37842259D01*
X63361491Y-37827717D01*
X63364384Y-37813175D01*
X63372621Y-37800847D01*
X64257530Y-36915938D01*
X64552848Y-36620619D01*
X64552851Y-36620616D01*
X64557025Y-36616443D01*
X64569353Y-36608206D01*
X64583895Y-36605313D01*
X64598437Y-36608206D01*
G37*
G36*
X56784200Y-36254652D02*
G01*
X56796528Y-36262889D01*
X57980932Y-37447293D01*
X57989169Y-37459621D01*
X57992062Y-37474163D01*
X57989169Y-37488705D01*
X57980932Y-37501033D01*
X57768800Y-37713165D01*
X57756472Y-37721402D01*
X57741930Y-37724295D01*
X57727388Y-37721402D01*
X57715060Y-37713165D01*
X56530656Y-36528761D01*
X56522419Y-36516433D01*
X56519526Y-36501891D01*
X56522419Y-36487349D01*
X56530656Y-36475021D01*
X56578085Y-36427592D01*
X56738608Y-36267067D01*
X56738614Y-36267062D01*
X56742788Y-36262889D01*
X56755116Y-36254652D01*
X56769658Y-36251759D01*
X56784200Y-36254652D01*
G37*
G36*
X64244884Y-36254652D02*
G01*
X64257212Y-36262889D01*
X64363279Y-36368956D01*
X64465165Y-36470841D01*
X64465167Y-36470844D01*
X64469344Y-36475021D01*
X64477581Y-36487349D01*
X64480474Y-36501891D01*
X64477581Y-36516433D01*
X64469344Y-36528761D01*
X63284940Y-37713165D01*
X63272612Y-37721402D01*
X63258070Y-37724295D01*
X63243528Y-37721402D01*
X63231200Y-37713165D01*
X63080586Y-37562551D01*
X63023246Y-37505212D01*
X63023243Y-37505208D01*
X63019068Y-37501033D01*
X63010831Y-37488705D01*
X63007938Y-37474163D01*
X63010831Y-37459621D01*
X63019068Y-37447293D01*
X63861048Y-36605313D01*
X64199295Y-36267065D01*
X64199298Y-36267062D01*
X64203472Y-36262889D01*
X64215800Y-36254652D01*
X64230342Y-36251759D01*
X64244884Y-36254652D01*
G37*
G36*
X57137753Y-35901099D02*
G01*
X57150081Y-35909336D01*
X58334485Y-37093740D01*
X58342722Y-37106068D01*
X58345615Y-37120610D01*
X58342722Y-37135152D01*
X58334485Y-37147480D01*
X58122353Y-37359612D01*
X58110025Y-37367849D01*
X58095483Y-37370742D01*
X58080941Y-37367849D01*
X58068613Y-37359612D01*
X56884209Y-36175208D01*
X56875972Y-36162880D01*
X56873079Y-36148338D01*
X56875972Y-36133796D01*
X56884209Y-36121468D01*
X56931638Y-36074039D01*
X57092161Y-35913514D01*
X57092167Y-35913509D01*
X57096341Y-35909336D01*
X57108669Y-35901099D01*
X57123211Y-35898206D01*
X57137753Y-35901099D01*
G37*
G36*
X63891331Y-35901099D02*
G01*
X63903659Y-35909336D01*
X63962955Y-35968632D01*
X64111612Y-36117288D01*
X64111614Y-36117291D01*
X64115791Y-36121468D01*
X64124028Y-36133796D01*
X64126921Y-36148338D01*
X64124028Y-36162880D01*
X64115791Y-36175208D01*
X62931387Y-37359612D01*
X62919059Y-37367849D01*
X62904517Y-37370742D01*
X62889975Y-37367849D01*
X62877647Y-37359612D01*
X62727033Y-37208998D01*
X62669693Y-37151659D01*
X62669690Y-37151655D01*
X62665515Y-37147480D01*
X62657278Y-37135152D01*
X62654385Y-37120610D01*
X62657278Y-37106068D01*
X62665515Y-37093740D01*
X63507496Y-36251759D01*
X63845742Y-35913512D01*
X63845745Y-35913509D01*
X63849919Y-35909336D01*
X63862247Y-35901099D01*
X63876789Y-35898206D01*
X63891331Y-35901099D01*
G37*
G36*
X37690938Y-35769650D02*
G01*
X37699692Y-35773515D01*
X37706367Y-35774488D01*
X37748097Y-35794888D01*
X37787759Y-35812401D01*
X37791430Y-35816072D01*
X37791867Y-35816286D01*
X37858713Y-35883132D01*
X37858926Y-35883568D01*
X37862599Y-35887241D01*
X37880116Y-35926913D01*
X37900511Y-35968632D01*
X37901483Y-35975304D01*
X37905350Y-35984062D01*
X37913000Y-36050000D01*
X37913000Y-36850000D01*
X37905350Y-36915938D01*
X37901482Y-36924696D01*
X37900511Y-36931367D01*
X37880120Y-36973076D01*
X37862599Y-37012759D01*
X37858925Y-37016432D01*
X37858713Y-37016867D01*
X37791867Y-37083713D01*
X37791432Y-37083925D01*
X37787759Y-37087599D01*
X37748076Y-37105120D01*
X37706367Y-37125511D01*
X37699696Y-37126482D01*
X37690938Y-37130350D01*
X37625000Y-37138000D01*
X36375000Y-37138000D01*
X36309062Y-37130350D01*
X36300304Y-37126483D01*
X36293632Y-37125511D01*
X36251913Y-37105116D01*
X36212241Y-37087599D01*
X36208568Y-37083926D01*
X36208132Y-37083713D01*
X36141286Y-37016867D01*
X36141072Y-37016430D01*
X36137401Y-37012759D01*
X36119888Y-36973097D01*
X36099488Y-36931367D01*
X36098515Y-36924692D01*
X36094650Y-36915938D01*
X36087000Y-36850000D01*
X36087000Y-36050000D01*
X36094650Y-35984062D01*
X36098515Y-35975307D01*
X36099488Y-35968632D01*
X36119893Y-35926892D01*
X36137401Y-35887241D01*
X36141071Y-35883570D01*
X36141286Y-35883132D01*
X36208132Y-35816286D01*
X36208570Y-35816071D01*
X36212241Y-35812401D01*
X36251892Y-35794893D01*
X36293632Y-35774488D01*
X36300307Y-35773515D01*
X36309062Y-35769650D01*
X36375000Y-35762000D01*
X37625000Y-35762000D01*
X37690938Y-35769650D01*
G37*
G36*
X57491307Y-35547545D02*
G01*
X57503635Y-35555782D01*
X58688039Y-36740186D01*
X58696276Y-36752514D01*
X58699169Y-36767056D01*
X58696276Y-36781598D01*
X58688039Y-36793926D01*
X58475907Y-37006058D01*
X58463579Y-37014295D01*
X58449037Y-37017188D01*
X58434495Y-37014295D01*
X58422167Y-37006058D01*
X57237763Y-35821654D01*
X57229526Y-35809326D01*
X57226633Y-35794784D01*
X57229526Y-35780242D01*
X57237763Y-35767914D01*
X57285192Y-35720485D01*
X57445715Y-35559960D01*
X57445721Y-35559955D01*
X57449895Y-35555782D01*
X57462223Y-35547545D01*
X57476765Y-35544652D01*
X57491307Y-35547545D01*
G37*
G36*
X63537777Y-35547545D02*
G01*
X63550105Y-35555782D01*
X63656172Y-35661849D01*
X63758058Y-35763734D01*
X63758060Y-35763737D01*
X63762237Y-35767914D01*
X63770474Y-35780242D01*
X63773367Y-35794784D01*
X63770474Y-35809326D01*
X63762237Y-35821654D01*
X62577833Y-37006058D01*
X62565505Y-37014295D01*
X62550963Y-37017188D01*
X62536421Y-37014295D01*
X62524093Y-37006058D01*
X62368035Y-36850000D01*
X62316139Y-36798105D01*
X62316136Y-36798101D01*
X62311961Y-36793926D01*
X62303724Y-36781598D01*
X62300831Y-36767056D01*
X62303724Y-36752514D01*
X62311961Y-36740186D01*
X63169015Y-35883132D01*
X63492188Y-35559958D01*
X63492191Y-35559955D01*
X63496365Y-35555782D01*
X63508693Y-35547545D01*
X63523235Y-35544652D01*
X63537777Y-35547545D01*
G37*
G36*
X72415938Y-35094650D02*
G01*
X72424692Y-35098515D01*
X72431367Y-35099488D01*
X72473097Y-35119888D01*
X72512759Y-35137401D01*
X72516430Y-35141072D01*
X72516867Y-35141286D01*
X72583713Y-35208132D01*
X72583926Y-35208568D01*
X72587599Y-35212241D01*
X72605116Y-35251913D01*
X72625511Y-35293632D01*
X72626483Y-35300304D01*
X72630350Y-35309062D01*
X72638000Y-35375000D01*
X72638000Y-36625000D01*
X72630350Y-36690938D01*
X72626482Y-36699696D01*
X72625511Y-36706367D01*
X72605120Y-36748076D01*
X72587599Y-36787759D01*
X72583925Y-36791432D01*
X72583713Y-36791867D01*
X72516867Y-36858713D01*
X72516432Y-36858925D01*
X72512759Y-36862599D01*
X72473076Y-36880120D01*
X72431367Y-36900511D01*
X72424696Y-36901482D01*
X72415938Y-36905350D01*
X72350000Y-36913000D01*
X71550000Y-36913000D01*
X71484062Y-36905350D01*
X71475304Y-36901483D01*
X71468632Y-36900511D01*
X71426913Y-36880116D01*
X71387241Y-36862599D01*
X71383568Y-36858926D01*
X71383132Y-36858713D01*
X71316286Y-36791867D01*
X71316072Y-36791430D01*
X71312401Y-36787759D01*
X71294888Y-36748097D01*
X71274488Y-36706367D01*
X71273515Y-36699692D01*
X71269650Y-36690938D01*
X71262000Y-36625000D01*
X71262000Y-35375000D01*
X71269650Y-35309062D01*
X71273515Y-35300307D01*
X71274488Y-35293632D01*
X71294893Y-35251892D01*
X71312401Y-35212241D01*
X71316071Y-35208570D01*
X71316286Y-35208132D01*
X71383132Y-35141286D01*
X71383570Y-35141071D01*
X71387241Y-35137401D01*
X71426892Y-35119893D01*
X71468632Y-35099488D01*
X71475307Y-35098515D01*
X71484062Y-35094650D01*
X71550000Y-35087000D01*
X72350000Y-35087000D01*
X72415938Y-35094650D01*
G37*
G36*
X75515938Y-35094650D02*
G01*
X75524692Y-35098515D01*
X75531367Y-35099488D01*
X75573097Y-35119888D01*
X75612759Y-35137401D01*
X75616430Y-35141072D01*
X75616867Y-35141286D01*
X75683713Y-35208132D01*
X75683926Y-35208568D01*
X75687599Y-35212241D01*
X75705116Y-35251913D01*
X75725511Y-35293632D01*
X75726483Y-35300304D01*
X75730350Y-35309062D01*
X75738000Y-35375000D01*
X75738000Y-36625000D01*
X75730350Y-36690938D01*
X75726482Y-36699696D01*
X75725511Y-36706367D01*
X75705120Y-36748076D01*
X75687599Y-36787759D01*
X75683925Y-36791432D01*
X75683713Y-36791867D01*
X75616867Y-36858713D01*
X75616432Y-36858925D01*
X75612759Y-36862599D01*
X75573076Y-36880120D01*
X75531367Y-36900511D01*
X75524696Y-36901482D01*
X75515938Y-36905350D01*
X75450000Y-36913000D01*
X74650000Y-36913000D01*
X74584062Y-36905350D01*
X74575304Y-36901483D01*
X74568632Y-36900511D01*
X74526913Y-36880116D01*
X74487241Y-36862599D01*
X74483568Y-36858926D01*
X74483132Y-36858713D01*
X74416286Y-36791867D01*
X74416072Y-36791430D01*
X74412401Y-36787759D01*
X74394888Y-36748097D01*
X74374488Y-36706367D01*
X74373515Y-36699692D01*
X74369650Y-36690938D01*
X74362000Y-36625000D01*
X74362000Y-35375000D01*
X74369650Y-35309062D01*
X74373515Y-35300307D01*
X74374488Y-35293632D01*
X74394893Y-35251892D01*
X74412401Y-35212241D01*
X74416071Y-35208570D01*
X74416286Y-35208132D01*
X74483132Y-35141286D01*
X74483570Y-35141071D01*
X74487241Y-35137401D01*
X74526892Y-35119893D01*
X74568632Y-35099488D01*
X74575307Y-35098515D01*
X74584062Y-35094650D01*
X74650000Y-35087000D01*
X75450000Y-35087000D01*
X75515938Y-35094650D01*
G37*
G36*
X57844860Y-35193992D02*
G01*
X57857188Y-35202229D01*
X59041592Y-36386633D01*
X59049829Y-36398961D01*
X59052722Y-36413503D01*
X59049829Y-36428045D01*
X59041592Y-36440373D01*
X58829460Y-36652505D01*
X58817132Y-36660742D01*
X58802590Y-36663635D01*
X58788048Y-36660742D01*
X58775720Y-36652505D01*
X57591316Y-35468101D01*
X57583079Y-35455773D01*
X57580186Y-35441231D01*
X57583079Y-35426689D01*
X57591316Y-35414361D01*
X57630677Y-35375000D01*
X57799268Y-35206407D01*
X57799274Y-35206402D01*
X57803448Y-35202229D01*
X57815776Y-35193992D01*
X57830318Y-35191099D01*
X57844860Y-35193992D01*
G37*
G36*
X63184224Y-35193992D02*
G01*
X63196552Y-35202229D01*
X63287955Y-35293632D01*
X63404505Y-35410181D01*
X63404507Y-35410184D01*
X63408684Y-35414361D01*
X63416921Y-35426689D01*
X63419814Y-35441231D01*
X63416921Y-35455773D01*
X63408684Y-35468101D01*
X62224280Y-36652505D01*
X62211952Y-36660742D01*
X62197410Y-36663635D01*
X62182868Y-36660742D01*
X62170540Y-36652505D01*
X62019926Y-36501891D01*
X61962586Y-36444552D01*
X61962583Y-36444548D01*
X61958408Y-36440373D01*
X61950171Y-36428045D01*
X61947278Y-36413503D01*
X61950171Y-36398961D01*
X61958408Y-36386633D01*
X62837356Y-35507685D01*
X63138635Y-35206405D01*
X63138638Y-35206402D01*
X63142812Y-35202229D01*
X63155140Y-35193992D01*
X63169682Y-35191099D01*
X63184224Y-35193992D01*
G37*
G36*
X58198414Y-34840439D02*
G01*
X58210742Y-34848676D01*
X59395146Y-36033080D01*
X59403383Y-36045408D01*
X59406276Y-36059950D01*
X59403383Y-36074492D01*
X59395146Y-36086820D01*
X59183014Y-36298952D01*
X59170686Y-36307189D01*
X59156144Y-36310082D01*
X59141602Y-36307189D01*
X59129274Y-36298952D01*
X57944870Y-35114548D01*
X57936633Y-35102220D01*
X57933740Y-35087678D01*
X57936633Y-35073136D01*
X57944870Y-35060808D01*
X57950267Y-35055411D01*
X58152822Y-34852854D01*
X58152828Y-34852849D01*
X58157002Y-34848676D01*
X58169330Y-34840439D01*
X58183872Y-34837546D01*
X58198414Y-34840439D01*
G37*
G36*
X62830670Y-34840439D02*
G01*
X62842998Y-34848676D01*
X62935563Y-34941241D01*
X63050951Y-35056628D01*
X63050953Y-35056631D01*
X63055130Y-35060808D01*
X63063367Y-35073136D01*
X63066260Y-35087678D01*
X63063367Y-35102220D01*
X63055130Y-35114548D01*
X61870726Y-36298952D01*
X61858398Y-36307189D01*
X61843856Y-36310082D01*
X61829314Y-36307189D01*
X61816986Y-36298952D01*
X61666372Y-36148338D01*
X61609032Y-36090999D01*
X61609029Y-36090995D01*
X61604854Y-36086820D01*
X61596617Y-36074492D01*
X61593724Y-36059950D01*
X61596617Y-36045408D01*
X61604854Y-36033080D01*
X62474974Y-35162960D01*
X62785081Y-34852852D01*
X62785084Y-34852849D01*
X62789258Y-34848676D01*
X62801586Y-34840439D01*
X62816128Y-34837546D01*
X62830670Y-34840439D01*
G37*
G36*
X30582773Y-34400238D02*
G01*
X30743600Y-34466855D01*
X30888341Y-34563568D01*
X31011433Y-34686660D01*
X31108146Y-34831401D01*
X31174763Y-34992228D01*
X31208724Y-35162962D01*
X31208724Y-35337040D01*
X31174763Y-35507774D01*
X31108146Y-35668601D01*
X31011433Y-35813342D01*
X30888341Y-35936434D01*
X30743600Y-36033147D01*
X30582773Y-36099764D01*
X30412039Y-36133725D01*
X30237961Y-36133725D01*
X30067227Y-36099764D01*
X29906400Y-36033147D01*
X29761659Y-35936434D01*
X29638567Y-35813342D01*
X29541854Y-35668601D01*
X29475237Y-35507774D01*
X29441276Y-35337040D01*
X29441276Y-35162962D01*
X29475237Y-34992228D01*
X29541854Y-34831401D01*
X29638567Y-34686660D01*
X29761659Y-34563568D01*
X29906400Y-34466855D01*
X30067227Y-34400238D01*
X30237961Y-34366277D01*
X30412039Y-34366277D01*
X30582773Y-34400238D01*
G37*
G36*
X83257773Y-34400236D02*
G01*
X83418600Y-34466853D01*
X83563341Y-34563566D01*
X83686433Y-34686658D01*
X83783146Y-34831399D01*
X83849763Y-34992226D01*
X83883724Y-35162960D01*
X83883724Y-35337038D01*
X83849763Y-35507772D01*
X83783146Y-35668599D01*
X83686433Y-35813340D01*
X83563341Y-35936432D01*
X83418600Y-36033145D01*
X83257773Y-36099762D01*
X83087039Y-36133723D01*
X82912961Y-36133723D01*
X82742227Y-36099762D01*
X82581400Y-36033145D01*
X82436659Y-35936432D01*
X82313567Y-35813340D01*
X82216854Y-35668599D01*
X82150237Y-35507772D01*
X82116276Y-35337038D01*
X82116276Y-35162960D01*
X82150237Y-34992226D01*
X82216854Y-34831399D01*
X82313567Y-34686658D01*
X82436659Y-34563566D01*
X82581400Y-34466853D01*
X82742227Y-34400236D01*
X82912961Y-34366275D01*
X83087039Y-34366275D01*
X83257773Y-34400236D01*
G37*
G36*
X58551967Y-34486885D02*
G01*
X58564295Y-34495122D01*
X59748699Y-35679526D01*
X59756936Y-35691854D01*
X59759829Y-35706396D01*
X59756936Y-35720938D01*
X59748699Y-35733266D01*
X59536567Y-35945398D01*
X59524239Y-35953635D01*
X59509697Y-35956528D01*
X59495155Y-35953635D01*
X59482827Y-35945398D01*
X58298423Y-34760994D01*
X58290186Y-34748666D01*
X58287293Y-34734124D01*
X58290186Y-34719582D01*
X58298423Y-34707254D01*
X58319019Y-34686658D01*
X58506375Y-34499300D01*
X58506381Y-34499295D01*
X58510555Y-34495122D01*
X58522883Y-34486885D01*
X58537425Y-34483992D01*
X58551967Y-34486885D01*
G37*
G36*
X62477117Y-34486885D02*
G01*
X62489445Y-34495122D01*
X62557889Y-34563566D01*
X62697398Y-34703074D01*
X62697400Y-34703077D01*
X62701577Y-34707254D01*
X62709814Y-34719582D01*
X62712707Y-34734124D01*
X62709814Y-34748666D01*
X62701577Y-34760994D01*
X61517173Y-35945398D01*
X61504845Y-35953635D01*
X61490303Y-35956528D01*
X61475761Y-35953635D01*
X61463433Y-35945398D01*
X61312819Y-35794784D01*
X61255479Y-35737445D01*
X61255476Y-35737441D01*
X61251301Y-35733266D01*
X61243064Y-35720938D01*
X61240171Y-35706396D01*
X61243064Y-35691854D01*
X61251301Y-35679526D01*
X62126934Y-34803893D01*
X62431528Y-34499298D01*
X62431531Y-34499295D01*
X62435705Y-34495122D01*
X62448033Y-34486885D01*
X62462575Y-34483992D01*
X62477117Y-34486885D01*
G37*
G36*
X33114005Y-32796207D02*
G01*
X33298762Y-32856238D01*
X33471853Y-32944432D01*
X33629017Y-33058618D01*
X33766383Y-33195984D01*
X33880569Y-33353148D01*
X33968763Y-33526239D01*
X34028794Y-33710996D01*
X34059184Y-33902869D01*
X34059184Y-34097133D01*
X34028794Y-34289006D01*
X33968763Y-34473763D01*
X33880569Y-34646854D01*
X33766383Y-34804018D01*
X33629017Y-34941384D01*
X33471853Y-35055570D01*
X33298762Y-35143764D01*
X33114005Y-35203795D01*
X32922132Y-35234185D01*
X32727868Y-35234185D01*
X32535995Y-35203795D01*
X32351238Y-35143764D01*
X32178147Y-35055570D01*
X32020983Y-34941384D01*
X31883617Y-34804018D01*
X31769431Y-34646854D01*
X31681237Y-34473763D01*
X31621206Y-34289006D01*
X31590816Y-34097133D01*
X31590816Y-33902869D01*
X31621206Y-33710996D01*
X31681237Y-33526239D01*
X31769431Y-33353148D01*
X31883617Y-33195984D01*
X32020983Y-33058618D01*
X32178147Y-32944432D01*
X32351238Y-32856238D01*
X32535995Y-32796207D01*
X32727868Y-32765817D01*
X32922132Y-32765817D01*
X33114005Y-32796207D01*
G37*
G36*
X80789005Y-32796205D02*
G01*
X80973762Y-32856236D01*
X81146853Y-32944430D01*
X81304017Y-33058616D01*
X81441383Y-33195982D01*
X81555569Y-33353146D01*
X81643763Y-33526237D01*
X81703794Y-33710994D01*
X81734184Y-33902867D01*
X81734184Y-34097131D01*
X81703794Y-34289004D01*
X81643763Y-34473761D01*
X81555569Y-34646852D01*
X81441383Y-34804016D01*
X81304017Y-34941382D01*
X81146853Y-35055568D01*
X80973762Y-35143762D01*
X80789005Y-35203793D01*
X80597132Y-35234183D01*
X80402868Y-35234183D01*
X80210995Y-35203793D01*
X80026238Y-35143762D01*
X79853147Y-35055568D01*
X79695983Y-34941382D01*
X79558617Y-34804016D01*
X79444431Y-34646852D01*
X79356237Y-34473761D01*
X79296206Y-34289004D01*
X79265816Y-34097131D01*
X79265816Y-33902867D01*
X79296206Y-33710994D01*
X79356237Y-33526237D01*
X79444431Y-33353146D01*
X79558617Y-33195982D01*
X79695983Y-33058616D01*
X79853147Y-32944430D01*
X80026238Y-32856236D01*
X80210995Y-32796205D01*
X80402868Y-32765815D01*
X80597132Y-32765815D01*
X80789005Y-32796205D01*
G37*
G36*
X32627527Y-29552151D02*
G01*
X32806918Y-29626457D01*
X32968367Y-29734333D01*
X33105667Y-29871633D01*
X33213543Y-30033082D01*
X33287849Y-30212473D01*
X33325730Y-30402914D01*
X33325730Y-30597086D01*
X33287849Y-30787527D01*
X33213543Y-30966918D01*
X33105667Y-31128367D01*
X32968367Y-31265667D01*
X32806918Y-31373543D01*
X32627527Y-31447849D01*
X32437086Y-31485730D01*
X32242914Y-31485730D01*
X32052473Y-31447849D01*
X31873082Y-31373543D01*
X31711633Y-31265667D01*
X31574333Y-31128367D01*
X31466457Y-30966918D01*
X31392151Y-30787527D01*
X31354270Y-30597086D01*
X31354270Y-30402914D01*
X31392151Y-30212473D01*
X31466457Y-30033082D01*
X31574333Y-29871633D01*
X31711633Y-29734333D01*
X31873082Y-29626457D01*
X32052473Y-29552151D01*
X32242914Y-29514270D01*
X32437086Y-29514270D01*
X32627527Y-29552151D01*
G37*
G36*
X35167527Y-29552151D02*
G01*
X35346918Y-29626457D01*
X35508367Y-29734333D01*
X35645667Y-29871633D01*
X35753543Y-30033082D01*
X35827849Y-30212473D01*
X35865730Y-30402914D01*
X35865730Y-30597086D01*
X35827849Y-30787527D01*
X35753543Y-30966918D01*
X35645667Y-31128367D01*
X35508367Y-31265667D01*
X35346918Y-31373543D01*
X35167527Y-31447849D01*
X34977086Y-31485730D01*
X34782914Y-31485730D01*
X34592473Y-31447849D01*
X34413082Y-31373543D01*
X34251633Y-31265667D01*
X34114333Y-31128367D01*
X34006457Y-30966918D01*
X33932151Y-30787527D01*
X33894270Y-30597086D01*
X33894270Y-30402914D01*
X33932151Y-30212473D01*
X34006457Y-30033082D01*
X34114333Y-29871633D01*
X34251633Y-29734333D01*
X34413082Y-29626457D01*
X34592473Y-29552151D01*
X34782914Y-29514270D01*
X34977086Y-29514270D01*
X35167527Y-29552151D01*
G37*
G36*
X37707527Y-29552151D02*
G01*
X37886918Y-29626457D01*
X38048367Y-29734333D01*
X38185667Y-29871633D01*
X38293543Y-30033082D01*
X38367849Y-30212473D01*
X38405730Y-30402914D01*
X38405730Y-30597086D01*
X38367849Y-30787527D01*
X38293543Y-30966918D01*
X38185667Y-31128367D01*
X38048367Y-31265667D01*
X37886918Y-31373543D01*
X37707527Y-31447849D01*
X37517086Y-31485730D01*
X37322914Y-31485730D01*
X37132473Y-31447849D01*
X36953082Y-31373543D01*
X36791633Y-31265667D01*
X36654333Y-31128367D01*
X36546457Y-30966918D01*
X36472151Y-30787527D01*
X36434270Y-30597086D01*
X36434270Y-30402914D01*
X36472151Y-30212473D01*
X36546457Y-30033082D01*
X36654333Y-29871633D01*
X36791633Y-29734333D01*
X36953082Y-29626457D01*
X37132473Y-29552151D01*
X37322914Y-29514270D01*
X37517086Y-29514270D01*
X37707527Y-29552151D01*
G37*
G36*
X40247527Y-29552151D02*
G01*
X40426918Y-29626457D01*
X40588367Y-29734333D01*
X40725667Y-29871633D01*
X40833543Y-30033082D01*
X40907849Y-30212473D01*
X40945730Y-30402914D01*
X40945730Y-30597086D01*
X40907849Y-30787527D01*
X40833543Y-30966918D01*
X40725667Y-31128367D01*
X40588367Y-31265667D01*
X40426918Y-31373543D01*
X40247527Y-31447849D01*
X40057086Y-31485730D01*
X39862914Y-31485730D01*
X39672473Y-31447849D01*
X39493082Y-31373543D01*
X39331633Y-31265667D01*
X39194333Y-31128367D01*
X39086457Y-30966918D01*
X39012151Y-30787527D01*
X38974270Y-30597086D01*
X38974270Y-30402914D01*
X39012151Y-30212473D01*
X39086457Y-30033082D01*
X39194333Y-29871633D01*
X39331633Y-29734333D01*
X39493082Y-29626457D01*
X39672473Y-29552151D01*
X39862914Y-29514270D01*
X40057086Y-29514270D01*
X40247527Y-29552151D01*
G37*
G36*
X42787527Y-29552151D02*
G01*
X42966918Y-29626457D01*
X43128367Y-29734333D01*
X43265667Y-29871633D01*
X43373543Y-30033082D01*
X43447849Y-30212473D01*
X43485730Y-30402914D01*
X43485730Y-30597086D01*
X43447849Y-30787527D01*
X43373543Y-30966918D01*
X43265667Y-31128367D01*
X43128367Y-31265667D01*
X42966918Y-31373543D01*
X42787527Y-31447849D01*
X42597086Y-31485730D01*
X42402914Y-31485730D01*
X42212473Y-31447849D01*
X42033082Y-31373543D01*
X41871633Y-31265667D01*
X41734333Y-31128367D01*
X41626457Y-30966918D01*
X41552151Y-30787527D01*
X41514270Y-30597086D01*
X41514270Y-30402914D01*
X41552151Y-30212473D01*
X41626457Y-30033082D01*
X41734333Y-29871633D01*
X41871633Y-29734333D01*
X42033082Y-29626457D01*
X42212473Y-29552151D01*
X42402914Y-29514270D01*
X42597086Y-29514270D01*
X42787527Y-29552151D01*
G37*
G36*
X45327527Y-29552151D02*
G01*
X45506918Y-29626457D01*
X45668367Y-29734333D01*
X45805667Y-29871633D01*
X45913543Y-30033082D01*
X45987849Y-30212473D01*
X46025730Y-30402914D01*
X46025730Y-30597086D01*
X45987849Y-30787527D01*
X45913543Y-30966918D01*
X45805667Y-31128367D01*
X45668367Y-31265667D01*
X45506918Y-31373543D01*
X45327527Y-31447849D01*
X45137086Y-31485730D01*
X44942914Y-31485730D01*
X44752473Y-31447849D01*
X44573082Y-31373543D01*
X44411633Y-31265667D01*
X44274333Y-31128367D01*
X44166457Y-30966918D01*
X44092151Y-30787527D01*
X44054270Y-30597086D01*
X44054270Y-30402914D01*
X44092151Y-30212473D01*
X44166457Y-30033082D01*
X44274333Y-29871633D01*
X44411633Y-29734333D01*
X44573082Y-29626457D01*
X44752473Y-29552151D01*
X44942914Y-29514270D01*
X45137086Y-29514270D01*
X45327527Y-29552151D01*
G37*
G36*
X47867527Y-29552151D02*
G01*
X48046918Y-29626457D01*
X48208367Y-29734333D01*
X48345667Y-29871633D01*
X48453543Y-30033082D01*
X48527849Y-30212473D01*
X48565730Y-30402914D01*
X48565730Y-30597086D01*
X48527849Y-30787527D01*
X48453543Y-30966918D01*
X48345667Y-31128367D01*
X48208367Y-31265667D01*
X48046918Y-31373543D01*
X47867527Y-31447849D01*
X47677086Y-31485730D01*
X47482914Y-31485730D01*
X47292473Y-31447849D01*
X47113082Y-31373543D01*
X46951633Y-31265667D01*
X46814333Y-31128367D01*
X46706457Y-30966918D01*
X46632151Y-30787527D01*
X46594270Y-30597086D01*
X46594270Y-30402914D01*
X46632151Y-30212473D01*
X46706457Y-30033082D01*
X46814333Y-29871633D01*
X46951633Y-29734333D01*
X47113082Y-29626457D01*
X47292473Y-29552151D01*
X47482914Y-29514270D01*
X47677086Y-29514270D01*
X47867527Y-29552151D01*
G37*
G36*
X50407527Y-29552151D02*
G01*
X50586918Y-29626457D01*
X50748367Y-29734333D01*
X50885667Y-29871633D01*
X50993543Y-30033082D01*
X51067849Y-30212473D01*
X51105730Y-30402914D01*
X51105730Y-30597086D01*
X51067849Y-30787527D01*
X50993543Y-30966918D01*
X50885667Y-31128367D01*
X50748367Y-31265667D01*
X50586918Y-31373543D01*
X50407527Y-31447849D01*
X50217086Y-31485730D01*
X50022914Y-31485730D01*
X49832473Y-31447849D01*
X49653082Y-31373543D01*
X49491633Y-31265667D01*
X49354333Y-31128367D01*
X49246457Y-30966918D01*
X49172151Y-30787527D01*
X49134270Y-30597086D01*
X49134270Y-30402914D01*
X49172151Y-30212473D01*
X49246457Y-30033082D01*
X49354333Y-29871633D01*
X49491633Y-29734333D01*
X49653082Y-29626457D01*
X49832473Y-29552151D01*
X50022914Y-29514270D01*
X50217086Y-29514270D01*
X50407527Y-29552151D01*
G37*
G36*
X52947527Y-29552151D02*
G01*
X53126918Y-29626457D01*
X53288367Y-29734333D01*
X53425667Y-29871633D01*
X53533543Y-30033082D01*
X53607849Y-30212473D01*
X53645730Y-30402914D01*
X53645730Y-30597086D01*
X53607849Y-30787527D01*
X53533543Y-30966918D01*
X53425667Y-31128367D01*
X53288367Y-31265667D01*
X53126918Y-31373543D01*
X52947527Y-31447849D01*
X52757086Y-31485730D01*
X52562914Y-31485730D01*
X52372473Y-31447849D01*
X52193082Y-31373543D01*
X52031633Y-31265667D01*
X51894333Y-31128367D01*
X51786457Y-30966918D01*
X51712151Y-30787527D01*
X51674270Y-30597086D01*
X51674270Y-30402914D01*
X51712151Y-30212473D01*
X51786457Y-30033082D01*
X51894333Y-29871633D01*
X52031633Y-29734333D01*
X52193082Y-29626457D01*
X52372473Y-29552151D01*
X52562914Y-29514270D01*
X52757086Y-29514270D01*
X52947527Y-29552151D01*
G37*
G36*
X55487527Y-29552151D02*
G01*
X55666918Y-29626457D01*
X55828367Y-29734333D01*
X55965667Y-29871633D01*
X56073543Y-30033082D01*
X56147849Y-30212473D01*
X56185730Y-30402914D01*
X56185730Y-30597086D01*
X56147849Y-30787527D01*
X56073543Y-30966918D01*
X55965667Y-31128367D01*
X55828367Y-31265667D01*
X55666918Y-31373543D01*
X55487527Y-31447849D01*
X55297086Y-31485730D01*
X55102914Y-31485730D01*
X54912473Y-31447849D01*
X54733082Y-31373543D01*
X54571633Y-31265667D01*
X54434333Y-31128367D01*
X54326457Y-30966918D01*
X54252151Y-30787527D01*
X54214270Y-30597086D01*
X54214270Y-30402914D01*
X54252151Y-30212473D01*
X54326457Y-30033082D01*
X54434333Y-29871633D01*
X54571633Y-29734333D01*
X54733082Y-29626457D01*
X54912473Y-29552151D01*
X55102914Y-29514270D01*
X55297086Y-29514270D01*
X55487527Y-29552151D01*
G37*
G36*
X58027527Y-29552151D02*
G01*
X58206918Y-29626457D01*
X58368367Y-29734333D01*
X58505667Y-29871633D01*
X58613543Y-30033082D01*
X58687849Y-30212473D01*
X58725730Y-30402914D01*
X58725730Y-30597086D01*
X58687849Y-30787527D01*
X58613543Y-30966918D01*
X58505667Y-31128367D01*
X58368367Y-31265667D01*
X58206918Y-31373543D01*
X58027527Y-31447849D01*
X57837086Y-31485730D01*
X57642914Y-31485730D01*
X57452473Y-31447849D01*
X57273082Y-31373543D01*
X57111633Y-31265667D01*
X56974333Y-31128367D01*
X56866457Y-30966918D01*
X56792151Y-30787527D01*
X56754270Y-30597086D01*
X56754270Y-30402914D01*
X56792151Y-30212473D01*
X56866457Y-30033082D01*
X56974333Y-29871633D01*
X57111633Y-29734333D01*
X57273082Y-29626457D01*
X57452473Y-29552151D01*
X57642914Y-29514270D01*
X57837086Y-29514270D01*
X58027527Y-29552151D01*
G37*
G36*
X60567527Y-29552151D02*
G01*
X60746918Y-29626457D01*
X60908367Y-29734333D01*
X61045667Y-29871633D01*
X61153543Y-30033082D01*
X61227849Y-30212473D01*
X61265730Y-30402914D01*
X61265730Y-30597086D01*
X61227849Y-30787527D01*
X61153543Y-30966918D01*
X61045667Y-31128367D01*
X60908367Y-31265667D01*
X60746918Y-31373543D01*
X60567527Y-31447849D01*
X60377086Y-31485730D01*
X60182914Y-31485730D01*
X59992473Y-31447849D01*
X59813082Y-31373543D01*
X59651633Y-31265667D01*
X59514333Y-31128367D01*
X59406457Y-30966918D01*
X59332151Y-30787527D01*
X59294270Y-30597086D01*
X59294270Y-30402914D01*
X59332151Y-30212473D01*
X59406457Y-30033082D01*
X59514333Y-29871633D01*
X59651633Y-29734333D01*
X59813082Y-29626457D01*
X59992473Y-29552151D01*
X60182914Y-29514270D01*
X60377086Y-29514270D01*
X60567527Y-29552151D01*
G37*
G36*
X63107527Y-29552151D02*
G01*
X63286918Y-29626457D01*
X63448367Y-29734333D01*
X63585667Y-29871633D01*
X63693543Y-30033082D01*
X63767849Y-30212473D01*
X63805730Y-30402914D01*
X63805730Y-30597086D01*
X63767849Y-30787527D01*
X63693543Y-30966918D01*
X63585667Y-31128367D01*
X63448367Y-31265667D01*
X63286918Y-31373543D01*
X63107527Y-31447849D01*
X62917086Y-31485730D01*
X62722914Y-31485730D01*
X62532473Y-31447849D01*
X62353082Y-31373543D01*
X62191633Y-31265667D01*
X62054333Y-31128367D01*
X61946457Y-30966918D01*
X61872151Y-30787527D01*
X61834270Y-30597086D01*
X61834270Y-30402914D01*
X61872151Y-30212473D01*
X61946457Y-30033082D01*
X62054333Y-29871633D01*
X62191633Y-29734333D01*
X62353082Y-29626457D01*
X62532473Y-29552151D01*
X62722914Y-29514270D01*
X62917086Y-29514270D01*
X63107527Y-29552151D01*
G37*
G36*
X65647527Y-29552151D02*
G01*
X65826918Y-29626457D01*
X65988367Y-29734333D01*
X66125667Y-29871633D01*
X66233543Y-30033082D01*
X66307849Y-30212473D01*
X66345730Y-30402914D01*
X66345730Y-30597086D01*
X66307849Y-30787527D01*
X66233543Y-30966918D01*
X66125667Y-31128367D01*
X65988367Y-31265667D01*
X65826918Y-31373543D01*
X65647527Y-31447849D01*
X65457086Y-31485730D01*
X65262914Y-31485730D01*
X65072473Y-31447849D01*
X64893082Y-31373543D01*
X64731633Y-31265667D01*
X64594333Y-31128367D01*
X64486457Y-30966918D01*
X64412151Y-30787527D01*
X64374270Y-30597086D01*
X64374270Y-30402914D01*
X64412151Y-30212473D01*
X64486457Y-30033082D01*
X64594333Y-29871633D01*
X64731633Y-29734333D01*
X64893082Y-29626457D01*
X65072473Y-29552151D01*
X65262914Y-29514270D01*
X65457086Y-29514270D01*
X65647527Y-29552151D01*
G37*
G36*
X68187527Y-29552151D02*
G01*
X68366918Y-29626457D01*
X68528367Y-29734333D01*
X68665667Y-29871633D01*
X68773543Y-30033082D01*
X68847849Y-30212473D01*
X68885730Y-30402914D01*
X68885730Y-30597086D01*
X68847849Y-30787527D01*
X68773543Y-30966918D01*
X68665667Y-31128367D01*
X68528367Y-31265667D01*
X68366918Y-31373543D01*
X68187527Y-31447849D01*
X67997086Y-31485730D01*
X67802914Y-31485730D01*
X67612473Y-31447849D01*
X67433082Y-31373543D01*
X67271633Y-31265667D01*
X67134333Y-31128367D01*
X67026457Y-30966918D01*
X66952151Y-30787527D01*
X66914270Y-30597086D01*
X66914270Y-30402914D01*
X66952151Y-30212473D01*
X67026457Y-30033082D01*
X67134333Y-29871633D01*
X67271633Y-29734333D01*
X67433082Y-29626457D01*
X67612473Y-29552151D01*
X67802914Y-29514270D01*
X67997086Y-29514270D01*
X68187527Y-29552151D01*
G37*
G36*
X70727527Y-29552151D02*
G01*
X70906918Y-29626457D01*
X71068367Y-29734333D01*
X71205667Y-29871633D01*
X71313543Y-30033082D01*
X71387849Y-30212473D01*
X71425730Y-30402914D01*
X71425730Y-30597086D01*
X71387849Y-30787527D01*
X71313543Y-30966918D01*
X71205667Y-31128367D01*
X71068367Y-31265667D01*
X70906918Y-31373543D01*
X70727527Y-31447849D01*
X70537086Y-31485730D01*
X70342914Y-31485730D01*
X70152473Y-31447849D01*
X69973082Y-31373543D01*
X69811633Y-31265667D01*
X69674333Y-31128367D01*
X69566457Y-30966918D01*
X69492151Y-30787527D01*
X69454270Y-30597086D01*
X69454270Y-30402914D01*
X69492151Y-30212473D01*
X69566457Y-30033082D01*
X69674333Y-29871633D01*
X69811633Y-29734333D01*
X69973082Y-29626457D01*
X70152473Y-29552151D01*
X70342914Y-29514270D01*
X70537086Y-29514270D01*
X70727527Y-29552151D01*
G37*
G36*
X73267527Y-29552151D02*
G01*
X73446918Y-29626457D01*
X73608367Y-29734333D01*
X73745667Y-29871633D01*
X73853543Y-30033082D01*
X73927849Y-30212473D01*
X73965730Y-30402914D01*
X73965730Y-30597086D01*
X73927849Y-30787527D01*
X73853543Y-30966918D01*
X73745667Y-31128367D01*
X73608367Y-31265667D01*
X73446918Y-31373543D01*
X73267527Y-31447849D01*
X73077086Y-31485730D01*
X72882914Y-31485730D01*
X72692473Y-31447849D01*
X72513082Y-31373543D01*
X72351633Y-31265667D01*
X72214333Y-31128367D01*
X72106457Y-30966918D01*
X72032151Y-30787527D01*
X71994270Y-30597086D01*
X71994270Y-30402914D01*
X72032151Y-30212473D01*
X72106457Y-30033082D01*
X72214333Y-29871633D01*
X72351633Y-29734333D01*
X72513082Y-29626457D01*
X72692473Y-29552151D01*
X72882914Y-29514270D01*
X73077086Y-29514270D01*
X73267527Y-29552151D01*
G37*
G36*
X75807527Y-29552151D02*
G01*
X75986918Y-29626457D01*
X76148367Y-29734333D01*
X76285667Y-29871633D01*
X76393543Y-30033082D01*
X76467849Y-30212473D01*
X76505730Y-30402914D01*
X76505730Y-30597086D01*
X76467849Y-30787527D01*
X76393543Y-30966918D01*
X76285667Y-31128367D01*
X76148367Y-31265667D01*
X75986918Y-31373543D01*
X75807527Y-31447849D01*
X75617086Y-31485730D01*
X75422914Y-31485730D01*
X75232473Y-31447849D01*
X75053082Y-31373543D01*
X74891633Y-31265667D01*
X74754333Y-31128367D01*
X74646457Y-30966918D01*
X74572151Y-30787527D01*
X74534270Y-30597086D01*
X74534270Y-30402914D01*
X74572151Y-30212473D01*
X74646457Y-30033082D01*
X74754333Y-29871633D01*
X74891633Y-29734333D01*
X75053082Y-29626457D01*
X75232473Y-29552151D01*
X75422914Y-29514270D01*
X75617086Y-29514270D01*
X75807527Y-29552151D01*
G37*
G36*
X78347527Y-29552151D02*
G01*
X78526918Y-29626457D01*
X78688367Y-29734333D01*
X78825667Y-29871633D01*
X78933543Y-30033082D01*
X79007849Y-30212473D01*
X79045730Y-30402914D01*
X79045730Y-30597086D01*
X79007849Y-30787527D01*
X78933543Y-30966918D01*
X78825667Y-31128367D01*
X78688367Y-31265667D01*
X78526918Y-31373543D01*
X78347527Y-31447849D01*
X78157086Y-31485730D01*
X77962914Y-31485730D01*
X77772473Y-31447849D01*
X77593082Y-31373543D01*
X77431633Y-31265667D01*
X77294333Y-31128367D01*
X77186457Y-30966918D01*
X77112151Y-30787527D01*
X77074270Y-30597086D01*
X77074270Y-30402914D01*
X77112151Y-30212473D01*
X77186457Y-30033082D01*
X77294333Y-29871633D01*
X77431633Y-29734333D01*
X77593082Y-29626457D01*
X77772473Y-29552151D01*
X77962914Y-29514270D01*
X78157086Y-29514270D01*
X78347527Y-29552151D01*
G37*
G36*
X80887527Y-29552151D02*
G01*
X81066918Y-29626457D01*
X81228367Y-29734333D01*
X81365667Y-29871633D01*
X81473543Y-30033082D01*
X81547849Y-30212473D01*
X81585730Y-30402914D01*
X81585730Y-30597086D01*
X81547849Y-30787527D01*
X81473543Y-30966918D01*
X81365667Y-31128367D01*
X81228367Y-31265667D01*
X81066918Y-31373543D01*
X80887527Y-31447849D01*
X80697086Y-31485730D01*
X80502914Y-31485730D01*
X80312473Y-31447849D01*
X80133082Y-31373543D01*
X79971633Y-31265667D01*
X79834333Y-31128367D01*
X79726457Y-30966918D01*
X79652151Y-30787527D01*
X79614270Y-30597086D01*
X79614270Y-30402914D01*
X79652151Y-30212473D01*
X79726457Y-30033082D01*
X79834333Y-29871633D01*
X79971633Y-29734333D01*
X80133082Y-29626457D01*
X80312473Y-29552151D01*
X80502914Y-29514270D01*
X80697086Y-29514270D01*
X80887527Y-29552151D01*
G37*
%LPD*%
M02*
