G04 #@! TF.GenerationSoftware,KiCad,Pcbnew,9.0.2*
G04 #@! TF.CreationDate,2025-08-18T13:33:17+03:00*
G04 #@! TF.ProjectId,tickbox,7469636b-626f-4782-9e6b-696361645f70,rev?*
G04 #@! TF.SameCoordinates,Original*
G04 #@! TF.FileFunction,Copper,L1,Top*
G04 #@! TF.FilePolarity,Positive*
%FSLAX46Y46*%
G04 Gerber Fmt 4.6, Leading zero omitted, Abs format (unit mm)*
G04 Created by KiCad (PCBNEW 9.0.2) date 2025-08-18 13:33:17*
%MOMM*%
%LPD*%
G01*
G04 APERTURE LIST*
G04 Aperture macros list*
%AMRoundRect*
0 Rectangle with rounded corners*
0 $1 Rounding radius*
0 $2 $3 $4 $5 $6 $7 $8 $9 X,Y pos of 4 corners*
0 Add a 4 corners polygon primitive as box body*
4,1,4,$2,$3,$4,$5,$6,$7,$8,$9,$2,$3,0*
0 Add four circle primitives for the rounded corners*
1,1,$1+$1,$2,$3*
1,1,$1+$1,$4,$5*
1,1,$1+$1,$6,$7*
1,1,$1+$1,$8,$9*
0 Add four rect primitives between the rounded corners*
20,1,$1+$1,$2,$3,$4,$5,0*
20,1,$1+$1,$4,$5,$6,$7,0*
20,1,$1+$1,$6,$7,$8,$9,0*
20,1,$1+$1,$8,$9,$2,$3,0*%
%AMRotRect*
0 Rectangle, with rotation*
0 The origin of the aperture is its center*
0 $1 length*
0 $2 width*
0 $3 Rotation angle, in degrees counterclockwise*
0 Add horizontal line*
21,1,$1,$2,0,0,$3*%
G04 Aperture macros list end*
G04 #@! TA.AperFunction,SMDPad,CuDef*
%ADD10RoundRect,0.250000X0.650000X-0.412500X0.650000X0.412500X-0.650000X0.412500X-0.650000X-0.412500X0*%
G04 #@! TD*
G04 #@! TA.AperFunction,ComponentPad*
%ADD11R,1.700000X1.700000*%
G04 #@! TD*
G04 #@! TA.AperFunction,ComponentPad*
%ADD12C,1.700000*%
G04 #@! TD*
G04 #@! TA.AperFunction,SMDPad,CuDef*
%ADD13RoundRect,0.250000X0.400000X0.625000X-0.400000X0.625000X-0.400000X-0.625000X0.400000X-0.625000X0*%
G04 #@! TD*
G04 #@! TA.AperFunction,SMDPad,CuDef*
%ADD14RoundRect,0.190500X0.444500X-0.762000X0.444500X0.762000X-0.444500X0.762000X-0.444500X-0.762000X0*%
G04 #@! TD*
G04 #@! TA.AperFunction,SMDPad,CuDef*
%ADD15RoundRect,0.250000X0.625000X-0.400000X0.625000X0.400000X-0.625000X0.400000X-0.625000X-0.400000X0*%
G04 #@! TD*
G04 #@! TA.AperFunction,SMDPad,CuDef*
%ADD16RoundRect,0.250000X-0.400000X-0.625000X0.400000X-0.625000X0.400000X0.625000X-0.400000X0.625000X0*%
G04 #@! TD*
G04 #@! TA.AperFunction,SMDPad,CuDef*
%ADD17RoundRect,0.250000X-0.650000X0.412500X-0.650000X-0.412500X0.650000X-0.412500X0.650000X0.412500X0*%
G04 #@! TD*
G04 #@! TA.AperFunction,ComponentPad*
%ADD18R,2.000000X2.000000*%
G04 #@! TD*
G04 #@! TA.AperFunction,ComponentPad*
%ADD19C,2.000000*%
G04 #@! TD*
G04 #@! TA.AperFunction,SMDPad,CuDef*
%ADD20RotRect,0.300000X1.675000X225.000000*%
G04 #@! TD*
G04 #@! TA.AperFunction,SMDPad,CuDef*
%ADD21RotRect,0.300000X1.675000X135.000000*%
G04 #@! TD*
G04 #@! TA.AperFunction,SMDPad,CuDef*
%ADD22RoundRect,0.150000X0.587500X0.150000X-0.587500X0.150000X-0.587500X-0.150000X0.587500X-0.150000X0*%
G04 #@! TD*
G04 #@! TA.AperFunction,SMDPad,CuDef*
%ADD23RoundRect,0.250000X-0.625000X0.400000X-0.625000X-0.400000X0.625000X-0.400000X0.625000X0.400000X0*%
G04 #@! TD*
G04 #@! TA.AperFunction,ComponentPad*
%ADD24C,2.400000*%
G04 #@! TD*
G04 #@! TA.AperFunction,ComponentPad*
%ADD25C,1.000000*%
G04 #@! TD*
G04 #@! TA.AperFunction,ComponentPad*
%ADD26C,2.200000*%
G04 #@! TD*
G04 #@! TA.AperFunction,ComponentPad*
%ADD27R,1.905000X1.905000*%
G04 #@! TD*
G04 #@! TA.AperFunction,ComponentPad*
%ADD28C,1.905000*%
G04 #@! TD*
G04 #@! TA.AperFunction,ViaPad*
%ADD29C,0.600000*%
G04 #@! TD*
G04 #@! TA.AperFunction,Conductor*
%ADD30C,0.200000*%
G04 #@! TD*
G04 #@! TA.AperFunction,Conductor*
%ADD31C,0.127000*%
G04 #@! TD*
G04 #@! TA.AperFunction,Conductor*
%ADD32C,0.150000*%
G04 #@! TD*
G04 APERTURE END LIST*
D10*
X70250000Y-57812500D03*
X70250000Y-54687500D03*
D11*
X55000000Y-54460000D03*
D12*
X55000000Y-57000000D03*
X55000000Y-59540000D03*
D13*
X50550000Y-47500000D03*
X47450000Y-47500000D03*
D14*
X49500000Y-38750000D03*
X47000000Y-38750000D03*
D15*
X37500000Y-50550000D03*
X37500000Y-47450000D03*
D16*
X41450000Y-47500000D03*
X44550000Y-47500000D03*
D17*
X73500000Y-38937500D03*
X73500000Y-42062500D03*
D18*
X42629216Y-56000000D03*
D19*
X47629216Y-56000000D03*
D20*
X61976439Y-48779740D03*
X62329992Y-48426186D03*
X62683546Y-48072633D03*
X63037099Y-47719080D03*
X63390653Y-47365526D03*
X63744206Y-47011973D03*
X64097759Y-46658419D03*
X64451313Y-46304866D03*
X64804866Y-45951313D03*
X65158419Y-45597759D03*
X65511973Y-45244206D03*
X65865526Y-44890653D03*
X66219080Y-44537099D03*
X66572633Y-44183546D03*
X66926186Y-43829992D03*
X67279740Y-43476439D03*
D21*
X67279740Y-40523561D03*
X66926186Y-40170008D03*
X66572633Y-39816454D03*
X66219080Y-39462901D03*
X65865526Y-39109347D03*
X65511973Y-38755794D03*
X65158419Y-38402241D03*
X64804866Y-38048687D03*
X64451313Y-37695134D03*
X64097759Y-37341581D03*
X63744206Y-36988027D03*
X63390653Y-36634474D03*
X63037099Y-36280920D03*
X62683546Y-35927367D03*
X62329992Y-35573814D03*
X61976439Y-35220260D03*
D20*
X59023561Y-35220260D03*
X58670008Y-35573814D03*
X58316454Y-35927367D03*
X57962901Y-36280920D03*
X57609347Y-36634474D03*
X57255794Y-36988027D03*
X56902241Y-37341581D03*
X56548687Y-37695134D03*
X56195134Y-38048687D03*
X55841581Y-38402241D03*
X55488027Y-38755794D03*
X55134474Y-39109347D03*
X54780920Y-39462901D03*
X54427367Y-39816454D03*
X54073814Y-40170008D03*
X53720260Y-40523561D03*
D21*
X53720260Y-43476439D03*
X54073814Y-43829992D03*
X54427367Y-44183546D03*
X54780920Y-44537099D03*
X55134474Y-44890653D03*
X55488027Y-45244206D03*
X55841581Y-45597759D03*
X56195134Y-45951313D03*
X56548687Y-46304866D03*
X56902241Y-46658419D03*
X57255794Y-47011973D03*
X57609347Y-47365526D03*
X57962901Y-47719080D03*
X58316454Y-48072633D03*
X58670008Y-48426186D03*
X59023561Y-48779740D03*
D22*
X47000000Y-44450000D03*
X47000000Y-42550000D03*
X45125000Y-43500000D03*
D13*
X61550000Y-53960000D03*
X58450000Y-53960000D03*
D23*
X37000000Y-36450000D03*
X37000000Y-39550000D03*
D15*
X73500000Y-54050000D03*
X73500000Y-50950000D03*
X64500000Y-55050000D03*
X64500000Y-51950000D03*
D13*
X75050000Y-36000000D03*
X71950000Y-36000000D03*
D24*
X32825000Y-41000001D03*
X32825000Y-34000001D03*
D12*
X30325000Y-39750001D03*
X30325000Y-35250001D03*
D25*
X69700000Y-52150000D03*
X67800000Y-52150000D03*
D23*
X37000000Y-54950000D03*
X37000000Y-58050000D03*
X70500000Y-45450000D03*
X70500000Y-48550000D03*
D26*
X80750000Y-55500000D03*
X80750000Y-45500000D03*
X77350000Y-50500000D03*
D10*
X73500000Y-47562500D03*
X73500000Y-44437500D03*
X67250000Y-57812500D03*
X67250000Y-54687500D03*
D13*
X61550000Y-56960000D03*
X58450000Y-56960000D03*
D11*
X75725000Y-60000000D03*
D12*
X78265000Y-60000000D03*
D13*
X61550000Y-59960000D03*
X58450000Y-59960000D03*
D24*
X80500000Y-33999999D03*
X80500000Y-40999999D03*
D12*
X83000000Y-35249999D03*
X83000000Y-39749999D03*
D24*
X32825000Y-60000001D03*
X32825000Y-53000001D03*
D12*
X30325000Y-58750001D03*
X30325000Y-54250001D03*
D27*
X80600000Y-63500000D03*
D28*
X78060000Y-63500000D03*
X75520000Y-63500000D03*
X72980000Y-63500000D03*
X70440000Y-63500000D03*
X67900000Y-63500000D03*
X65360000Y-63500000D03*
X62820000Y-63500000D03*
X60280000Y-63500000D03*
X57740000Y-63500000D03*
X55200000Y-63500000D03*
X52660000Y-63500000D03*
X50120000Y-63500000D03*
X47580000Y-63500000D03*
X45040000Y-63500000D03*
X42500000Y-63500000D03*
X39960000Y-63500000D03*
X37420000Y-63500000D03*
X34880000Y-63500000D03*
X32340000Y-63500000D03*
X32340000Y-30500000D03*
X34880000Y-30500000D03*
X37420000Y-30500000D03*
X39960000Y-30500000D03*
X42500000Y-30500000D03*
X45040000Y-30500000D03*
X47580000Y-30500000D03*
X50120000Y-30500000D03*
X52660000Y-30500000D03*
X55200000Y-30500000D03*
X57740000Y-30500000D03*
X60280000Y-30500000D03*
X62820000Y-30500000D03*
X65360000Y-30500000D03*
X67900000Y-30500000D03*
X70440000Y-30500000D03*
X72980000Y-30500000D03*
X75520000Y-30500000D03*
X78060000Y-30500000D03*
X80600000Y-30500000D03*
D29*
X67500000Y-36500000D03*
X57750000Y-41500000D03*
X50023561Y-40523561D03*
X49250000Y-44750000D03*
X64500000Y-50250000D03*
X72437500Y-57812500D03*
X47500000Y-41250000D03*
X75687500Y-42062500D03*
X71875000Y-44375000D03*
X68750000Y-46250000D03*
X53250000Y-48000000D03*
X57000000Y-53250000D03*
X56000000Y-50750000D03*
X56000000Y-49750000D03*
X62000000Y-51500000D03*
X52750000Y-46500000D03*
X53750000Y-50500000D03*
X53250000Y-47250000D03*
X56000000Y-51750000D03*
X53250000Y-48750000D03*
X53500000Y-45750000D03*
X53250000Y-49500000D03*
X63875000Y-49375000D03*
X58500000Y-39500000D03*
X38000000Y-52500000D03*
X63250000Y-50250000D03*
X58500000Y-51500000D03*
X38500000Y-42500000D03*
X69125000Y-37875000D03*
X47500000Y-37250000D03*
X49000000Y-37250000D03*
X67590990Y-38090990D03*
X59500000Y-39000000D03*
X51000000Y-36500000D03*
X70750000Y-39500000D03*
X63000000Y-43750000D03*
X33200000Y-47600000D03*
D30*
X64155330Y-40352029D02*
X67279740Y-43476439D01*
X64155330Y-39405330D02*
X64155330Y-40352029D01*
X64155330Y-39405330D02*
X65158419Y-38402241D01*
D31*
X67639087Y-38750000D02*
X66572633Y-39816454D01*
X68250000Y-38750000D02*
X67639087Y-38750000D01*
X69125000Y-37875000D02*
X68250000Y-38750000D01*
X67590990Y-38090990D02*
X66219080Y-39462901D01*
D32*
X78600000Y-32500000D02*
X80600000Y-30500000D01*
X74000000Y-33750000D02*
X75250000Y-32500000D01*
X67500000Y-36500000D02*
X70250000Y-33750000D01*
X75250000Y-32500000D02*
X78600000Y-32500000D01*
X70250000Y-33750000D02*
X74000000Y-33750000D01*
D30*
X60000000Y-58000000D02*
X61550000Y-59550000D01*
X71400000Y-43200000D02*
X70500000Y-44100000D01*
X37500000Y-50550000D02*
X38400000Y-50550000D01*
X70500000Y-45450000D02*
X69253301Y-45450000D01*
X41685500Y-64935500D02*
X82250000Y-64935500D01*
X71950000Y-36000000D02*
X70708500Y-37241500D01*
X79300000Y-54050000D02*
X80750000Y-55500000D01*
X65700000Y-56250000D02*
X71300000Y-56250000D01*
X61550000Y-53960000D02*
X60000000Y-55510000D01*
X79265000Y-61000000D02*
X78265000Y-60000000D01*
X41250000Y-64500000D02*
X41685500Y-64935500D01*
X41250000Y-57379216D02*
X41250000Y-64500000D01*
X80750000Y-45500000D02*
X78450000Y-43200000D01*
X80750000Y-45500000D02*
X80750000Y-55500000D01*
X37000000Y-39550000D02*
X37000000Y-43050000D01*
X42629216Y-55679216D02*
X37500000Y-50550000D01*
X81185500Y-61000000D02*
X79265000Y-61000000D01*
X78450000Y-43200000D02*
X71400000Y-43200000D01*
X60500000Y-43060660D02*
X64155330Y-39405330D01*
X38400000Y-50550000D02*
X41450000Y-47500000D01*
X82250000Y-64935500D02*
X82935500Y-64250000D01*
X82935500Y-64250000D02*
X82935500Y-62750000D01*
X42629216Y-56000000D02*
X42629216Y-55679216D01*
X66926186Y-43829992D02*
X67279740Y-43476439D01*
X71950000Y-37387500D02*
X73500000Y-38937500D01*
X70500000Y-44100000D02*
X70500000Y-45450000D01*
X73500000Y-54050000D02*
X79300000Y-54050000D01*
X71950000Y-36000000D02*
X71950000Y-37387500D01*
X78265000Y-60000000D02*
X80750000Y-57515000D01*
X82935500Y-62750000D02*
X81185500Y-61000000D01*
X42629216Y-56000000D02*
X41250000Y-57379216D01*
X71300000Y-56250000D02*
X73500000Y-54050000D01*
X70708500Y-37241500D02*
X66319160Y-37241500D01*
X42629216Y-57120784D02*
X41700000Y-58050000D01*
X66319160Y-37241500D02*
X65158419Y-38402241D01*
X80750000Y-57515000D02*
X80750000Y-55500000D01*
X69253301Y-45450000D02*
X67279740Y-43476439D01*
X37000000Y-43050000D02*
X41450000Y-47500000D01*
X42629216Y-56000000D02*
X42629216Y-57120784D01*
X41700000Y-58050000D02*
X37000000Y-58050000D01*
X60500000Y-52910000D02*
X60500000Y-43060660D01*
X61550000Y-59550000D02*
X61550000Y-59960000D01*
X64500000Y-55050000D02*
X65700000Y-56250000D01*
X60000000Y-55510000D02*
X60000000Y-58000000D01*
X61550000Y-53960000D02*
X60500000Y-52910000D01*
D32*
X54780920Y-39462901D02*
X54427367Y-39816454D01*
X62820000Y-63500000D02*
X64320000Y-62000000D01*
X49250000Y-60090000D02*
X52660000Y-63500000D01*
X42500000Y-63500000D02*
X44000000Y-62000000D01*
X54427367Y-39816454D02*
X54073814Y-40170008D01*
X51160000Y-62000000D02*
X52660000Y-63500000D01*
X54160000Y-62000000D02*
X61320000Y-62000000D01*
X52660000Y-63500000D02*
X54160000Y-62000000D01*
X44000000Y-62000000D02*
X51160000Y-62000000D01*
X53720260Y-40523561D02*
X50023561Y-40523561D01*
X64320000Y-62000000D02*
X79100000Y-62000000D01*
X54073814Y-40170008D02*
X53720260Y-40523561D01*
X54780920Y-39462901D02*
X56818019Y-41500000D01*
X79100000Y-62000000D02*
X80600000Y-63500000D01*
X61320000Y-62000000D02*
X62820000Y-63500000D01*
X56818019Y-41500000D02*
X57750000Y-41500000D01*
X49250000Y-44750000D02*
X49250000Y-60090000D01*
X67250000Y-54687500D02*
X67250000Y-52700000D01*
X67800000Y-52150000D02*
X67800000Y-50360660D01*
X67800000Y-50360660D02*
X64097759Y-46658419D01*
X67250000Y-52700000D02*
X67800000Y-52150000D01*
X64500000Y-49181981D02*
X64500000Y-50250000D01*
X63037099Y-47719080D02*
X64500000Y-49181981D01*
D31*
X73500000Y-44437500D02*
X71937500Y-44437500D01*
D32*
X66572633Y-44183546D02*
X68639087Y-46250000D01*
D31*
X71937500Y-44437500D02*
X71875000Y-44375000D01*
D32*
X68639087Y-46250000D02*
X68750000Y-46250000D01*
D31*
X72437500Y-57812500D02*
X72500000Y-57750000D01*
X47000000Y-42550000D02*
X47500000Y-42050000D01*
D32*
X73500000Y-42062500D02*
X75687500Y-42062500D01*
D31*
X67250000Y-57812500D02*
X70250000Y-57812500D01*
D32*
X66219080Y-44537099D02*
X66572633Y-44183546D01*
D31*
X71875000Y-44375000D02*
X71750000Y-44250000D01*
X70250000Y-57812500D02*
X72437500Y-57812500D01*
X47500000Y-42050000D02*
X47500000Y-41250000D01*
D32*
X62502000Y-32722000D02*
X60280000Y-30500000D01*
X62683546Y-35927367D02*
X63878000Y-34732913D01*
X63878000Y-33684848D02*
X62915151Y-32722000D01*
X63878000Y-34732913D02*
X63878000Y-33684848D01*
X62915151Y-32722000D02*
X62502000Y-32722000D01*
X61976439Y-35220260D02*
X59920260Y-35220260D01*
X59920260Y-35220260D02*
X55200000Y-30500000D01*
X63600000Y-33800000D02*
X62800000Y-33000000D01*
X60200000Y-33000000D02*
X60200000Y-32960000D01*
X63600000Y-34303806D02*
X63600000Y-33800000D01*
X62800000Y-33000000D02*
X60200000Y-33000000D01*
X60200000Y-32960000D02*
X57740000Y-30500000D01*
X62329992Y-35573814D02*
X63600000Y-34303806D01*
X54146447Y-48000000D02*
X53250000Y-48000000D01*
X56195134Y-45951313D02*
X54146447Y-48000000D01*
X44550000Y-52920784D02*
X44550000Y-47500000D01*
X44550000Y-44075000D02*
X45125000Y-43500000D01*
X47629216Y-56000000D02*
X44550000Y-52920784D01*
X44550000Y-47500000D02*
X44550000Y-44075000D01*
X69700000Y-51553553D02*
X64451313Y-46304866D01*
X70250000Y-54687500D02*
X70250000Y-52700000D01*
X69700000Y-52150000D02*
X69700000Y-51553553D01*
X70250000Y-52700000D02*
X69700000Y-52150000D01*
X55488027Y-38755794D02*
X50982233Y-34250000D01*
X50982233Y-34250000D02*
X38630000Y-34250000D01*
X38630000Y-34250000D02*
X34880000Y-30500000D01*
X57960000Y-59960000D02*
X55000000Y-57000000D01*
X58450000Y-56960000D02*
X55040000Y-56960000D01*
X56000000Y-50750000D02*
X57000000Y-49750000D01*
X58450000Y-59960000D02*
X57960000Y-59960000D01*
X57000000Y-55000000D02*
X55000000Y-57000000D01*
X57000000Y-53250000D02*
X57000000Y-55000000D01*
X57000000Y-48681981D02*
X57962901Y-47719080D01*
X55040000Y-56960000D02*
X55000000Y-57000000D01*
X57000000Y-49750000D02*
X57000000Y-48681981D01*
X53882000Y-31722000D02*
X52660000Y-30500000D01*
X59023561Y-35220260D02*
X55525301Y-31722000D01*
X55525301Y-31722000D02*
X53882000Y-31722000D01*
X56000000Y-48974873D02*
X56000000Y-49750000D01*
X56781576Y-52678424D02*
X55000000Y-54460000D01*
X58450000Y-53960000D02*
X57168424Y-52678424D01*
X57609347Y-47365526D02*
X56000000Y-48974873D01*
X57168424Y-52678424D02*
X56781576Y-52678424D01*
X61976439Y-48779740D02*
X61976439Y-51476439D01*
X61976439Y-51476439D02*
X62000000Y-51500000D01*
X65360000Y-33958019D02*
X65360000Y-30500000D01*
X63037099Y-36280920D02*
X65360000Y-33958019D01*
X55488027Y-45244206D02*
X54232233Y-46500000D01*
X54232233Y-46500000D02*
X52750000Y-46500000D01*
X57238027Y-47011973D02*
X53750000Y-50500000D01*
X57255794Y-47011973D02*
X57238027Y-47011973D01*
X55841581Y-45597759D02*
X54189340Y-47250000D01*
X54189340Y-47250000D02*
X53250000Y-47250000D01*
X70440000Y-30999340D02*
X70440000Y-30500000D01*
X64097759Y-37341581D02*
X70440000Y-30999340D01*
X51396447Y-33250000D02*
X42710000Y-33250000D01*
X42710000Y-33250000D02*
X39960000Y-30500000D01*
X56195134Y-38048687D02*
X51396447Y-33250000D01*
X55134474Y-39109347D02*
X50775127Y-34750000D01*
X50775127Y-34750000D02*
X37750000Y-34750000D01*
X34090000Y-32250000D02*
X32340000Y-30500000D01*
X37750000Y-34750000D02*
X35250000Y-32250000D01*
X35250000Y-32250000D02*
X34090000Y-32250000D01*
X53239767Y-32972000D02*
X44972000Y-32972000D01*
X44972000Y-32972000D02*
X42500000Y-30500000D01*
X57255794Y-36988027D02*
X53239767Y-32972000D01*
X55096194Y-32000000D02*
X51620000Y-32000000D01*
X58670008Y-35573814D02*
X55096194Y-32000000D01*
X51620000Y-32000000D02*
X50120000Y-30500000D01*
X57472000Y-48917087D02*
X57472000Y-50278000D01*
X57472000Y-50278000D02*
X56000000Y-51750000D01*
X58316454Y-48072633D02*
X57472000Y-48917087D01*
X54789087Y-32400000D02*
X49480000Y-32400000D01*
X58316454Y-35927367D02*
X54789087Y-32400000D01*
X49480000Y-32400000D02*
X47580000Y-30500000D01*
X56548687Y-46304866D02*
X54103553Y-48750000D01*
X54103553Y-48750000D02*
X53250000Y-48750000D01*
X55134474Y-44890653D02*
X54275127Y-45750000D01*
X54275127Y-45750000D02*
X53500000Y-45750000D01*
X56902241Y-46658419D02*
X54060660Y-49500000D01*
X54060660Y-49500000D02*
X53250000Y-49500000D01*
X68537373Y-47562500D02*
X73500000Y-47562500D01*
X65865526Y-44890653D02*
X68537373Y-47562500D01*
X63000000Y-53450000D02*
X64500000Y-51950000D01*
X55000000Y-59540000D02*
X56498000Y-61038000D01*
X65281000Y-48548767D02*
X65281000Y-51169000D01*
X63744206Y-47011973D02*
X65281000Y-48548767D01*
X63000000Y-60182566D02*
X63000000Y-53450000D01*
X65281000Y-51169000D02*
X64500000Y-51950000D01*
X62144566Y-61038000D02*
X63000000Y-60182566D01*
X56498000Y-61038000D02*
X62144566Y-61038000D01*
X62683546Y-48183546D02*
X63875000Y-49375000D01*
X63875000Y-49375000D02*
X64000000Y-49500000D01*
X62683546Y-48072633D02*
X62683546Y-48183546D01*
X62722000Y-56028000D02*
X61790000Y-56960000D01*
X65003000Y-48977873D02*
X65003000Y-50458350D01*
X63390653Y-47365526D02*
X65003000Y-48977873D01*
X64708350Y-50753000D02*
X63747000Y-50753000D01*
X61790000Y-56960000D02*
X61550000Y-56960000D01*
X62722000Y-51778000D02*
X62722000Y-56028000D01*
X63747000Y-50753000D02*
X62722000Y-51778000D01*
X65003000Y-50458350D02*
X64708350Y-50753000D01*
X63390653Y-36634474D02*
X67900000Y-32125127D01*
X67900000Y-32125127D02*
X67900000Y-30500000D01*
D30*
X31024999Y-54950000D02*
X30325000Y-54250001D01*
X37000000Y-54950000D02*
X31024999Y-54950000D01*
X56902241Y-37341581D02*
X58500000Y-38939340D01*
X37000000Y-53500000D02*
X37000000Y-54950000D01*
X38000000Y-52500000D02*
X37000000Y-53500000D01*
X58500000Y-38939340D02*
X58500000Y-39500000D01*
D32*
X70280000Y-33200000D02*
X72980000Y-30500000D01*
X64451313Y-37695134D02*
X68946447Y-33200000D01*
X68946447Y-33200000D02*
X70280000Y-33200000D01*
X47234000Y-32694000D02*
X45040000Y-30500000D01*
X54375981Y-32694000D02*
X47234000Y-32694000D01*
X57962901Y-36280920D02*
X54375981Y-32694000D01*
X63250000Y-49346194D02*
X63250000Y-50250000D01*
X62329992Y-48426186D02*
X63250000Y-49346194D01*
X68817767Y-48550000D02*
X65511973Y-45244206D01*
X70500000Y-48550000D02*
X68817767Y-48550000D01*
X59023561Y-48779740D02*
X59023561Y-50976439D01*
X59023561Y-50976439D02*
X58500000Y-51500000D01*
X39500000Y-33750000D02*
X37420000Y-31670000D01*
X37420000Y-31670000D02*
X37420000Y-30500000D01*
X55841581Y-38402241D02*
X51189340Y-33750000D01*
X51189340Y-33750000D02*
X39500000Y-33750000D01*
D31*
X40750000Y-40250000D02*
X47750000Y-40250000D01*
X38500000Y-42500000D02*
X40750000Y-40250000D01*
X47750000Y-40250000D02*
X52500000Y-45000000D01*
X52500000Y-45000000D02*
X53610913Y-45000000D01*
X53610913Y-45000000D02*
X54427367Y-44183546D01*
D32*
X73500000Y-50950000D02*
X71953000Y-49403000D01*
X68963660Y-49403000D02*
X65158419Y-45597759D01*
X71953000Y-49403000D02*
X68963660Y-49403000D01*
D31*
X47000000Y-37750000D02*
X47500000Y-37250000D01*
X47000000Y-38750000D02*
X47000000Y-37750000D01*
X49500000Y-37750000D02*
X49000000Y-37250000D01*
X49500000Y-38750000D02*
X49500000Y-37750000D01*
D30*
X37000000Y-36450000D02*
X31524999Y-36450000D01*
X31524999Y-36450000D02*
X30325000Y-35250001D01*
X57609347Y-36634474D02*
X59500000Y-38525127D01*
X51000000Y-36500000D02*
X39500000Y-36500000D01*
X39500000Y-36500000D02*
X39450000Y-36450000D01*
X39450000Y-36450000D02*
X37000000Y-36450000D01*
X59500000Y-38525127D02*
X59500000Y-39000000D01*
D32*
X58670008Y-48426186D02*
X57750000Y-49346194D01*
X52500000Y-52500000D02*
X50550000Y-50550000D01*
X57750000Y-51000000D02*
X56250000Y-52500000D01*
X56250000Y-52500000D02*
X52500000Y-52500000D01*
X57750000Y-49346194D02*
X57750000Y-51000000D01*
X50550000Y-50550000D02*
X50550000Y-47500000D01*
X63000000Y-44146447D02*
X63000000Y-43750000D01*
X75000000Y-40500000D02*
X76750000Y-38750000D01*
X76750000Y-38750000D02*
X82000001Y-38750000D01*
X79250001Y-36000000D02*
X82250001Y-39000000D01*
X64804866Y-45951313D02*
X63000000Y-44146447D01*
X71750000Y-40500000D02*
X75000000Y-40500000D01*
X70750000Y-39500000D02*
X71750000Y-40500000D01*
X82000001Y-38750000D02*
X82250001Y-39000000D01*
X75050000Y-36000000D02*
X79250001Y-36000000D01*
X82250001Y-39000000D02*
X83000000Y-39749999D01*
X47450000Y-44900000D02*
X47450000Y-47500000D01*
X47000000Y-44450000D02*
X47450000Y-44900000D01*
X33200000Y-47600000D02*
X33350000Y-47450000D01*
X33350000Y-47450000D02*
X37500000Y-47450000D01*
M02*
